<svg width="24" height="24" viewBox="0 0 24 24" fill="none" xmlns="http://www.w3.org/2000/svg">
<path fill-rule="evenodd" clip-rule="evenodd" d="M6.96967 2.96967C7.11032 2.82902 7.30109 2.75 7.5 2.75H20.5C20.6989 2.75 20.8897 2.82902 21.0303 2.96967C21.171 3.11032 21.25 3.30109 21.25 3.5V16.5C21.25 16.6989 21.171 16.8897 21.0303 17.0303C20.8897 17.171 20.6989 17.25 20.5 17.25H19.75V6.5C19.75 5.90326 19.5129 5.33097 19.091 4.90901C18.669 4.48705 18.0967 4.25 17.5 4.25H6.75V3.5C6.75 3.30109 6.82902 3.11032 6.96967 2.96967ZM5.25 4.25V3.5C5.25 2.90326 5.48705 2.33097 5.90901 1.90901C6.33097 1.48705 6.90326 1.25 7.5 1.25H20.5C21.0967 1.25 21.669 1.48705 22.091 1.90901C22.5129 2.33097 22.75 2.90326 22.75 3.5V16.5C22.75 17.0967 22.5129 17.669 22.091 18.091C21.669 18.5129 21.0967 18.75 20.5 18.75H19.75V20.5C19.75 21.0967 19.5129 21.669 19.091 22.091C18.669 22.5129 18.0967 22.75 17.5 22.75H3.5C2.90326 22.75 2.33097 22.5129 1.90901 22.091C1.48705 21.669 1.25 21.0967 1.25 20.5V6.5C1.25 5.90326 1.48705 5.33097 1.90901 4.90901C2.33097 4.48705 2.90326 4.25 3.5 4.25H5.25ZM2.96967 5.96967C3.11032 5.82902 3.30109 5.75 3.5 5.75H17.5C17.6989 5.75 17.8897 5.82902 18.0303 5.96967C18.171 6.11032 18.25 6.30109 18.25 6.5V20.5C18.25 20.6989 18.171 20.8897 18.0303 21.0303C17.8897 21.171 17.6989 21.25 17.5 21.25H3.5C3.30109 21.25 3.11032 21.171 2.96967 21.0303C2.82902 20.8897 2.75 20.6989 2.75 20.5V6.5C2.75 6.30109 2.82902 6.11032 2.96967 5.96967ZM12.401 9.32573L9.93445 11.8939C9.90465 11.9421 9.86889 11.9876 9.82716 12.0295C9.71761 12.1394 9.63296 12.2715 9.57893 12.417C9.52491 12.5625 9.50277 12.7178 9.51402 12.8726L9.5142 12.875C9.53405 13.1609 9.65711 13.4299 9.86047 13.6318C10.1544 13.9237 10.156 14.3986 9.86417 14.6925C9.5723 14.9864 9.09743 14.988 8.80352 14.6962C8.34238 14.2382 8.06321 13.6285 8.01788 12.9802C7.99125 12.6115 8.04407 12.2413 8.17278 11.8948C8.26444 11.648 8.39305 11.4173 8.5537 11.2103C8.58607 11.1478 8.62785 11.0888 8.67908 11.0355L11.3251 8.2805L11.3357 8.26969C12.3677 7.23766 14.0357 7.2801 15.0603 8.30469C16.0829 9.3273 16.1284 10.9893 15.1045 12.0222L14.1562 13.026C13.8718 13.3271 13.3971 13.3407 13.096 13.0562C12.7949 12.7718 12.7814 12.2971 13.0658 11.996L14.0208 10.985L14.0272 10.9783L14.0357 10.9697C14.4554 10.55 14.4663 9.83202 13.9997 9.36535C13.536 8.90165 12.8216 8.91031 12.401 9.32573ZM7.26333 14.9033C7.55622 14.6104 7.55622 14.1355 7.26333 13.8427C6.97043 13.5498 6.49556 13.5498 6.20267 13.8427C6.0793 13.966 5.88699 14.1539 5.72298 14.3134C5.64151 14.3927 5.56793 14.464 5.51472 14.5156L5.42886 14.5985L5.4193 14.608C4.40703 15.6217 4.37702 17.3907 5.42002 18.4337C6.44073 19.453 8.09817 19.5001 9.1314 18.4821L11.6967 16.1533C11.7032 16.1475 11.7097 16.1414 11.7161 16.1353C11.7211 16.1306 11.7259 16.1258 11.7307 16.1209C12.7593 15.0886 12.7158 13.4228 11.691 12.3993C11.3979 12.1066 10.923 12.1069 10.6303 12.4C10.3376 12.6931 10.3379 13.168 10.631 13.4607C11.0929 13.922 11.0867 14.6311 10.6777 15.0524L8.11088 17.3827C8.10194 17.3908 8.0932 17.3991 8.08467 17.4077C7.66493 17.8274 6.94686 17.8384 6.48015 17.3725C6.03472 16.9268 6.04353 16.1108 6.47719 15.6715L6.55824 15.5931C6.612 15.541 6.68636 15.4689 6.76877 15.3888C6.9325 15.2295 7.13169 15.035 7.26333 14.9033Z" fill="black"/>
</svg>
