<svg width="24" height="24" viewBox="0 0 24 24" fill="none" xmlns="http://www.w3.org/2000/svg">
<path fill-rule="evenodd" clip-rule="evenodd" d="M8.75 6.03107C8.75 5.87621 8.87621 5.75 9.03107 5.75H17.9689C18.1238 5.75 18.25 5.87621 18.25 6.03107V14.9689C18.25 15.1238 18.1238 15.25 17.9689 15.25H16.75V9.03107C16.75 8.04779 15.9522 7.25 14.9689 7.25H8.75V6.03107ZM7.25 7.25V6.03107C7.25 5.04779 8.04779 4.25 9.03107 4.25H17.9689C18.9522 4.25 19.75 5.04779 19.75 6.03107V14.9689C19.75 15.9522 18.9522 16.75 17.9689 16.75H16.75V17.9689C16.75 18.9522 15.9522 19.75 14.9689 19.75H6.03107C5.04779 19.75 4.25 18.9522 4.25 17.9689V9.03107C4.25 8.04779 5.04779 7.25 6.03107 7.25H7.25ZM5.75 9.03107C5.75 8.87621 5.87621 8.75 6.03107 8.75H14.9689C15.1238 8.75 15.25 8.87621 15.25 9.03107V17.9689C15.25 18.1238 15.1238 18.25 14.9689 18.25H6.03107C5.87621 18.25 5.75 18.1238 5.75 17.9689V9.03107Z" fill="black"/>
</svg>
