<svg width="24" height="24" viewBox="0 0 24 24" fill="none" xmlns="http://www.w3.org/2000/svg">
<path fill-rule="evenodd" clip-rule="evenodd" d="M3.50189 2.05887C3.61033 2.01992 3.7247 2 3.83993 2H20.1601C20.2753 2 20.3897 2.01992 20.4981 2.05887C20.8254 2.17642 21.1199 2.36838 21.3601 2.61819C21.6001 2.8679 21.7796 3.16885 21.8865 3.49719C21.9933 3.82547 22.0252 4.17374 21.9802 4.5158C21.9351 4.85789 21.814 5.1863 21.6248 5.47576C21.598 5.51678 21.5682 5.55577 21.5356 5.59242L15.5108 12.3798V21C15.5108 21.3561 15.3214 21.6854 15.0135 21.8644C14.7057 22.0435 14.3258 22.0453 14.0163 21.8692L8.99468 19.012C8.6822 18.8342 8.48921 18.5024 8.48921 18.1429V12.3798L2.46436 5.59242C2.43183 5.55577 2.40204 5.51678 2.37522 5.47576C2.18598 5.1863 2.06491 4.85788 2.01984 4.5158C1.97478 4.17375 2.00667 3.82547 2.11352 3.49719C2.22039 3.16885 2.39985 2.86791 2.63992 2.61819C2.88007 2.36838 3.17461 2.17642 3.50189 2.05887ZM4.08591 4C4.0845 4.0014 4.08311 4.00282 4.08172 4.00426C4.05294 4.0342 4.02963 4.07221 4.01532 4.11618C4.001 4.1602 3.99653 4.2077 4.00271 4.25457C4.00667 4.28462 4.01484 4.31322 4.02651 4.33954L10.2371 11.3362C10.3995 11.5191 10.4892 11.7553 10.4892 12V17.5613L13.5108 19.2805V12C13.5108 11.7553 13.6005 11.5191 13.7629 11.3362L19.9735 4.33955C19.9852 4.31322 19.9933 4.28462 19.9973 4.25457C20.0035 4.20771 19.999 4.16021 19.9847 4.11618C19.9704 4.07221 19.9471 4.0342 19.9183 4.00426C19.9169 4.00282 19.9155 4.0014 19.9141 4H4.08591Z" fill="black"/>
</svg>
