<svg width="24" height="24" viewBox="0 0 24 24" fill="none" xmlns="http://www.w3.org/2000/svg">
<path fill-rule="evenodd" clip-rule="evenodd" d="M12.5618 3.50313C12.4244 3.34788 12.2236 3.25 12 3.25C11.9997 3.25 11.9993 3.25 11.999 3.25C11.8068 3.24975 11.6146 3.32288 11.4679 3.4694L8.46994 6.4644C8.1769 6.75715 8.17666 7.23202 8.4694 7.52506C8.76215 7.8181 9.23702 7.81834 9.53006 7.5256L11.25 5.80738V18.1882L9.53015 16.4695C9.23716 16.1767 8.76229 16.1769 8.46949 16.4698C8.1767 16.7628 8.17686 17.2377 8.46985 17.5305L11.4382 20.4969C11.5756 20.6521 11.7764 20.75 12 20.75C12.0003 20.75 12.0007 20.75 12.001 20.75C12.1932 20.7503 12.3854 20.6771 12.5321 20.5306L15.5301 17.5356C15.8231 17.2428 15.8233 16.768 15.5306 16.4749C15.2378 16.1819 14.763 16.1817 14.4699 16.4744L12.75 18.1926V5.81181L14.4698 7.53051C14.7628 7.8233 15.2377 7.82314 15.5305 7.53015C15.8233 7.23716 15.8231 6.76229 15.5302 6.46949L12.5618 3.50313Z" fill="black"/>
</svg>
