<svg width="24" height="24" viewBox="0 0 24 24" fill="none" xmlns="http://www.w3.org/2000/svg">
<path fill-rule="evenodd" clip-rule="evenodd" d="M3.46447 8.46447C4.40215 7.52678 5.67392 7 7 7C8.32608 7 9.59785 7.52678 10.5355 8.46447C11.2351 9.16405 11.706 10.0496 11.9 11.0049C11.9329 11.0017 11.9663 11 12 11H17H21C21.5523 11 22 11.4477 22 12V16C22 16.5523 21.5523 17 21 17C20.4477 17 20 16.5523 20 16V13H18V15C18 15.5523 17.5523 16 17 16C16.4477 16 16 15.5523 16 15V13H12C11.9663 13 11.9329 12.9983 11.9 12.9951C11.706 13.9504 11.2351 14.8359 10.5355 15.5355C9.59785 16.4732 8.32608 17 7 17C5.67392 17 4.40215 16.4732 3.46447 15.5355C2.52678 14.5979 2 13.3261 2 12C2 10.6739 2.52678 9.40215 3.46447 8.46447ZM7 9C6.20435 9 5.44129 9.31607 4.87868 9.87868C4.31607 10.4413 4 11.2044 4 12C4 12.7956 4.31607 13.5587 4.87868 14.1213C5.44129 14.6839 6.20435 15 7 15C7.79565 15 8.55871 14.6839 9.12132 14.1213C9.68393 13.5587 10 12.7956 10 12C10 11.2044 9.68393 10.4413 9.12132 9.87868C8.55871 9.31607 7.79565 9 7 9Z" fill="black"/>
</svg>
