<?xml version="1.0" encoding="utf-8"?>
<!-- Generator: Adobe Illustrator 26.2.1, SVG Export Plug-In . SVG Version: 6.00 Build 0)  -->
<svg version="1.1" id="Layer_1" xmlns="http://www.w3.org/2000/svg" xmlns:xlink="http://www.w3.org/1999/xlink" x="0px" y="0px"
	 viewBox="0 0 24 24" style="enable-background:new 0 0 24 24;" xml:space="preserve">
<path d="M18.4,20.5c-0.3,0-0.6,0-0.8-0.1c-2.7-0.9-6.5-2.5-9-5c-2.5-2.5-4.1-6.3-5-9C3.3,5.6,3.5,4.8,3.9,4.1C4.4,3.4,5.2,3,6.1,3
	l2.5,0c0,0,0,0,0,0c0.3,0,0.6,0.1,0.9,0.2c0.3,0.2,0.5,0.4,0.6,0.7l1.2,2.2c0.1,0.2,0.2,0.5,0.2,0.8c0,0.3-0.1,0.6-0.2,0.8l-1,2.1
	c0.1,0.5,0.5,1.6,1.5,2.5c0.9,0.9,2,1.3,2.5,1.5l2.1-1c0.2-0.1,0.5-0.2,0.8-0.2c0.3,0,0.6,0.1,0.8,0.2l2.2,1.2
	c0.5,0.3,0.9,0.9,0.9,1.5v2.5c0,0.9-0.4,1.7-1.1,2.2C19.5,20.4,19,20.5,18.4,20.5z M8.6,4.5l-2.5,0C5.7,4.5,5.4,4.7,5.2,5
	C5,5.1,4.9,5.5,5,5.9c0.7,2.1,2.3,6,4.7,8.4c2.4,2.4,6.3,3.9,8.4,4.7c0.4,0.2,0.8,0,0.9-0.1c0.3-0.2,0.5-0.5,0.5-0.9v-2.5
	c0-0.1,0-0.2-0.1-0.2L17.2,14c0,0-0.1,0-0.1,0c0,0-0.1,0-0.1,0l-2.3,1.2c-0.1,0.1-0.3,0.1-0.5,0.1c-0.1,0-2-0.4-3.5-1.9
	c-1.5-1.5-1.9-3.4-1.9-3.5c0-0.2,0-0.3,0.1-0.5L10,7c0,0,0-0.1,0-0.1c0,0,0-0.1,0-0.1L8.8,4.6c0,0,0-0.1-0.1-0.1
	C8.7,4.5,8.6,4.5,8.6,4.5z"/>
</svg>
