<svg width="24" height="24" viewBox="0 0 24 24" fill="none" xmlns="http://www.w3.org/2000/svg">
<path fill-rule="evenodd" clip-rule="evenodd" d="M11.3616 2.10478C11.4983 1.88419 11.7394 1.75 11.999 1.75H12C12.2589 1.75 12.4994 1.88351 12.6364 2.10318C12.6559 2.13443 12.6729 2.16679 12.6874 2.19998L15.5931 8.05357L22.1082 9.00385C22.3903 9.045 22.6247 9.24254 22.7131 9.5136C22.8014 9.78467 22.7284 10.0824 22.5247 10.2819L17.7867 14.9217L18.9128 21.371C18.9621 21.6534 18.8462 21.9391 18.614 22.1073C18.3819 22.2755 18.0743 22.2967 17.8213 22.1619L12 19.0598L6.1787 22.1619C5.92556 22.2968 5.61766 22.2755 5.3855 22.107C5.15335 21.9386 5.03761 21.6524 5.08735 21.3699L6.22272 14.9217L1.47577 10.2824C1.27171 10.0829 1.19849 9.78498 1.28688 9.51368C1.37527 9.24238 1.60994 9.04473 1.89232 9.00377L8.4427 8.05358L11.3101 2.20348C11.3247 2.16963 11.3418 2.13663 11.3616 2.10478ZM12.0038 4.19641L9.61545 9.06909C9.50646 9.29145 9.29473 9.44568 9.04966 9.48123L3.60955 10.2704L7.55421 14.1256C7.73133 14.2987 7.81158 14.5481 7.76863 14.7921L6.83151 20.1143L11.6473 17.5481C11.8677 17.4306 12.1322 17.4306 12.3527 17.5481L17.1709 20.1156L16.2412 14.791C16.1987 14.5477 16.2787 14.299 16.4552 14.1261L20.3934 10.2696L14.9877 9.48115C14.7442 9.44563 14.5336 9.2929 14.4242 9.07247L12.0038 4.19641Z" fill="black"/>
</svg>
