<svg width="80" height="77" viewBox="0 0 80 77" fill="none" xmlns="http://www.w3.org/2000/svg">
<path fill-rule="evenodd" clip-rule="evenodd" d="M47.5934 0.71548C46.8317 1.02278 46.7543 1.36673 46.7543 4.44255C46.7543 7.34155 46.8251 7.77446 47.3672 8.19061C47.7461 8.48147 48.3887 8.42775 48.8476 8.06672L49.2604 7.74219V4.63379C49.2604 2.92422 49.2165 1.41137 49.1631 1.27197C49.0696 1.02826 48.3132 0.549457 48.0543 0.569975C47.9854 0.575457 47.778 0.640926 47.5934 0.71548ZM57.4723 1.42202C57.2198 1.53166 55.9033 2.74441 54.5465 4.11693C52.3876 6.30077 52.0796 6.67541 52.0796 7.11741C52.0796 7.7967 52.6772 8.39141 53.3596 8.39141C53.8117 8.39141 54.1729 8.08896 56.4991 5.76275C58.8321 3.42997 59.1278 3.0763 59.1278 2.62005C59.1278 1.92589 58.9084 1.5633 58.3761 1.3777C58.0582 1.2668 57.8001 1.27949 57.4723 1.42202ZM38.1758 2.07452C37.85 2.20562 37.4995 3.03433 37.6002 3.43561C37.6515 3.64032 38.7332 4.83913 40.0037 6.09966C41.9353 8.01566 42.3892 8.39063 42.7721 8.3864C43.6992 8.37637 44.2491 7.49707 43.8757 6.62185C43.7579 6.34603 42.7084 5.18653 41.5431 4.04504C39.6518 2.19231 39.3683 1.97099 38.8997 1.98212C38.611 1.98885 38.2853 2.03051 38.1758 2.07452ZM42.5254 12.7014C40.3356 13.1842 37.8812 14.8048 36.5096 16.6732C35.4085 18.1732 34.5859 20.2973 34.3073 22.3601C34.1816 23.2895 34.9386 32.6934 35.2567 34.1564C35.3878 34.7594 35.6672 35.7327 35.8778 36.3194C36.0883 36.906 36.2604 37.4169 36.2604 37.4549C36.2604 37.4928 34.6569 37.5242 32.6971 37.5245L29.1339 37.5253L20.1563 44.1076L11.1786 50.69L10.7075 50.2937C10.1989 49.8657 9.65432 49.7916 9.12007 50.0776C8.68324 50.3113 1.05555 55.7988 0.572206 56.227C0.113292 56.6335 -0.0834307 57.1214 0.0326292 57.5651C0.168267 58.0842 13.1903 76.0955 13.5906 76.3179C13.7835 76.4251 14.0854 76.5151 14.2619 76.5183C14.5205 76.5226 22.6264 70.86 23.6039 69.9918C24.1472 69.5094 24.1186 68.8954 23.5102 67.979C23.2006 67.5126 22.9472 67.106 22.9472 67.0753C22.9472 67.0446 24.9384 67.4646 27.3719 68.0086L31.7965 68.9979L38.0616 68.999C45.2869 69.0002 46.6771 68.8633 49.8963 67.833C52.4973 67.0006 54.7089 65.8984 56.935 64.3252C58.2037 63.4287 59.9244 62.3018 60.8507 61.7608C61.3923 61.4446 63.2787 60.9637 68.9952 59.6847C73.0871 58.7692 76.7274 57.8912 77.0848 57.7336C77.8891 57.3789 78.8541 56.4324 79.2508 55.609C79.5763 54.9335 79.7424 53.3592 79.5797 52.4921C79.5236 52.1928 79.2419 51.5975 78.9537 51.1691L78.4296 50.3905L78.8697 49.9689C80.4316 48.4726 80.3635 45.3163 78.7355 43.7463C77.7285 42.7751 76.9238 42.4566 75.4952 42.464C74.2679 42.4704 74.1634 42.5033 70.3961 44.0694C68.2807 44.9489 66.4667 45.6684 66.365 45.6684C66.2634 45.6684 66.0804 45.4296 65.9584 45.1374C65.6505 44.4005 64.6822 43.3648 63.7306 42.7542C62.4642 41.9418 61.1661 41.5781 59.1836 41.4805L57.4378 41.3946L58.1492 40.3599C59.1223 38.9446 60.1344 36.7872 60.6187 35.0962C61.1104 33.3786 61.677 27.3151 61.6946 23.5841C61.7052 21.316 61.6772 21.074 61.2692 19.9034C60.6583 18.1505 59.7194 16.6397 58.4978 15.4438C57.2743 14.2462 56.1506 13.54 54.5598 12.969C53.4221 12.5605 53.363 12.5561 48.4772 12.5168C44.653 12.4859 43.3145 12.5274 42.5254 12.7014ZM52.724 15.1251C54.8059 15.5088 57.1416 17.2591 58.1858 19.2182C58.6018 19.9987 59.3358 22.1535 59.228 22.2782C59.216 22.2921 58.7141 22.193 58.1129 22.0578C56.6465 21.7283 55.0474 21.9258 50.7483 22.9672C43.3598 24.757 42.0971 24.6952 38.0444 22.3462C37.8815 22.2519 37.5598 22.1079 37.3294 22.0263L36.9105 21.878L37.1918 20.9489C38.0575 18.0897 40.4542 15.7713 43.1519 15.1837C44.2226 14.9504 51.5328 14.9056 52.724 15.1251ZM58.1389 24.7709C58.6293 25.0816 58.7041 25.8692 58.6175 29.8067C58.5357 33.5134 58.3957 34.2974 57.4308 36.4483C55.9129 39.8313 53.7665 41.7748 50.811 42.4429C49.4187 42.7574 46.4425 42.838 46.0251 42.5725C45.8934 42.4887 45.9468 42.1423 46.2206 41.3025C46.4276 40.6672 46.6066 39.7204 46.6185 39.1982C46.6376 38.3485 46.5958 38.2108 46.2185 37.8863C45.8069 37.5323 45.7201 37.5239 42.509 37.5239H39.2208L38.6836 36.3883C37.6786 34.2648 37.5186 33.2357 37.5157 28.8869L37.5134 25.0271L38.5706 25.5506C40.2608 26.3874 41.7083 26.7167 43.697 26.7165C45.6609 26.7162 46.8577 26.5287 50.5134 25.6483C55.8977 24.3516 57.2343 24.1978 58.1389 24.7709ZM43.9351 40.1928C43.9351 40.4915 43.2774 41.6663 42.7374 42.3323C42.3967 42.7525 41.825 43.177 41.155 43.507L40.106 44.0238L36.5425 44.1021C33.2381 44.1748 32.9575 44.2032 32.6831 44.4937C32.3126 44.8856 28.5054 51.2612 28.3619 51.7298C28.2385 52.1328 28.6106 52.9457 28.9843 53.0892C29.1237 53.1426 35.0354 53.1865 42.1215 53.1865H55.0051L64.5453 49.2525C69.7925 47.0888 74.3788 45.2167 74.737 45.092C76.1319 44.607 77.453 45.4866 77.453 46.9001C77.453 47.4839 77.363 47.7387 77.0223 48.1199C76.4909 48.7145 60.6828 58.8615 59.8773 59.1251C59.5573 59.2299 59.1696 59.4789 59.0158 59.6788C58.862 59.8785 58.2076 60.3898 57.5615 60.8151C56.9155 61.2402 55.7993 61.9906 55.0814 62.4825C52.9014 63.9763 50.5571 65.0557 48.0536 65.7186C45.5823 66.373 44.0093 66.4939 37.9833 66.4936L32.2664 66.4933L26.4263 65.1854C23.2144 64.4662 20.5622 63.851 20.5328 63.8182C20.2767 63.5333 12.6139 52.8182 12.646 52.7899C12.6692 52.7694 16.5935 49.8899 21.3665 46.3912L30.045 40.0299H36.99C41.693 40.0299 43.9351 40.0825 43.9351 40.1928ZM60.308 44.1164C61.376 44.3139 62.306 44.7438 62.9399 45.3332C63.4848 45.8399 63.8994 46.6003 63.7224 46.7685C63.6505 46.837 61.5221 47.7457 58.9926 48.7878L54.3936 50.6825L43.1499 50.6424L31.9062 50.6021L33.0964 48.6051L34.2864 46.6082H37.0416C38.9786 46.6082 40.0634 46.5388 40.694 46.3745C41.7102 46.1098 43.0705 45.4668 43.5574 45.0211C43.8661 44.7384 43.9412 44.7343 44.8888 44.9504C47.4783 45.5409 50.1721 45.3859 52.7061 44.5008C54.1472 43.9974 54.2758 43.9804 56.7887 43.9632C58.2159 43.9535 59.7996 44.0224 60.308 44.1164ZM76.7819 52.5451C77.3882 53.4447 77.1663 54.7048 76.3014 55.2713C75.9314 55.5139 68.3051 57.3179 68.0406 57.2257C67.8404 57.1557 75.9347 51.9546 76.1945 51.9861C76.3206 52.0014 76.585 52.253 76.7819 52.5451ZM15.2171 60.8134C18.3057 65.0943 20.8526 68.6429 20.8771 68.6992C20.919 68.7963 14.9038 73.2113 14.5696 73.3287C14.4194 73.3815 3.17376 57.9137 3.15497 57.6287C3.14416 57.4652 9.16737 53.0555 9.42189 53.0405C9.52072 53.0347 12.1285 56.5325 15.2171 60.8134ZM13.874 65.5211C11.8548 66.5507 12.2388 69.6527 14.4596 70.2507C16.126 70.6994 17.6219 69.5116 17.6219 67.7398C17.6219 65.8818 15.5602 64.6612 13.874 65.5211Z" fill="#C91F37"/>
</svg>
