<svg width="81" height="74" viewBox="0 0 81 74" fill="none" xmlns="http://www.w3.org/2000/svg">
<path fill-rule="evenodd" clip-rule="evenodd" d="M64.6563 0.924994C64.2972 1.19772 64.0727 1.87734 64.0727 2.69238V3.38512H62.9715C61.8205 3.38512 61.063 3.64347 60.8896 4.09504C60.8363 4.23406 60.7926 6.2751 60.7926 8.63057V12.9132H45.0045H29.2164L28.7599 13.3698C28.2213 13.9084 28.1863 14.2843 28.6234 14.8399L28.9434 15.2468L50.6864 15.291L72.4294 15.3354L73.305 15.6701C75.7834 16.6176 77.5364 18.6346 77.9769 21.0455C78.0811 21.6157 78.1214 29.783 78.0941 44.7877L78.0525 67.6608L77.6848 68.4005C77.1997 69.3769 76.3414 70.2418 75.3892 70.714L74.6161 71.0971L47.0137 71.1752C21.081 71.2486 19.3947 71.2697 19.1401 71.5245C18.7344 71.93 18.7838 72.8648 19.2299 73.226C19.5795 73.509 20.4486 73.5182 46.8225 73.5182C66.4032 73.5182 74.2866 73.4688 74.8818 73.3425C77.4741 72.792 79.5464 70.7644 80.2405 68.0992C80.5864 66.7717 80.5865 21.9849 80.2408 20.3528C79.5465 17.0761 76.9246 14.2925 73.6166 13.3203C73.1529 13.1839 72.116 13.0263 71.3127 12.9698L69.8521 12.8671V8.53389C69.8521 3.23689 69.9485 3.4918 67.9134 3.40808L66.5719 3.3531V2.68957C66.5719 1.84047 66.3056 1.07776 65.941 0.882664C65.5473 0.671952 64.9643 0.691165 64.6563 0.924994ZM67.5091 9.32066V12.9132H65.3223H63.1356V9.42484C63.1356 7.5061 63.1824 5.88945 63.2397 5.83228C63.2969 5.77495 64.281 5.72809 65.4265 5.72809H67.5091V9.32066ZM17.4475 9.03247C16.8298 9.37033 16.7446 9.64461 16.7446 11.2959V12.899L16.1589 12.9846C14.4249 13.2381 13.7406 13.4327 12.6054 13.9958C11.0543 14.7651 9.9436 15.7306 9.03218 17.1014C7.68622 19.1262 7.6328 19.4145 6.60548 30.2083C5.60816 40.6859 5.60534 40.8332 6.36291 42.3819C7.22044 44.1345 8.91347 45.2994 11.0359 45.5973L12.2149 45.7627V47.1508C12.2149 48.2047 12.2861 48.6784 12.5107 49.1184C13.0801 50.234 13.951 50.7132 15.4091 50.7132H16.4322V53.681V56.6488H8.84959H1.26678L0.883467 57.0322L0.5 57.4156V62.31C0.5 67.6044 0.571226 68.2146 1.37362 69.798C2.2135 71.4556 4.18691 72.9379 6.09175 73.3425C6.59252 73.4487 8.64715 73.5182 11.2925 73.5182H15.6655L16.0488 73.1347C16.5086 72.675 16.5397 72.1237 16.1339 71.6221L15.8357 71.2533L11.0965 71.1752C6.51348 71.0996 6.33307 71.0849 5.61768 70.7296C4.67393 70.2605 3.74315 69.3297 3.28236 68.3941C2.93545 67.69 2.91904 67.4882 2.87094 63.3263L2.82095 58.9917H6.02021H9.21946L9.27241 60.7238C9.32349 62.3987 9.33958 62.4683 9.7635 62.8325L10.2018 63.2091H17.9161H25.6304L26.0687 62.8325C26.4927 62.4683 26.5088 62.3987 26.5598 60.7238L26.6128 58.9917H35.0127C43.274 58.9917 43.4193 58.9864 43.824 58.6679C44.3619 58.2448 44.385 57.4685 43.8741 56.9883L43.5125 56.6488H31.1439H18.7752V53.6976V50.7463L20.0109 50.6901C21.1177 50.64 21.3094 50.5834 21.8462 50.1495C22.79 49.3868 23.0055 48.8838 23.1052 47.2145L23.1933 45.7393L24.2253 45.5643C26.2613 45.2193 27.9912 43.9806 28.8146 42.2785C29.0431 41.806 29.5968 40.0563 30.0451 38.3903C30.9256 35.1184 31.1402 34.7012 32.2284 34.1459C32.8156 33.8465 33.1341 33.8383 42.6626 33.8794C52.3123 33.9211 52.4992 33.9278 52.9225 34.244C53.1598 34.4211 53.4987 34.7601 53.6759 34.9973C53.9931 35.4223 53.998 35.5742 53.998 45.2463C53.998 54.9184 53.9931 55.0702 53.6759 55.4952C52.9281 56.4968 52.7048 56.5669 50.1213 56.6124C48.817 56.6353 47.5932 56.6891 47.4014 56.7317C47.2097 56.7745 46.9448 57.0185 46.8127 57.2737C46.6009 57.6836 46.5993 57.8018 46.7995 58.2812C46.9448 58.6289 47.1661 58.8594 47.4143 58.9218C47.6276 58.9753 48.9501 58.9953 50.3534 58.9663C52.6776 58.9183 52.973 58.8799 53.6735 58.5352C54.6521 58.0536 55.4684 57.2372 55.957 56.2517L56.3409 55.4773V45.2463V35.0153L55.9625 34.2463C55.4796 33.2654 54.5571 32.3429 53.6307 31.9146C52.9107 31.5817 52.8172 31.5789 42.4393 31.5789H31.974L31.2711 31.9529C29.2741 33.0155 28.8692 33.6718 27.8396 37.5145C26.8791 41.0994 26.7171 41.4922 25.8829 42.2612C24.7632 43.2933 24.7592 43.2938 17.3694 43.2938C10.8656 43.2938 10.7183 43.2869 10.1062 42.9567C8.79164 42.2474 8.1531 41.1709 8.15466 39.6672C8.15638 38.0752 9.85238 20.9852 10.085 20.2171C10.7212 18.1151 12.3409 16.4895 14.5846 15.7017C15.5005 15.3799 15.9369 15.3479 20.526 15.2662C25.2414 15.1823 25.4902 15.1631 25.7146 14.8657C25.9646 14.5346 26.0236 14.0408 25.8633 13.6231C25.6358 13.0301 24.9978 12.9132 21.9851 12.9132H19.0876V11.364C19.0876 9.55527 19.0401 9.38485 18.4516 9.08058C17.9308 8.81129 17.8583 8.8077 17.4475 9.03247ZM42.9008 22.3562C42.4088 22.8481 42.3996 23.5258 42.8788 23.9761C43.2151 24.292 43.396 24.3157 45.4633 24.3157C47.6413 24.3157 47.6943 24.3076 48.0869 23.9149C48.4103 23.5916 48.4693 23.4179 48.3918 23.0168C48.2121 22.0857 47.8951 21.9727 45.4608 21.9727C43.358 21.9727 43.2712 21.9857 42.9008 22.3562ZM51.9603 22.3562C51.4917 22.8246 51.4711 23.3582 51.9007 23.9041L52.2243 24.3157H61.9481H71.672L72.0117 23.9543C72.4622 23.4746 72.4445 22.8329 71.9678 22.3562L71.5845 21.9727H61.9641H52.3437L51.9603 22.3562ZM66.4363 31.3568C65.3455 31.5711 64.3717 32.1222 63.4344 33.0553C62.0101 34.4731 61.4591 36.4504 61.9519 38.374C63.3005 43.6378 70.3672 44.3983 72.7544 39.5366C73.1658 38.6985 73.2104 38.4556 73.2104 37.0459C73.2104 35.6794 73.1582 35.3725 72.7933 34.5942C72.0101 32.9233 70.4049 31.7055 68.5285 31.3585C67.4979 31.1681 67.3968 31.168 66.4363 31.3568ZM68.4599 33.7543C68.7787 33.8079 69.3098 34.0962 69.6917 34.4231C71.6262 36.079 71.2807 38.9531 69.0066 40.1222C68.5252 40.3698 68.1731 40.424 67.3492 40.3774C66.0566 40.3043 65.2238 39.8095 64.5988 38.743C63.7499 37.2942 64.1687 35.2452 65.5087 34.291C66.0393 33.9132 67.2773 33.5209 67.6653 33.6078C67.7942 33.6367 68.1517 33.7026 68.4599 33.7543ZM20.6168 47.0035L20.5715 48.2922L17.7804 48.335C15.8541 48.3643 14.9224 48.3221 14.7736 48.1986C14.6258 48.076 14.5579 47.6569 14.5579 46.8673V45.7149H17.61H20.6622L20.6168 47.0035ZM24.086 59.9289V60.8661H17.9161H11.7463V59.9289V58.9917H17.9161H24.086V59.9289Z" fill="#C91F37"/>
</svg>
