<svg width="103" height="102" viewBox="0 0 103 102" fill="none" xmlns="http://www.w3.org/2000/svg">
<path d="M18.301 65.0542V71.2587H47.3351V64.2189H30.2329V63.9405L36.1789 58.1138C38.9762 55.5684 41.1438 53.3875 42.6817 51.5712C44.2196 49.7417 45.2868 48.0778 45.8834 46.5797C46.4933 45.0816 46.7982 43.5636 46.7982 42.0257C46.7982 39.6792 46.195 37.5977 44.9885 35.7814C43.7821 33.9651 42.0918 32.5466 39.9175 31.5257C37.7565 30.4917 35.2177 29.9746 32.301 29.9746C29.4639 29.9746 26.9582 30.5115 24.784 31.5854C22.6098 32.6593 20.9194 34.1773 19.713 36.1394C18.5065 38.1015 17.9033 40.415 17.9033 43.0797H26.0766C26.0766 41.7805 26.3285 40.6602 26.8323 39.7189C27.3361 38.7776 28.052 38.0551 28.98 37.5513C29.9081 37.0475 30.9952 36.7956 32.2414 36.7956C33.4346 36.7956 34.5018 37.0343 35.4431 37.5115C36.3844 37.9756 37.1268 38.6451 37.6704 39.5201C38.2139 40.3818 38.4857 41.4093 38.4857 42.6025C38.4857 43.6763 38.267 44.6773 37.8295 45.6053C37.392 46.5201 36.749 47.4547 35.9005 48.4093C35.0653 49.3638 34.0312 50.4377 32.7982 51.6309L18.301 65.0542Z" fill="#C91F37"/>
<path fill-rule="evenodd" clip-rule="evenodd" d="M60.7137 69.628C63.1796 71.2985 66.1228 72.1403 69.5432 72.1536C72.9637 72.1536 75.9002 71.3184 78.3529 69.6479C80.8055 67.9775 82.6881 65.5579 84.0006 62.3894C85.3264 59.2208 85.9893 55.4026 85.9893 50.9348C86.0025 46.4935 85.3463 42.7151 84.0205 39.5996C82.6947 36.4708 80.7989 34.0845 78.333 32.4405C75.8804 30.7966 72.9504 29.9746 69.5432 29.9746C66.136 29.9746 63.1995 30.7966 60.7336 32.4405C58.2809 34.0712 56.3917 36.4509 55.066 39.5797C53.7535 42.7085 53.0972 46.4935 53.0972 50.9348C53.084 55.3894 53.7336 59.2009 55.0461 62.3695C56.3718 65.5381 58.261 67.9576 60.7137 69.628ZM75.1313 61.4945C73.7393 63.8411 71.8766 65.0144 69.5432 65.0144C67.9921 65.0144 66.6398 64.4973 65.4864 63.4632C64.333 62.4159 63.4381 60.8515 62.8018 58.7701C62.1786 56.6754 61.8671 54.0636 61.8671 50.9348C61.8804 46.3079 62.583 42.8345 63.9751 40.5144C65.3671 38.1943 67.2232 37.0343 69.5432 37.0343C71.0944 37.0343 72.44 37.5513 73.5802 38.5854C74.7336 39.6195 75.6218 41.164 76.2449 43.2189C76.8813 45.2739 77.1995 47.8458 77.1995 50.9348C77.2127 55.628 76.5234 59.1479 75.1313 61.4945Z" fill="#C91F37"/>
<path fill-rule="evenodd" clip-rule="evenodd" d="M49.1768 1.10164C50.3772 -0.367214 52.6224 -0.367211 53.8228 1.10164L58.3339 6.62177C59.2425 7.73363 60.8116 8.04574 62.0765 7.36623L68.3567 3.99262C70.0278 3.09494 72.1021 3.95415 72.649 5.77055L74.7043 12.5968C75.1182 13.9717 76.4485 14.8606 77.8772 14.7169L84.9703 14.0034C86.8577 13.8135 88.4454 15.4011 88.2555 17.2886L87.542 24.3817C87.3983 25.8104 88.2871 27.1406 89.6621 27.5546L96.4883 29.6098C98.3047 30.1567 99.1639 32.2311 98.2663 33.9021L94.8926 40.1823C94.2131 41.4473 94.5252 43.0164 95.6371 43.925L101.157 48.4361C102.626 49.6365 102.626 51.8817 101.157 53.0821L95.6371 57.5932C94.5252 58.5018 94.2131 60.0709 94.8926 61.3358L98.2663 67.616C99.1639 69.2871 98.3047 71.3614 96.4883 71.9083L89.6621 73.9636C88.2871 74.3775 87.3983 75.7077 87.542 77.1364L88.2555 84.2296C88.4454 86.117 86.8577 87.7046 84.9703 87.5148L77.8772 86.8013C76.4485 86.6576 75.1182 87.5464 74.7043 88.9213L72.649 95.7476C72.1021 97.564 70.0278 98.4232 68.3567 97.5255L62.0765 94.1519C60.8116 93.4724 59.2425 93.7845 58.3339 94.8964L53.8228 100.417C52.6224 101.885 50.3772 101.885 49.1768 100.417L44.6657 94.8964C43.7571 93.7845 42.188 93.4724 40.9231 94.1519L34.6429 97.5255C32.9718 98.4232 30.8975 97.564 30.3506 95.7476L28.2953 88.9213C27.8813 87.5464 26.5511 86.6576 25.1224 86.8013L18.0293 87.5148C16.1419 87.7046 14.5542 86.117 14.7441 84.2296L15.4576 77.1364C15.6013 75.7077 14.7125 74.3775 13.3375 73.9636L6.51128 71.9083C4.69488 71.3614 3.83566 69.2871 4.73335 67.616L8.10695 61.3358C8.78646 60.0709 8.47435 58.5018 7.36249 57.5932L1.84236 53.0821C0.373509 51.8817 0.373512 49.6365 1.84236 48.4361L7.36249 43.925C8.47435 43.0164 8.78646 41.4473 8.10695 40.1823L4.73334 33.9021C3.83566 32.231 4.69488 30.1567 6.51128 29.6098L13.3375 27.5546C14.7125 27.1406 15.6013 25.8104 15.4576 24.3817L14.7441 17.2886C14.5542 15.4011 16.1419 13.8135 18.0293 14.0034L25.1224 14.7169C26.5511 14.8606 27.8813 13.9718 28.2953 12.5968L30.3506 5.77055C30.8975 3.95415 32.9718 3.09494 34.6429 3.99262L40.9231 7.36623C42.188 8.04574 43.7571 7.73363 44.6657 6.62177L49.1768 1.10164ZM53.0485 1.73443L57.5596 7.25456C58.7711 8.73704 60.8632 9.15318 62.5498 8.24717L68.8299 4.87356C69.944 4.27511 71.3269 4.84792 71.6915 6.05885L73.7467 12.8851C74.2987 14.7184 76.0723 15.9034 77.9772 15.7118L85.0704 14.9984C86.3287 14.8718 87.3871 15.9302 87.2605 17.1885L86.547 24.2816C86.3554 26.1866 87.5405 27.9602 89.3738 28.5121L96.2 30.5674C97.411 30.932 97.9838 32.3149 97.3853 33.4289L94.0117 39.7091C93.1057 41.3957 93.5218 43.4878 95.0043 44.6993L100.524 49.2104C101.504 50.0107 101.504 51.5075 100.524 52.3077L95.0043 56.8188C93.5218 58.0303 93.1057 60.1224 94.0117 61.809L97.3853 68.0892C97.9838 69.2033 97.411 70.5862 96.2 70.9508L89.3738 73.006C87.5405 73.558 86.3554 75.3316 86.547 77.2365L87.2605 84.3297C87.3871 85.588 86.3287 86.6464 85.0704 86.5198L77.9772 85.8063C76.0723 85.6147 74.2987 86.7998 73.7467 88.633L71.6915 95.4593C71.3269 96.6702 69.944 97.243 68.8299 96.6446L62.5498 93.271C60.8632 92.365 58.7711 92.7811 57.5596 94.2636L53.0485 99.7837C52.2482 100.763 50.7514 100.763 49.9511 99.7837L45.44 94.2636C44.2285 92.7811 42.1364 92.365 40.4498 93.271L34.1696 96.6446C33.0556 97.243 31.6727 96.6702 31.3081 95.4593L29.2528 88.633C28.7009 86.7998 26.9273 85.6147 25.0224 85.8063L17.9292 86.5198C16.6709 86.6464 15.6125 85.588 15.7391 84.3297L16.4526 77.2365C16.6442 75.3316 15.4591 73.558 13.6258 73.006L6.79958 70.9508C5.58864 70.5862 5.01583 69.2033 5.61429 68.0892L8.98789 61.809C9.89391 60.1224 9.47776 58.0303 7.99528 56.8188L2.47515 52.3077C1.49591 51.5075 1.49591 50.0107 2.47515 49.2104L7.99528 44.6993C9.47776 43.4878 9.8939 41.3957 8.98789 39.7091L5.61428 33.4289C5.01583 32.3149 5.58864 30.932 6.79957 30.5674L13.6258 28.5121C15.4591 27.9602 16.6442 26.1866 16.4526 24.2816L15.7391 17.1885C15.6125 15.9302 16.6709 14.8718 17.9292 14.9984L25.0224 15.7118C26.9273 15.9034 28.7009 14.7184 29.2528 12.8851L31.3081 6.05885C31.6727 4.84792 33.0556 4.27511 34.1696 4.87356L40.4498 8.24717C42.1364 9.15318 44.2285 8.73703 45.44 7.25456L49.9511 1.73442C50.7514 0.755192 52.2482 0.755192 53.0485 1.73443Z" fill="#C91F37"/>
</svg>
