<svg width="81" height="81" viewBox="0 0 81 81" fill="none" xmlns="http://www.w3.org/2000/svg">
<path fill-rule="evenodd" clip-rule="evenodd" d="M3.8305 0.679766C1.04865 1.45542 -0.30331 4.61814 1.05225 7.1792C1.33297 7.7095 1.33188 7.72155 0.930982 8.49439C0.354363 9.60569 0.356554 11.1975 0.936302 12.3151L1.34643 13.1055L0.938806 13.9288C0.37893 15.0602 0.374862 16.4675 0.927852 17.6757L1.32186 18.5363L0.924097 19.306C0.36563 20.3867 0.3625 21.979 0.916586 23.0986L1.30684 23.8872L0.920967 24.7325C0.637118 25.3543 0.535095 25.8466 0.535095 26.5949C0.535095 27.3432 0.637118 27.8354 0.920967 28.4573L1.30684 29.3026L0.916586 30.0912C0.610986 30.7087 0.526332 31.1213 0.526332 31.9933C0.526332 32.8654 0.610986 33.278 0.916586 33.8955L1.30684 34.6841L0.920967 35.5294C0.39004 36.6927 0.39004 38.0909 0.920967 39.2542L1.30684 40.0995L0.916586 40.8881C0.367351 41.9979 0.367351 43.5827 0.916586 44.6924L1.30684 45.481L0.920967 46.3263C0.39004 47.4896 0.39004 48.8879 0.920967 50.0511L1.30684 50.8964L0.916586 51.6851C0.378774 52.7718 0.370481 54.3582 0.897026 55.4427C1.66721 57.0294 2.97066 57.8956 4.7642 58.0127C5.73201 58.0759 6.00162 58.0305 6.78323 57.6726L7.68532 57.2597L8.40449 57.6141C8.99347 57.9044 9.382 57.9682 10.5482 57.9668L11.9728 57.9651L11.8213 58.5137C11.6129 59.2686 11.7662 60.5063 12.1765 61.379L12.5194 62.1083L12.1516 62.855C11.6556 63.8624 11.6406 65.622 12.1193 66.667C12.5391 67.5834 13.4354 68.4797 14.3519 68.8996C15.3968 69.3782 17.1564 69.3632 18.1638 68.8672L18.9105 68.4995L19.6399 68.8423C20.5125 69.2526 21.7503 69.4059 22.5051 69.1975L23.0537 69.046L23.052 70.4706C23.0506 71.6368 23.1144 72.0254 23.4047 72.6143L23.7591 73.3335L23.3462 74.2356C22.5985 75.8686 22.9857 77.9227 24.2861 79.2232C25.5879 80.5247 27.7272 80.8975 29.3338 80.1022L30.1224 79.712L30.9677 80.0979C32.131 80.6288 33.5292 80.6288 34.6925 80.0979L35.5378 79.712L36.3264 80.1022C37.4362 80.6515 39.021 80.6515 40.1307 80.1022L40.9193 79.712L41.7646 80.0979C42.3865 80.3817 42.8787 80.4837 43.627 80.4837C44.3753 80.4837 44.8676 80.3817 45.4894 80.0979L46.3347 79.712L47.1233 80.1022C47.7408 80.4078 48.1534 80.4925 49.0255 80.4925C49.8975 80.4925 50.3102 80.4078 50.9276 80.1022L51.7163 79.712L52.5616 80.0979C53.7248 80.6288 55.1231 80.6288 56.2863 80.0979L57.1316 79.712L57.9203 80.1022C59.0399 80.6563 60.6322 80.6532 61.7128 80.0947L62.4825 79.697L63.3431 80.091C64.5209 80.63 65.9116 80.6327 67.0833 80.0979L67.9285 79.712L68.7172 80.1022C69.8368 80.6563 71.4291 80.6532 72.5097 80.0947L73.2794 79.697L74.1401 80.091C77.8958 81.8102 81.7863 77.9197 80.0671 74.1639L79.6731 73.3033L80.0709 72.5336C80.6342 71.4434 80.6342 69.843 80.0709 68.7528L79.6731 67.9831L80.0671 67.1225C80.6101 65.9362 80.6101 64.5533 80.0671 63.367L79.6731 62.5064L80.0709 61.7367C80.6293 60.656 80.6325 59.0637 80.0784 57.9441L79.6881 57.1555L80.074 56.3102C80.3578 55.6884 80.4599 55.1961 80.4599 54.4478C80.4599 53.6995 80.3578 53.2073 80.074 52.5854L79.6881 51.7401L80.0784 50.9515C80.6276 49.8418 80.6276 48.257 80.0784 47.1472L79.6881 46.3586L80.074 45.5133C80.3578 44.8914 80.4599 44.3992 80.4599 43.6509C80.4599 42.9026 80.3578 42.4103 80.074 41.7885L79.6881 40.9432L80.0784 40.1546C80.6276 39.0448 80.6276 37.46 80.0784 36.3503L79.6881 35.5616L80.074 34.7164C80.6087 33.545 80.6062 32.1542 80.0673 30.9762C79.6792 30.128 79.6776 30.1086 79.9585 29.631C81.1374 27.6265 80.3151 24.7434 78.2308 23.5736C76.993 22.879 75.4546 22.8009 74.2117 23.37L73.3096 23.783L72.5905 23.4286C72.0015 23.1383 71.613 23.0745 70.4467 23.0759L69.0222 23.0776L69.1736 22.529C69.3821 21.7741 69.2287 20.5364 68.8184 19.6637L68.4756 18.9344L68.8433 18.1877C69.3393 17.1803 69.3544 15.4207 68.8757 14.3757C68.4559 13.4593 67.5596 12.563 66.6431 12.1431C65.5981 11.6645 63.8385 11.6795 62.8311 12.1755L62.0844 12.5432L61.3551 12.2004C60.4824 11.7901 59.2447 11.6368 58.4898 11.8452L57.9412 11.9967L57.943 10.5721C57.9444 9.40587 57.8805 9.01734 57.5903 8.42836L57.2358 7.70919L57.6488 6.8071C58.3964 5.1741 58.0093 3.12003 56.7088 1.81954C55.4071 0.517968 53.2677 0.14524 51.6612 0.940456L50.8725 1.33071L50.0272 0.944838C48.864 0.413911 47.4657 0.413911 46.3025 0.944838L45.4572 1.33071L44.6685 0.940456C43.5588 0.391222 41.974 0.391222 40.8643 0.940456L40.0756 1.33071L39.2303 0.944838C38.0671 0.413911 36.6688 0.413911 35.5055 0.944838L34.6603 1.33071L33.8716 0.940456C32.7619 0.391222 31.1771 0.391222 30.0673 0.940456L29.2787 1.33071L28.4334 0.944838C27.8116 0.660988 27.3193 0.558965 26.571 0.558965C25.8227 0.558965 25.3305 0.660988 24.7086 0.944838L23.8633 1.33071L23.0747 0.940456C21.9551 0.386371 20.3628 0.3895 19.2822 0.947967L18.5124 1.34573L17.6518 0.951723C16.474 0.412659 15.0834 0.409999 13.9117 0.944838L13.0664 1.33071L12.2778 0.940456C11.1582 0.386371 9.56586 0.3895 8.48523 0.947967L7.71552 1.34573L6.93313 0.991468C5.91243 0.529078 4.77922 0.415319 3.8305 0.679766ZM6.11476 3.09828C6.35323 3.25554 6.69044 3.53673 6.86412 3.72309C7.31353 4.20551 8.10342 4.17468 8.58803 3.65612C9.11348 3.09358 9.71217 2.81036 10.3756 2.81036C11.0391 2.81036 11.6378 3.09358 12.1632 3.65612C12.6538 4.18125 13.4437 4.20535 13.927 3.7101C14.5731 3.0482 15.0584 2.81239 15.7741 2.81239C16.4898 2.81239 16.9751 3.0482 17.6211 3.7101C18.1045 4.20535 18.8944 4.18125 19.385 3.65612C20.4449 2.52135 21.9002 2.52135 22.9601 3.65612C23.4507 4.18125 24.2406 4.20535 24.724 3.7101C25.3701 3.0482 25.8553 2.81239 26.571 2.81239C27.2867 2.81239 27.772 3.0482 28.4181 3.7101C28.9014 4.20535 29.6913 4.18125 30.1819 3.65612C31.2419 2.52135 32.6971 2.52135 33.7571 3.65612C34.2476 4.18125 35.0375 4.20535 35.5209 3.7101C36.7239 2.47753 38.012 2.47753 39.215 3.7101C39.6983 4.20535 40.4882 4.18125 40.9788 3.65612C41.5042 3.09358 42.1029 2.81036 42.7664 2.81036C43.4299 2.81036 44.0285 3.09358 44.554 3.65612C45.0445 4.18125 45.8344 4.20535 46.3178 3.7101C47.5208 2.47753 48.8089 2.47753 50.0119 3.7101C50.4953 4.20535 51.2852 4.18125 51.7757 3.65612C53.0513 2.2907 55.132 2.64919 55.6867 4.33006C55.9452 5.11323 55.7427 5.84351 55.0431 6.65187C54.2363 7.58401 54.249 7.9414 55.1198 8.81219C55.3263 9.01875 55.5816 9.47566 55.687 9.82758C55.8487 10.3673 55.8385 10.5727 55.6218 11.1399L55.365 11.8125L54.073 11.8101C53.0315 11.8083 52.6368 11.8788 52.0377 12.1738L51.2944 12.5398L50.5511 12.1747C49.4764 11.6466 47.7615 11.6574 46.6783 12.199L45.8959 12.5902L45.1139 12.199C44.0293 11.6565 42.3139 11.6454 41.2407 12.1738L40.4975 12.5398L39.7542 12.1738C38.6811 11.6454 36.9664 11.6565 35.8814 12.199L35.099 12.5902L34.3166 12.199C33.2335 11.6574 31.5185 11.6466 30.4438 12.1747L29.7006 12.5398L28.9573 12.1738C27.8842 11.6454 26.1687 11.6565 25.0842 12.199L24.3021 12.5902L23.5197 12.199C22.4347 11.6565 20.72 11.6454 19.6469 12.1738L18.9036 12.5398L18.1604 12.1738C17.1566 11.6795 15.3951 11.6652 14.3519 12.1431C13.4354 12.563 12.5391 13.4593 12.1193 14.3757C11.6414 15.419 11.6556 17.1804 12.1499 18.1842L12.5159 18.9275L12.1499 19.6708C11.6215 20.7439 11.6326 22.4586 12.1751 23.5436L12.5663 24.326L12.1751 25.108C11.6326 26.1926 11.6215 27.908 12.1499 28.9812L12.5159 29.7244L12.1509 30.4677C11.6228 31.5424 11.6335 33.2574 12.1751 34.3405L12.5663 35.1229L12.1751 35.905C11.6326 36.9895 11.6215 38.705 12.1499 39.7781L12.5159 40.5214L12.1499 41.2646C11.6215 42.3377 11.6326 44.0524 12.1751 45.1374L12.5663 45.9198L12.1751 46.7022C11.6335 47.7853 11.6228 49.5003 12.1509 50.575L12.5159 51.3183L12.1499 52.0615C11.855 52.6607 11.7844 53.0553 11.7863 54.0968L11.7886 55.3889L11.1161 55.6456C10.5489 55.8624 10.3434 55.8725 9.80371 55.7109C9.45179 55.6054 8.99487 55.3502 8.78832 55.1437C7.91753 54.2729 7.56014 54.2602 6.628 55.067C5.81964 55.7666 5.08936 55.9691 4.30619 55.7106C2.62532 55.1559 2.26683 53.0752 3.63225 51.7996C4.15738 51.309 4.18148 50.5191 3.68623 50.0358C3.02433 49.3897 2.78852 48.9045 2.78852 48.1887C2.78852 47.473 3.02433 46.9878 3.68623 46.3417C4.18148 45.8583 4.15738 45.0684 3.63225 44.5779C2.49747 43.5179 2.49747 42.0626 3.63225 41.0027C4.15738 40.5121 4.18148 39.7222 3.68623 39.2389C2.45366 38.0359 2.45366 36.7477 3.68623 35.5448C4.18148 35.0614 4.15738 34.2715 3.63225 33.7809C2.49747 32.721 2.49747 31.2657 3.63225 30.2058C4.15738 29.7152 4.18148 28.9253 3.68623 28.4419C2.45366 27.2389 2.45366 25.9508 3.68623 24.7478C4.18148 24.2645 4.15738 23.4746 3.63225 22.984C2.49747 21.924 2.49747 20.4688 3.63225 19.4088C4.15738 18.9183 4.18148 18.1284 3.68623 17.645C3.02433 16.9989 2.78852 16.5137 2.78852 15.798C2.78852 15.0822 3.02433 14.597 3.68623 13.9509C4.18148 13.4675 4.15738 12.6777 3.63225 12.1871C2.49747 11.1271 2.49747 9.67188 3.63225 8.61191C4.15738 8.12135 4.18148 7.33145 3.68623 6.84809C2.73954 5.92394 2.53049 4.92562 3.07237 3.9154C3.61503 2.90362 5.18153 2.48285 6.11476 3.09828ZM17.2606 14.2745C17.4327 14.3595 17.7632 14.6313 17.9951 14.8787C18.5861 15.5094 19.1908 15.4795 19.9295 14.7827C21.0003 13.773 22.1831 13.7667 23.288 14.7649C23.653 15.0948 24.0738 15.3285 24.3021 15.3285C24.5304 15.3285 24.9512 15.0948 25.3162 14.7649C26.4211 13.7667 27.6903 13.7772 28.706 14.7931C29.4198 15.5068 29.9616 15.5041 30.7264 14.7827C31.7972 13.773 32.98 13.7667 34.0849 14.7649C34.4499 15.0948 34.8707 15.3285 35.099 15.3285C35.3273 15.3285 35.7481 15.0948 36.1131 14.7649C37.218 13.7667 38.4008 13.773 39.4716 14.7827C40.2365 15.5041 40.7782 15.5068 41.492 14.7931C42.5077 13.7772 43.7769 13.7667 44.8818 14.7649C45.6778 15.4841 46.1141 15.4841 46.9101 14.7649C48.0149 13.7667 49.1978 13.773 50.2685 14.7827C51.0334 15.5041 51.5751 15.5068 52.289 14.7931C53.3047 13.7772 54.5738 13.7667 55.6787 14.7649C56.0438 15.0948 56.4646 15.3285 56.6929 15.3285C56.9212 15.3285 57.3419 15.0948 57.707 14.7649C58.8119 13.7667 59.9947 13.773 61.0655 14.7827C61.8303 15.5041 62.372 15.5068 63.0859 14.7931C64.0978 13.7811 65.3593 13.7458 66.3162 14.7026C67.2731 15.6595 67.2377 16.921 66.2258 17.9329C65.5121 18.6468 65.5147 19.1885 66.2361 19.9534C66.887 20.6436 67.1169 21.3604 66.9396 22.1467C66.7495 22.9893 66.5965 23.0748 65.3775 23.0184C64.4731 22.9767 64.144 23.0361 63.4024 23.3757L62.5127 23.783L61.7935 23.4286C60.7506 22.9147 58.6773 22.9186 57.8017 23.4361L57.1892 23.798L56.253 23.3779C55.442 23.0139 55.1681 22.9674 54.2053 23.0303C53.4849 23.0774 52.8562 23.2248 52.4181 23.4494L51.7421 23.7957L51.0098 23.435C49.9554 22.9156 47.8934 22.9158 46.9872 23.4353L46.3574 23.7964L45.5007 23.3977C44.3222 22.8491 42.9365 22.8469 41.766 23.3918L40.9223 23.7846L40.2013 23.4294C39.1521 22.9124 37.0916 22.9186 36.1792 23.4416L35.5381 23.8091L34.8491 23.456C34.3966 23.2241 33.7766 23.0779 33.0431 23.03C32.0753 22.9668 31.8056 23.0122 31.024 23.37L30.1219 23.783L29.4028 23.434C27.6912 22.6038 25.652 22.9557 24.2919 24.3158C22.9318 25.6759 22.5799 27.7151 23.4102 29.4267L23.7591 30.1458L23.3462 31.0479C22.9883 31.8295 22.9429 32.0991 23.0061 33.0669C23.0536 33.7928 23.2003 34.4208 23.4255 34.8599L23.7718 35.5358L23.4111 36.2681C22.9015 37.3026 22.8988 39.1969 23.4055 40.2251L23.7607 40.9462L23.3679 41.7899C22.8231 42.9604 22.8253 44.3461 23.3739 45.5245L23.7726 46.3813L23.4114 47.0111C22.8919 47.9172 22.8918 49.9793 23.4111 51.0336L23.7718 51.7659L23.4255 52.4419C23.201 52.8801 23.0536 53.5088 23.0065 54.2292C22.9436 55.192 22.99 55.4659 23.354 56.2769L23.7741 57.2131L23.4122 57.8255C22.8947 58.7012 22.8908 60.7745 23.4047 61.8174L23.7591 62.5366L23.3518 63.4263C23.0123 64.1679 22.9528 64.4969 22.9946 65.4014C23.0509 66.6203 22.9655 66.7734 22.1228 66.9635C21.3365 67.1408 20.6197 66.9109 19.9295 66.26C19.1646 65.5386 18.6229 65.5359 17.9091 66.2496C16.8971 67.2616 15.6356 67.2969 14.6788 66.3401C13.7219 65.3832 13.7573 64.1217 14.7692 63.1098C15.4829 62.3959 15.4802 61.8542 14.7589 61.0893C13.7491 60.0186 13.7429 58.8357 14.741 57.7309C15.4602 56.9349 15.4602 56.4986 14.741 55.7026C13.7429 54.5977 13.7533 53.3285 14.7692 52.3128C15.4829 51.599 15.4802 51.0573 14.7589 50.2924C13.7491 49.2216 13.7429 48.0388 14.741 46.9339C15.4602 46.1379 15.4602 45.7017 14.741 44.9057C13.7429 43.8008 13.7533 42.5316 14.7692 41.5159C15.4829 40.8021 15.4802 40.2603 14.7589 39.4955C13.7491 38.4247 13.7429 37.2419 14.741 36.137C15.0709 35.772 15.3047 35.3512 15.3047 35.1229C15.3047 34.8946 15.0709 34.4738 14.741 34.1088C13.7429 33.0039 13.7491 31.8211 14.7589 30.7503C15.4802 29.9854 15.4829 29.4437 14.7692 28.7299C13.7533 27.7142 13.7429 26.445 14.741 25.3401C15.0709 24.975 15.3047 24.5543 15.3047 24.326C15.3047 24.0977 15.0709 23.6769 14.741 23.3118C13.7429 22.207 13.7491 21.0241 14.7589 19.9534C15.4802 19.1885 15.4829 18.6468 14.7692 17.9329C13.753 16.9168 13.7216 15.6598 14.6881 14.6932C15.4383 13.9431 16.3038 13.8023 17.2606 14.2745ZM17.9648 18.1451C17.7909 18.319 17.6518 18.6667 17.6518 18.9275C17.6518 19.1884 17.7909 19.536 17.9648 19.7099C18.1386 19.8837 18.4863 20.0228 18.7472 20.0228C19.008 20.0228 19.3557 19.8837 19.5295 19.7099C19.7034 19.536 19.8425 19.1884 19.8425 18.9275C19.8425 18.6667 19.7034 18.319 19.5295 18.1451C19.3557 17.9713 19.008 17.8322 18.7472 17.8322C18.4863 17.8322 18.1386 17.9713 17.9648 18.1451ZM24.2239 18.1451C24.05 18.319 23.9109 18.6667 23.9109 18.9275C23.9109 19.1884 24.05 19.536 24.2239 19.7099C24.9011 20.3871 26.1016 19.887 26.1016 18.9275C26.1016 18.3252 25.6085 17.8322 25.0062 17.8322C24.7454 17.8322 24.3977 17.9713 24.2239 18.1451ZM30.4829 18.1451C30.3091 18.319 30.17 18.6667 30.17 18.9275C30.17 19.1884 30.3091 19.536 30.4829 19.7099C31.1602 20.3871 32.3607 19.887 32.3607 18.9275C32.3607 18.3252 31.8676 17.8322 31.2653 17.8322C31.0045 17.8322 30.6568 17.9713 30.4829 18.1451ZM36.742 18.1451C36.5682 18.319 36.4291 18.6667 36.4291 18.9275C36.4291 19.1884 36.5682 19.536 36.742 19.7099C37.4193 20.3871 38.6198 19.887 38.6198 18.9275C38.6198 18.3252 38.1267 17.8322 37.5244 17.8322C37.2636 17.8322 36.9159 17.9713 36.742 18.1451ZM43.0011 18.1451C42.8273 18.319 42.6882 18.6667 42.6882 18.9275C42.6882 19.1884 42.8273 19.536 43.0011 19.7099C43.6783 20.3871 44.8788 19.887 44.8788 18.9275C44.8788 18.3252 44.3858 17.8322 43.7835 17.8322C43.5226 17.8322 43.175 17.9713 43.0011 18.1451ZM49.2602 18.1451C49.0863 18.319 48.9472 18.6667 48.9472 18.9275C48.9472 19.1884 49.0863 19.536 49.2602 19.7099C49.9374 20.3871 51.1379 19.887 51.1379 18.9275C51.1379 18.3252 50.6449 17.8322 50.0426 17.8322C49.7817 17.8322 49.434 17.9713 49.2602 18.1451ZM55.5193 18.1451C55.3454 18.319 55.2063 18.6667 55.2063 18.9275C55.2063 19.1884 55.3454 19.536 55.5193 19.7099C56.1965 20.3871 57.397 19.887 57.397 18.9275C57.397 18.3252 56.9039 17.8322 56.3017 17.8322C56.0408 17.8322 55.6931 17.9713 55.5193 18.1451ZM61.7784 18.1451C61.6045 18.319 61.4654 18.6667 61.4654 18.9275C61.4654 19.1884 61.6045 19.536 61.7784 19.7099C62.4556 20.3871 63.6561 19.887 63.6561 18.9275C63.6561 18.3252 63.163 17.8322 62.5608 17.8322C62.2999 17.8322 61.9522 17.9713 61.7784 18.1451ZM17.9648 24.0912C17.7909 24.2651 17.6518 24.6128 17.6518 24.8736C17.6518 25.1345 17.7909 25.4822 17.9648 25.656C18.642 26.3333 19.8425 25.8332 19.8425 24.8736C19.8425 24.2714 19.3494 23.7783 18.7472 23.7783C18.4863 23.7783 18.1386 23.9174 17.9648 24.0912ZM28.2891 25.4384L28.9182 25.69V51.7225V77.7549L28.4566 77.9936C27.2614 78.6116 25.7292 77.9882 25.3082 76.7126C25.0497 75.9295 25.2522 75.1992 25.9518 74.3908C26.2923 73.9974 26.571 73.5695 26.571 73.4399C26.571 73.1119 26.2568 72.5471 25.9856 72.3874C25.6966 72.2174 25.1707 71.0676 25.1662 70.5963C25.1618 70.139 25.5492 69.38 26.1233 68.7209C26.3695 68.4383 26.571 68.0727 26.571 67.9089C26.571 67.7451 26.2956 67.2927 25.959 66.9037C24.9297 65.7145 24.9297 64.775 25.959 63.5858C26.2956 63.1968 26.571 62.7725 26.571 62.643C26.571 62.3083 26.256 61.7578 25.9334 61.5287C25.7821 61.4212 25.5383 61.0194 25.3918 60.6357C25.0504 59.7414 25.1812 59.0101 25.8015 58.346C26.7586 57.3214 26.7776 57.0527 25.959 56.1068C25.6223 55.7179 25.2999 55.1854 25.2424 54.9238C25.0807 54.1874 25.2912 53.5604 25.959 52.7888C26.2956 52.3998 26.571 51.9756 26.571 51.8461C26.571 51.5181 26.2568 50.9532 25.9856 50.7936C25.6971 50.6238 25.1707 49.474 25.1662 49.004C25.1621 48.5755 25.6996 47.4744 25.9994 47.2974C26.2588 47.1441 26.571 46.5737 26.571 46.2526C26.571 46.1231 26.2956 45.6989 25.959 45.3099C25.6223 44.921 25.2999 44.3885 25.2424 44.1269C25.0807 43.3905 25.2912 42.7635 25.959 41.9919C26.2956 41.6029 26.571 41.1787 26.571 41.0491C26.571 40.7281 26.2588 40.1577 25.9994 40.0043C25.6854 39.8189 25.1627 38.7189 25.1627 38.2432C25.1627 37.7285 25.5849 36.8175 25.9407 36.5648C26.257 36.3403 26.571 35.7874 26.571 35.4557C26.571 35.3262 26.2956 34.9019 25.959 34.5129C25.6223 34.1241 25.2999 33.5916 25.2424 33.33C25.0807 32.5936 25.2912 31.9666 25.959 31.195C26.2956 30.806 26.571 30.3818 26.571 30.2522C26.571 29.9311 26.2588 29.3608 25.9994 29.2074C25.6996 29.0305 25.1621 27.9293 25.1662 27.5009C25.168 27.3037 25.3065 26.8409 25.4738 26.4722C25.706 25.9605 25.9367 25.7299 26.4483 25.4977C27.2691 25.1253 27.4889 25.1181 28.2891 25.4384ZM34.0096 25.5673L34.3949 25.8197V42.7156C34.3949 59.403 34.3988 59.6155 34.7078 59.9245C34.8817 60.0984 35.2294 60.2375 35.4902 60.2375C35.7511 60.2375 36.0987 60.0984 36.2726 59.9245C36.5816 59.6155 36.5855 59.403 36.5855 42.7033V25.795L37.3088 25.475C38.0869 25.1307 38.7146 25.1641 39.3549 25.5837L39.7151 25.8197V51.7872V77.7549L39.2535 77.9936C38.6177 78.3223 37.7017 78.2916 37.0941 77.9211L36.5855 77.611V70.9585C36.5855 64.5145 36.5757 64.296 36.2726 63.9929C36.0987 63.8191 35.7511 63.68 35.4902 63.68C35.2294 63.68 34.8817 63.8191 34.7078 63.9929C34.4046 64.2962 34.3949 64.5145 34.3949 71.0006V77.6955L33.9405 77.9638C33.3577 78.3081 32.3021 78.3079 31.7193 77.9637L31.2644 77.6948L31.304 51.7146L31.3436 25.7343L31.8912 25.4523C32.5217 25.1276 33.4123 25.1759 34.0096 25.5673ZM44.8065 25.5673L45.1918 25.8197V51.7735V77.7272L44.6596 77.9798C43.9685 78.3078 43.0876 78.3012 42.5162 77.9637L42.0613 77.6948L42.1009 51.7146L42.1405 25.7343L42.6882 25.4523C43.3186 25.1276 44.2093 25.1759 44.8065 25.5673ZM50.1854 25.6222L50.5903 25.9244L50.6289 30.5236C50.6665 34.9911 50.6769 35.1307 50.9983 35.3967C51.4471 35.7684 52.0597 35.7411 52.4971 35.3304L52.8592 34.99V30.4049V25.8197L53.2826 25.5423C53.5325 25.3784 54.0002 25.2648 54.4239 25.2648C54.8477 25.2648 55.3154 25.3784 55.5653 25.5423L55.9887 25.8197V51.7016V77.5837L55.5764 77.908C55.061 78.3134 53.9517 78.3408 53.3136 77.9638L52.8592 77.6955V58.7664V39.8374L52.519 39.4751C52.1251 39.0559 51.5142 39.0077 51.0163 39.3567L50.6685 39.6002V58.6056V77.611L50.1599 77.9211C49.5081 78.3186 48.5429 78.3186 47.891 77.9211L47.3825 77.611L47.3848 51.8292C47.3862 37.6491 47.439 25.9694 47.5022 25.8743C47.9628 25.1817 49.4128 25.0454 50.1854 25.6222ZM60.7901 25.5135L61.4654 25.8404V51.7257V77.611L60.9569 77.9211C60.3493 78.2916 59.4332 78.3223 58.7975 77.9936L58.3359 77.7549V51.7339V25.7128L58.8444 25.4596C59.5365 25.1152 59.9936 25.1279 60.7901 25.5135ZM66.4004 25.5673L66.7856 25.8197V45.3546C66.7856 64.8806 66.7858 64.8897 67.11 65.3018C67.5217 65.8254 68.3213 65.8656 68.7565 65.3848C69.0458 65.0651 69.0558 64.4782 69.0954 45.3839L69.1364 25.7124L69.6875 25.4495C70.4084 25.1057 70.7699 25.1179 71.587 25.5135L72.2623 25.8404V51.7257V77.611L71.7538 77.9211C71.1487 78.2901 70.2308 78.3226 69.6019 77.9975L69.1478 77.7626L69.1012 73.7887C69.0583 70.1381 69.0303 69.788 68.7565 69.4857C68.3211 69.0052 67.5217 69.0456 67.11 69.569C66.8021 69.9603 66.7856 70.1738 66.7856 73.7824V77.5837L66.3733 77.908C65.8577 78.3136 64.7486 78.3408 64.11 77.9637L63.6552 77.6948L63.6947 51.7146L63.7343 25.7343L64.282 25.4523C64.9124 25.1276 65.8031 25.1759 66.4004 25.5673ZM77.2048 25.5721C78.462 26.3958 78.5372 28.1459 77.3627 29.2431C76.8376 29.7337 76.8135 30.5236 77.3087 31.0069C77.9706 31.653 78.2064 32.1382 78.2064 32.854C78.2064 33.5697 77.9706 34.0549 77.3087 34.701C76.8135 35.1844 76.8376 35.9743 77.3627 36.4648C77.9252 36.9903 78.2085 37.589 78.2085 38.2524C78.2085 38.9159 77.9252 39.5146 77.3627 40.04C76.8376 40.5306 76.8135 41.3205 77.3087 41.8038C78.5413 43.0068 78.5413 44.2949 77.3087 45.4979C76.8135 45.9813 76.8376 46.7712 77.3627 47.2618C77.9252 47.7872 78.2085 48.3859 78.2085 49.0494C78.2085 49.7128 77.9252 50.3115 77.3627 50.8369C76.8376 51.3275 76.8135 52.1174 77.3087 52.6008C77.9706 53.2469 78.2064 53.7321 78.2064 54.4478C78.2064 55.1635 77.9706 55.6488 77.3087 56.2949C76.8135 56.7782 76.8376 57.5681 77.3627 58.0587C77.9252 58.5841 78.2085 59.1828 78.2085 59.8463C78.2085 60.5097 77.9252 61.1084 77.3627 61.6339C76.8376 62.1244 76.8135 62.9143 77.3087 63.3977C77.9706 64.0438 78.2064 64.529 78.2064 65.2447C78.2064 65.9605 77.9706 66.4457 77.3087 67.0918C76.8135 67.5751 76.8376 68.365 77.3627 68.8556C77.9252 69.3811 78.2085 69.9797 78.2085 70.6432C78.2085 71.3067 77.9252 71.9053 77.3627 72.4308C76.764 72.9902 76.8143 73.6778 77.5078 74.413C77.8109 74.7345 78.1013 75.1662 78.1529 75.3724C78.2953 75.9398 78.1204 76.9076 77.7947 77.3543C77.1832 78.1931 75.7923 78.4865 74.907 77.9637L74.4521 77.6948L74.4917 51.7146L74.5313 25.7343L75.0789 25.4523C75.7122 25.1262 76.6005 25.1763 77.2048 25.5721ZM17.9648 30.0374C17.7909 30.2112 17.6518 30.5589 17.6518 30.8198C17.6518 31.0806 17.7909 31.4283 17.9648 31.6022C18.642 32.2794 19.8425 31.7793 19.8425 30.8198C19.8425 30.2175 19.3494 29.7244 18.7472 29.7244C18.4863 29.7244 18.1386 29.8635 17.9648 30.0374ZM17.9648 35.9835C17.7909 36.1574 17.6518 36.5051 17.6518 36.7659C17.6518 37.0267 17.7909 37.3744 17.9648 37.5483C18.642 38.2255 19.8425 37.7254 19.8425 36.7659C19.8425 36.1636 19.3494 35.6706 18.7472 35.6706C18.4863 35.6706 18.1386 35.8097 17.9648 35.9835ZM17.9648 41.9296C17.7909 42.1035 17.6518 42.4512 17.6518 42.712C17.6518 42.9729 17.7909 43.3206 17.9648 43.4944C18.642 44.1716 19.8425 43.6715 19.8425 42.712C19.8425 42.1097 19.3494 41.6167 18.7472 41.6167C18.4863 41.6167 18.1386 41.7558 17.9648 41.9296ZM17.9648 47.8758C17.7909 48.0496 17.6518 48.3973 17.6518 48.6582C17.6518 48.919 17.7909 49.2667 17.9648 49.4405C18.642 50.1178 19.8425 49.6177 19.8425 48.6582C19.8425 48.0559 19.3494 47.5628 18.7472 47.5628C18.4863 47.5628 18.1386 47.7019 17.9648 47.8758ZM17.9648 53.8219C17.7909 53.9958 17.6518 54.3434 17.6518 54.6043C17.6518 54.8651 17.7909 55.2128 17.9648 55.3867C18.642 56.0639 19.8425 55.5638 19.8425 54.6043C19.8425 54.002 19.3494 53.5089 18.7472 53.5089C18.4863 53.5089 18.1386 53.6481 17.9648 53.8219ZM17.9648 59.768C17.7909 59.9419 17.6518 60.2896 17.6518 60.5504C17.6518 60.8113 17.7909 61.159 17.9648 61.3328C18.642 62.01 19.8425 61.5099 19.8425 60.5504C19.8425 59.9481 19.3494 59.4551 18.7472 59.4551C18.4863 59.4551 18.1386 59.5942 17.9648 59.768Z" fill="#C91F37"/>
</svg>
