<svg width="98" height="19" viewBox="0 0 98 19" fill="none" xmlns="http://www.w3.org/2000/svg">
<path d="M0.721591 0.545454H4.59091L9.77273 13.1932H9.97727L15.1591 0.545454H19.0284V18H15.9943V6.00852H15.8324L11.0085 17.9489H8.74148L3.91761 5.98295H3.75568V18H0.721591V0.545454ZM26.5935 0.545454V18H23.4316V0.545454H26.5935ZM33.219 18H29.844L35.9889 0.545454H39.8923L46.0457 18H42.6707L38.0088 4.125H37.8724L33.219 18ZM33.3298 11.1562H42.5343V13.696H33.3298V11.1562ZM48.9809 18V16.0312L57.9297 3.19602H48.9297V0.545454H61.8502V2.5142L52.9098 15.3494H61.9013V18H48.9809ZM65.5971 18V16.0312L74.546 3.19602H65.546V0.545454H78.4664V2.5142L69.5261 15.3494H78.5176V18H65.5971ZM97.3135 9.27273C97.3135 11.1534 96.9612 12.7642 96.2567 14.1051C95.5578 15.4403 94.6033 16.4631 93.393 17.1733C92.1885 17.8835 90.822 18.2386 89.2936 18.2386C87.7652 18.2386 86.3959 17.8835 85.1857 17.1733C83.9811 16.4574 83.0266 15.4318 82.322 14.0966C81.6232 12.7557 81.2737 11.1477 81.2737 9.27273C81.2737 7.39205 81.6232 5.78409 82.322 4.44886C83.0266 3.10795 83.9811 2.08239 85.1857 1.37216C86.3959 0.661931 87.7652 0.306818 89.2936 0.306818C90.822 0.306818 92.1885 0.661931 93.393 1.37216C94.6033 2.08239 95.5578 3.10795 96.2567 4.44886C96.9612 5.78409 97.3135 7.39205 97.3135 9.27273ZM94.1345 9.27273C94.1345 7.94886 93.9271 6.83239 93.5124 5.92329C93.1033 5.00852 92.5351 4.31818 91.8078 3.85227C91.0805 3.38068 90.2425 3.14489 89.2936 3.14489C88.3447 3.14489 87.5067 3.38068 86.7794 3.85227C86.0521 4.31818 85.4811 5.00852 85.0663 5.92329C84.6572 6.83239 84.4527 7.94886 84.4527 9.27273C84.4527 10.5966 84.6572 11.7159 85.0663 12.6307C85.4811 13.5398 86.0521 14.2301 86.7794 14.7017C87.5067 15.1676 88.3447 15.4006 89.2936 15.4006C90.2425 15.4006 91.0805 15.1676 91.8078 14.7017C92.5351 14.2301 93.1033 13.5398 93.5124 12.6307C93.9271 11.7159 94.1345 10.5966 94.1345 9.27273Z" fill="#262626"/>
</svg>
