<svg width="80" height="87" viewBox="0 0 80 87" fill="none" xmlns="http://www.w3.org/2000/svg">
<path fill-rule="evenodd" clip-rule="evenodd" d="M60.9812 0.978378C57.1425 1.44631 53.5008 3.2 50.8399 5.86227C48.2464 8.45673 46.3796 12.1684 45.9538 15.5766L45.8338 16.5376H22.9169H0V51.5278V86.518H31.373C63.1531 86.518 65.0534 86.485 67.218 85.896C72.55 84.445 77.0177 80.4054 78.8302 75.3964C80.0046 72.1507 79.9189 74.4063 79.9847 44.9985C80.0249 27.0131 79.9864 17.8597 79.8651 16.591C79.4556 12.3051 77.8504 8.83694 74.9196 5.90613C72.9322 3.91872 70.8248 2.604 68.2462 1.74264C66.0812 1.01956 63.1619 0.71252 60.9812 0.978378ZM65.22 3.82246C65.7665 3.91923 66.7818 4.18391 67.4764 4.4106C71.1846 5.62119 74.7511 9.01791 76.1624 12.6828C77.2216 15.4335 77.1798 14.3779 77.1739 38.2529L77.1687 59.9823L76.7989 59.4801C76.0805 58.5041 74.4122 56.7907 73.3521 55.9401C71.4191 54.3893 68.5908 53.1136 65.8286 52.5469C64.5542 52.2853 61.0014 52.3207 59.6532 52.6081C55.2024 53.5574 52.0537 55.5923 48.8903 59.5638C48.557 59.9822 48.557 59.9748 48.5982 37.7159L48.6394 15.4494L49.0035 14.2775C49.8804 11.455 51.0485 9.53372 53.0501 7.62132C55.7571 5.03523 59.0319 3.69204 62.7087 3.65973C63.5437 3.65253 64.6737 3.72569 65.22 3.82246ZM14.8862 19.4492C14.7434 19.5828 3.25676 26.6283 3.05553 26.7055C2.8918 26.7683 2.84609 25.9778 2.84609 23.0848V19.3837H8.90106C12.2312 19.3837 14.9246 19.4132 14.8862 19.4492ZM30.2104 19.5289C30.0361 19.6877 3.00497 35.4557 2.9067 35.4557C2.87338 35.4557 2.84609 34.2572 2.84609 32.7921V30.1285L11.5844 24.7561L20.3229 19.3837H25.3461C28.1909 19.3837 30.3005 19.4467 30.2104 19.5289ZM45.6747 19.7448C45.633 20.0256 42.0866 22.2588 29.7231 29.7899C20.979 35.1159 13.6875 39.4738 13.5198 39.4738C13.1859 39.4738 5.96172 37.7028 5.47437 37.5014C5.24836 37.4082 9.02027 35.1281 20.5419 28.3938L35.911 19.4105L40.8196 19.3971L45.7281 19.3837L45.6747 19.7448ZM45.7049 26.7256V30.0493L35.3849 36.2408L25.065 42.4322L21.3219 41.5C19.2632 40.9874 17.581 40.5288 17.5838 40.4813C17.5895 40.381 45.3905 23.4324 45.5793 23.4139C45.6484 23.4072 45.7049 24.8974 45.7049 26.7256ZM45.7003 36.6695L45.6958 40.0597L42.156 42.0687C40.2089 43.1737 38.1204 44.3501 37.5147 44.6831L36.4132 45.2887L32.6487 44.3392L28.8841 43.3896L37.2526 38.3484C41.8553 35.5758 45.6401 33.3009 45.663 33.2932C45.6859 33.2855 45.7029 34.805 45.7003 36.6695ZM22.9792 44.7499C33.8668 47.4676 42.9202 49.7517 43.0975 49.8257C43.3568 49.9338 42.6065 50.4453 39.2745 52.431L35.129 54.9019L19.5317 50.3604C10.9531 47.8625 3.68954 45.7413 3.3902 45.6468L2.84609 45.4748V42.6416C2.84609 40.8523 2.9082 39.8086 3.01468 39.8086C3.10726 39.8086 12.0914 42.0322 22.9792 44.7499ZM45.7049 45.4171C45.7049 46.732 45.6412 47.5098 45.5336 47.5098C45.1055 47.5098 40.5149 46.2821 40.6052 46.1919C40.7689 46.0281 45.4413 43.3429 45.5793 43.3332C45.6484 43.3284 45.7049 44.2661 45.7049 45.4171ZM17.4105 52.6232C25.1907 54.8895 31.5881 56.7756 31.6271 56.8145C31.7327 56.9201 31.8054 56.8736 28.1574 59.0403C25.4737 60.6343 24.697 61.0252 24.4742 60.8939C24.3188 60.8025 19.4078 59.2365 13.5608 57.4137L2.9298 54.0996L2.88393 51.2269C2.84776 48.9581 2.88309 48.37 3.05134 48.4284C3.1687 48.4691 9.63033 50.3567 17.4105 52.6232ZM45.7027 55.2528L45.7005 58.643L26.9285 69.5251C16.6038 75.5103 6.96003 81.1007 5.49764 81.9483L2.83872 83.4894L2.88426 80.3724L2.9298 77.2554L18.667 67.9013C27.3225 62.7566 36.928 57.0442 40.0127 55.2071C43.0973 53.3699 45.6401 51.866 45.663 51.8648C45.6859 51.8636 45.7039 53.3883 45.7027 55.2528ZM65.734 55.3636C70.3098 56.308 74.3601 59.6763 76.1065 63.9896C78.342 69.5116 77.0289 75.5421 72.6881 79.6893C67.1096 85.0191 58.6241 85.0224 53.0501 79.697C50.2338 77.0063 48.8027 73.8907 48.6085 70.0274C48.4026 65.9332 50.0318 61.8711 53.0098 59.0527C56.4699 55.7778 61.157 54.4191 65.734 55.3636ZM12.3442 59.937C19.3643 62.1275 21.5414 62.8681 21.3847 63.0126C21.2712 63.1172 19.4832 64.2043 17.4114 65.4283C15.3396 66.6522 13.5218 67.7294 13.3719 67.8216C13.1657 67.9487 11.8518 67.5245 7.97508 66.0787L2.85078 64.1678L2.84843 60.6102C2.84709 58.6536 2.90251 57.0524 2.97165 57.052C3.0408 57.0517 7.25837 58.35 12.3442 59.937ZM60.7724 59.6567C54.9968 60.8971 51.5596 67.0055 53.4826 72.6116C55.8647 79.5566 64.6988 81.5904 69.8983 76.3909C74.7261 71.5631 73.3481 63.3861 67.2131 60.4583C65.1119 59.4555 62.9579 59.1873 60.7724 59.6567ZM45.6665 65.2823L45.6212 68.6567L32.6554 76.1664L19.6896 83.676L13.945 83.6322L8.20059 83.5882L16.6983 78.6569C21.3723 75.9447 27.9838 72.1082 31.3907 70.1313C34.7976 68.1543 39.3556 65.5017 41.5194 64.2369C43.6833 62.9719 45.5118 61.9302 45.5828 61.9222C45.6538 61.9142 45.6915 63.4261 45.6665 65.2823ZM64.8423 62.4904C66.8935 63.1129 68.4445 64.4507 69.3634 66.3906C69.8181 67.3504 69.905 67.743 69.9544 69.0574C70.0374 71.2708 69.5049 72.744 68.0699 74.2719C66.6551 75.7785 64.9903 76.4868 62.8651 76.4868C59.9601 76.4868 57.6308 75.007 56.3867 72.3712C55.8654 71.2666 55.8336 71.0935 55.8336 69.3577C55.8336 67.6375 55.8684 67.4425 56.3635 66.3978C57.5992 63.7894 59.9403 62.2785 62.7814 62.256C63.472 62.2505 64.3993 62.356 64.8423 62.4904ZM7.53377 68.8504C8.68476 69.2797 9.68742 69.6909 9.76209 69.7639C9.8761 69.8755 3.24103 73.9617 2.9457 73.9617C2.89096 73.9617 2.84609 72.4191 2.84609 70.5338V67.1059L4.14357 67.5879C4.85727 67.853 6.38278 68.421 7.53377 68.8504ZM46.2327 73.0883C46.9657 76.6326 49.2109 80.2694 52.0709 82.5446L53.3826 83.5882L46.4591 83.6318C42.6512 83.6558 36.3478 83.6558 32.4515 83.6318L25.3674 83.5882L35.4943 77.7038C41.0641 74.4674 45.6982 71.8119 45.7923 71.8023C45.8863 71.7929 46.0846 72.3715 46.2327 73.0883Z" fill="#C91F37"/>
</svg>
