<svg width="24" height="24" viewBox="0 0 24 24" fill="none" xmlns="http://www.w3.org/2000/svg">
<path fill-rule="evenodd" clip-rule="evenodd" d="M20.5 8C20.5 7.72386 20.2761 7.5 20 7.5H4C3.72386 7.5 3.5 7.72386 3.5 8V14.619C3.5 14.8952 3.72386 15.119 4 15.119H13.017L16.8772 18.3819C17.0259 18.5075 17.2339 18.5355 17.4105 18.4535C17.587 18.3716 17.7 18.1946 17.7 18V15.119H20C20.2761 15.119 20.5 14.8952 20.5 14.619V8ZM19.5 8.5V14.119H17.2C16.9239 14.119 16.7 14.3429 16.7 14.619V16.9227L13.5228 14.2372C13.4325 14.1609 13.3182 14.119 13.2 14.119H4.5V8.5H19.5Z" fill="black"/>
</svg>
