<svg width="24" height="24" viewBox="0 0 24 24" fill="none" xmlns="http://www.w3.org/2000/svg">
<path fill-rule="evenodd" clip-rule="evenodd" d="M13.3183 7.28242C11.6929 8.76303 10.2779 10.446 9.53028 11.4304C9.38839 11.3902 9.2442 11.3566 9.09821 11.3297C8.23134 11.1698 7.33226 11.2514 6.5126 11.5663C5.69267 11.8813 4.98291 12.418 4.47923 13.1171C3.97496 13.8169 3.70166 14.6463 3.70166 15.5C3.70166 16.5528 3.38853 17.2903 3.09252 17.7569C2.94302 17.9926 2.79584 18.1622 2.69129 18.2688C2.63911 18.3221 2.59795 18.3592 2.57303 18.3807C2.56059 18.3914 2.55226 18.3981 2.54872 18.401L2.5475 18.4019C2.29179 18.5954 2.18715 18.9304 2.28792 19.2353C2.38943 19.5425 2.67651 19.75 3.00005 19.75H8.22585C9.10861 19.75 9.97565 19.5075 10.7177 19.0477C11.4603 18.5876 12.048 17.9279 12.3975 17.1453C12.7475 16.3618 12.8402 15.4959 12.6608 14.6599C12.6451 14.5865 12.6273 14.5137 12.6076 14.4415C13.5967 13.6868 15.2561 12.2868 16.718 10.6817C17.5048 9.81787 18.251 8.87666 18.8043 7.92952C19.3511 6.99366 19.75 5.98402 19.75 5C19.75 4.58579 19.4143 4.25 19 4.25C18.016 4.25 17.0063 4.64899 16.0705 5.19584C15.1233 5.74927 14.1821 6.49554 13.3183 7.28242ZM11.9417 10.8505C11.5425 11.309 11.1957 11.7322 10.9197 12.085C11.09 12.2035 11.2521 12.3338 11.4046 12.4752C11.6005 12.6569 11.7779 12.8546 11.9348 13.0655C12.2836 12.792 12.6996 12.4507 13.1498 12.0587C12.8234 11.5863 12.4141 11.1769 11.9417 10.8505ZM12.9589 9.73404C13.457 10.1027 13.8976 10.5433 14.2662 11.0415C14.7159 10.6123 15.1724 10.1511 15.6091 9.67165C16.3555 8.85208 17.0276 7.99711 17.5092 7.17284C17.7737 6.7201 17.9691 6.29629 18.0926 5.90749C17.7038 6.031 17.28 6.22641 16.8272 6.49095C16.003 6.97259 15.148 7.64476 14.3284 8.39132C13.8491 8.82798 13.388 9.28443 12.9589 9.73404ZM8.82611 12.8048C8.22875 12.6946 7.61009 12.7516 7.05047 12.9665C6.49111 13.1814 6.02197 13.5418 5.69623 13.9939C5.37107 14.4452 5.20166 14.9693 5.20166 15.5C5.20166 16.6748 4.8983 17.5867 4.54087 18.25H8.22585C8.83603 18.25 9.4284 18.082 9.92765 17.7726C10.4264 17.4635 10.8062 17.03 11.028 16.5335C11.2493 16.0379 11.3061 15.4963 11.1942 14.9745C11.0821 14.452 10.8039 13.9638 10.3846 13.5751C9.96482 13.1857 9.42336 12.915 8.82611 12.8048Z" fill="black"/>
<path d="M11.6414 7.46967L8.64144 4.46967C8.34855 4.17678 7.87367 4.17678 7.58078 4.46967L4.46967 7.58078C4.17678 7.87367 4.17678 8.34855 4.46967 8.64144L6.43605 10.6078C7.04248 10.4189 7.67822 10.3365 8.31207 10.3625L6.06066 8.11111L8.11111 6.06066L8.9949 6.94444L8.46967 7.46967C8.17678 7.76256 8.17678 8.23744 8.46967 8.53033C8.76256 8.82322 9.23744 8.82322 9.53033 8.53033L10.0556 8.00511L10.6062 8.55574C10.9303 8.20051 11.2773 7.83463 11.6414 7.46967Z" fill="black"/>
<path d="M13.804 15.8545L15.8889 17.9393L17.9393 15.8889L17.0556 15.0051L16.5303 15.5303C16.2374 15.8232 15.7626 15.8232 15.4697 15.5303C15.1768 15.2374 15.1768 14.7626 15.4697 14.4697L15.9949 13.9444L15.4443 13.3939C15.7995 13.0698 16.1654 12.7227 16.5303 12.3586L19.5303 15.3586C19.8232 15.6515 19.8232 16.1263 19.5303 16.4192L16.4192 19.5303C16.1263 19.8232 15.6515 19.8232 15.3586 19.5303L13.4456 17.6174C13.6767 17.0539 13.7976 16.4564 13.804 15.8545Z" fill="black"/>
</svg>
