<svg width="24" height="24" viewBox="0 0 24 24" fill="none" xmlns="http://www.w3.org/2000/svg">
<path fill-rule="evenodd" clip-rule="evenodd" d="M15.661 4.46982C15.5204 4.32905 15.3295 4.24997 15.1305 4.25C14.9314 4.25003 14.7406 4.32917 14.5999 4.46998L6.46936 12.61C6.3289 12.7506 6.25 12.9412 6.25 13.14V16C6.25 16.4142 6.58579 16.75 7 16.75H9.87493C10.0739 16.75 10.2647 16.6709 10.4054 16.5302L18.5305 8.4012C18.8232 8.10834 18.8232 7.63368 18.5305 7.34081L15.661 4.46982ZM7.75 13.4504L15.1307 6.06111L16.9396 7.87098L9.56416 15.25H7.75V13.4504ZM5 19.25C4.58579 19.25 4.25 19.5858 4.25 20C4.25 20.4142 4.58579 20.75 5 20.75H20C20.4142 20.75 20.75 20.4142 20.75 20C20.75 19.5858 20.4142 19.25 20 19.25H5Z" fill="black"/>
</svg>
