<svg width="24" height="24" viewBox="0 0 24 24" fill="none" xmlns="http://www.w3.org/2000/svg">
<path fill-rule="evenodd" clip-rule="evenodd" d="M7.06173 5.57769C7.60928 5.36109 8.19515 5.25 8.78605 5.25C9.37694 5.25 9.96282 5.36109 10.5104 5.57769C11.058 5.79431 11.5576 6.11268 11.9797 6.51623L11.9823 6.51868L12 6.53582L12.0203 6.51623C12.4424 6.11268 12.9421 5.79431 13.4897 5.57769C14.0372 5.36109 14.6231 5.25 15.214 5.25C15.8049 5.25 16.3907 5.36109 16.9383 5.57769C17.4856 5.7942 17.985 6.11234 18.4069 6.51557C20.2286 8.25136 20.2594 11.129 18.1179 13.2073L18.1129 13.2122L12.5173 18.543C12.2277 18.819 11.7724 18.819 11.4827 18.543L5.88206 13.2073C3.74072 11.1291 3.77138 8.2516 5.59285 6.51579C6.01487 6.11245 6.51433 5.79423 7.06173 5.57769ZM8.78605 6.75C8.38273 6.75 7.98416 6.82589 7.61351 6.97252C7.2429 7.11913 6.90861 7.3331 6.62893 7.60047L6.62799 7.60137C5.48486 8.69043 5.33341 10.5824 6.92435 12.1286L12 16.9641L17.0756 12.1286C18.6666 10.5824 18.5152 8.69043 17.372 7.60137L17.3711 7.60047C17.0914 7.3331 16.7571 7.11913 16.3865 6.97252C16.0159 6.82589 15.6173 6.75 15.214 6.75C14.8107 6.75 14.4121 6.82589 14.0414 6.97252C13.6713 7.11892 13.3375 7.33249 13.058 7.59934C13.0576 7.59972 13.0573 7.6001 13.0569 7.60047L12.5208 8.11779C12.2302 8.39822 11.7698 8.39822 11.4792 8.11779L10.9419 7.5993C10.6625 7.33247 10.3287 7.11891 9.95859 6.97252C9.58793 6.82589 9.18937 6.75 8.78605 6.75Z" fill="black"/>
</svg>
