<svg width="24" height="24" viewBox="0 0 24 24" fill="none" xmlns="http://www.w3.org/2000/svg">
<path fill-rule="evenodd" clip-rule="evenodd" d="M5.62594 3.44163C6.33687 3.14998 7.09867 3 7.86775 3C8.63683 3 9.39863 3.14998 10.1096 3.44163C10.8155 3.73123 11.4578 4.155 12 4.68952C12.5422 4.155 13.1845 3.73123 13.8904 3.44163C14.6013 3.14998 15.3631 3 16.1322 3C16.9013 3 17.6631 3.14998 18.374 3.44163C19.0844 3.73307 19.7305 4.16042 20.2748 4.69977C22.6135 7.01032 22.6555 10.8273 19.9037 13.597L19.8971 13.6035L12.7028 20.7114C12.3133 21.0962 11.6867 21.0962 11.2972 20.7114L4.09625 13.597C1.34463 10.8275 1.38648 7.01099 3.72454 4.70037C4.26901 4.16074 4.91526 3.73318 5.62594 3.44163ZM13.3981 6.11971C13.3975 6.12024 13.397 6.12076 13.3965 6.12129L12.7074 6.81097C12.5198 6.99868 12.2653 7.10415 12 7.10415C11.7346 7.10415 11.4802 6.99868 11.2926 6.81097L10.6035 6.12129C10.6029 6.12076 10.6024 6.12024 10.6019 6.11971C10.2445 5.76582 9.81938 5.48434 9.35047 5.29198C8.88085 5.09932 8.37694 5 7.86775 5C7.35855 5 6.85464 5.09932 6.38502 5.29198C5.91543 5.48463 5.48973 5.76665 5.13202 6.12129L5.13078 6.12251C3.65721 7.57837 3.46491 10.1211 5.51192 12.1842L12 18.5943L18.488 12.1842C20.5351 10.1211 20.3428 7.57837 18.8692 6.12251L18.868 6.12129C18.5102 5.76665 18.0845 5.48463 17.6149 5.29198C17.1453 5.09932 16.6414 5 16.1322 5C15.623 5 15.1191 5.09932 14.6495 5.29198C14.1806 5.48434 13.7555 5.76582 13.3981 6.11971Z" fill="black"/>
</svg>
