<svg width="24" height="24" viewBox="0 0 24 24" fill="none" xmlns="http://www.w3.org/2000/svg">
<path fill-rule="evenodd" clip-rule="evenodd" d="M18.3527 16.1634C18.4717 15.7667 18.8899 15.5416 19.2866 15.6607C20.2301 15.9439 21.0485 16.2959 21.6477 16.7208C22.2273 17.1318 22.75 17.7221 22.75 18.5C22.75 19.2778 22.2278 19.8683 21.6481 20.2795C21.0489 20.7046 20.2304 21.0566 19.2866 21.3398C17.3895 21.9089 14.8135 22.25 12 22.25C9.18655 22.25 6.61055 21.9089 4.71337 21.3398C3.76955 21.0566 2.95113 20.7046 2.35192 20.2795C1.77217 19.8683 1.25 19.2778 1.25 18.5C1.25 17.7224 1.77221 17.132 2.35187 16.7209C2.95105 16.2959 3.76949 15.9438 4.71349 15.6606C5.11023 15.5416 5.52835 15.7668 5.64737 16.1635C5.76639 16.5602 5.54126 16.9784 5.14451 17.0974C4.27851 17.3572 3.63245 17.6516 3.21963 17.9444C2.78729 18.251 2.75 18.4497 2.75 18.5C2.75 18.5507 2.78746 18.7495 3.21974 19.0561C3.63256 19.3489 4.27857 19.6433 5.14438 19.903C6.86645 20.4196 9.29045 20.75 12 20.75C14.7095 20.75 17.1335 20.4196 18.8556 19.903C19.7214 19.6433 20.3674 19.3489 20.7803 19.0561C21.2125 18.7495 21.25 18.5507 21.25 18.5C21.25 18.4499 21.2127 18.2512 20.7801 17.9444C20.367 17.6516 19.7209 17.3572 18.8554 17.0973C18.4587 16.9783 18.2336 16.5601 18.3527 16.1634Z" fill="black"/>
<path fill-rule="evenodd" clip-rule="evenodd" d="M4.75 8.34C4.75 4.40732 8.01347 1.25 12 1.25C15.9866 1.25 19.25 4.4084 19.25 8.34C19.25 11.1048 17.4408 13.5798 15.7885 15.2841C14.9455 16.1535 14.1053 16.8611 13.4767 17.351C13.1618 17.5965 12.8985 17.7885 12.7125 17.9201C12.6194 17.986 12.5456 18.0368 12.4942 18.0717C12.4685 18.0891 12.4484 18.1026 12.4343 18.112L12.4176 18.123L12.4128 18.1262L12.4112 18.1272L12.4107 18.1276C12.4105 18.1277 12.4103 18.1278 12 17.5C11.5897 18.1278 11.5895 18.1277 11.5893 18.1276L11.5888 18.1272L11.5872 18.1262L11.5824 18.123L11.5657 18.112C11.5516 18.1026 11.5315 18.0891 11.5058 18.0717C11.4544 18.0368 11.3806 17.986 11.2875 17.9201C11.1015 17.7885 10.8382 17.5965 10.5233 17.351C9.89474 16.8611 9.05448 16.1535 8.21154 15.2841C6.55916 13.5798 4.75 11.1048 4.75 8.34ZM12 17.5L11.5897 18.1278C11.839 18.2907 12.161 18.2907 12.4103 18.1278L12 17.5ZM12 16.5854C12.1518 16.4753 12.3399 16.3353 12.5545 16.168C13.1447 15.7079 13.9295 15.0465 14.7115 14.2399C16.3092 12.5922 17.75 10.4872 17.75 8.34C17.75 5.2716 15.1934 2.75 12 2.75C8.80653 2.75 6.25 5.27068 6.25 8.34C6.25 10.4872 7.69084 12.5922 9.28846 14.2399C10.0705 15.0465 10.8553 15.7079 11.4455 16.168C11.6601 16.3353 11.8482 16.4753 12 16.5854Z" fill="black"/>
<path fill-rule="evenodd" clip-rule="evenodd" d="M9.7019 6.2019C10.3114 5.59241 11.138 5.25 12 5.25C12.862 5.25 13.6886 5.59241 14.2981 6.2019C14.9076 6.8114 15.25 7.63805 15.25 8.5C15.25 9.36195 14.9076 10.1886 14.2981 10.7981C13.6886 11.4076 12.862 11.75 12 11.75C11.138 11.75 10.3114 11.4076 9.7019 10.7981C9.09241 10.1886 8.75 9.36195 8.75 8.5C8.75 7.63805 9.09241 6.8114 9.7019 6.2019ZM12 6.75C11.5359 6.75 11.0908 6.93437 10.7626 7.26256C10.4344 7.59075 10.25 8.03587 10.25 8.5C10.25 8.96413 10.4344 9.40925 10.7626 9.73744C11.0908 10.0656 11.5359 10.25 12 10.25C12.4641 10.25 12.9092 10.0656 13.2374 9.73744C13.5656 9.40925 13.75 8.96413 13.75 8.5C13.75 8.03587 13.5656 7.59075 13.2374 7.26256C12.9092 6.93437 12.4641 6.75 12 6.75Z" fill="black"/>
</svg>
