<svg width="0" height="0" class="hidden">
  <symbol  xmlns="http://www.w3.org/2000/svg" viewBox="0 0 24 24" id="key">
    <path fill-rule="evenodd" clip-rule="evenodd" d="M3.46447 8.46447C4.40215 7.52678 5.67392 7 7 7C8.32608 7 9.59785 7.52678 10.5355 8.46447C11.2351 9.16405 11.706 10.0496 11.9 11.0049C11.9329 11.0017 11.9663 11 12 11H17H21C21.5523 11 22 11.4477 22 12V16C22 16.5523 21.5523 17 21 17C20.4477 17 20 16.5523 20 16V13H18V15C18 15.5523 17.5523 16 17 16C16.4477 16 16 15.5523 16 15V13H12C11.9663 13 11.9329 12.9983 11.9 12.9951C11.706 13.9504 11.2351 14.8359 10.5355 15.5355C9.59785 16.4732 8.32608 17 7 17C5.67392 17 4.40215 16.4732 3.46447 15.5355C2.52678 14.5979 2 13.3261 2 12C2 10.6739 2.52678 9.40215 3.46447 8.46447ZM7 9C6.20435 9 5.44129 9.31607 4.87868 9.87868C4.31607 10.4413 4 11.2044 4 12C4 12.7956 4.31607 13.5587 4.87868 14.1213C5.44129 14.6839 6.20435 15 7 15C7.79565 15 8.55871 14.6839 9.12132 14.1213C9.68393 13.5587 10 12.7956 10 12C10 11.2044 9.68393 10.4413 9.12132 9.87868C8.55871 9.31607 7.79565 9 7 9Z" ></path>
  </symbol>
  <symbol  xmlns="http://www.w3.org/2000/svg" viewBox="0 0 24 24" id="location">
    <path fill-rule="evenodd" clip-rule="evenodd" d="M18.3527 16.1634C18.4717 15.7667 18.8899 15.5416 19.2866 15.6607C20.2301 15.9439 21.0485 16.2959 21.6477 16.7208C22.2273 17.1318 22.75 17.7221 22.75 18.5C22.75 19.2778 22.2278 19.8683 21.6481 20.2795C21.0489 20.7046 20.2304 21.0566 19.2866 21.3398C17.3895 21.9089 14.8135 22.25 12 22.25C9.18655 22.25 6.61055 21.9089 4.71337 21.3398C3.76955 21.0566 2.95113 20.7046 2.35192 20.2795C1.77217 19.8683 1.25 19.2778 1.25 18.5C1.25 17.7224 1.77221 17.132 2.35187 16.7209C2.95105 16.2959 3.76949 15.9438 4.71349 15.6606C5.11023 15.5416 5.52835 15.7668 5.64737 16.1635C5.76639 16.5602 5.54126 16.9784 5.14451 17.0974C4.27851 17.3572 3.63245 17.6516 3.21963 17.9444C2.78729 18.251 2.75 18.4497 2.75 18.5C2.75 18.5507 2.78746 18.7495 3.21974 19.0561C3.63256 19.3489 4.27857 19.6433 5.14438 19.903C6.86645 20.4196 9.29045 20.75 12 20.75C14.7095 20.75 17.1335 20.4196 18.8556 19.903C19.7214 19.6433 20.3674 19.3489 20.7803 19.0561C21.2125 18.7495 21.25 18.5507 21.25 18.5C21.25 18.4499 21.2127 18.2512 20.7801 17.9444C20.367 17.6516 19.7209 17.3572 18.8554 17.0973C18.4587 16.9783 18.2336 16.5601 18.3527 16.1634Z" ></path>
    <path fill-rule="evenodd" clip-rule="evenodd" d="M4.75 8.34C4.75 4.40732 8.01347 1.25 12 1.25C15.9866 1.25 19.25 4.4084 19.25 8.34C19.25 11.1048 17.4408 13.5798 15.7885 15.2841C14.9455 16.1535 14.1053 16.8611 13.4767 17.351C13.1618 17.5965 12.8985 17.7885 12.7125 17.9201C12.6194 17.986 12.5456 18.0368 12.4942 18.0717C12.4685 18.0891 12.4484 18.1026 12.4343 18.112L12.4176 18.123L12.4128 18.1262L12.4112 18.1272L12.4107 18.1276C12.4105 18.1277 12.4103 18.1278 12 17.5C11.5897 18.1278 11.5895 18.1277 11.5893 18.1276L11.5888 18.1272L11.5872 18.1262L11.5824 18.123L11.5657 18.112C11.5516 18.1026 11.5315 18.0891 11.5058 18.0717C11.4544 18.0368 11.3806 17.986 11.2875 17.9201C11.1015 17.7885 10.8382 17.5965 10.5233 17.351C9.89474 16.8611 9.05448 16.1535 8.21154 15.2841C6.55916 13.5798 4.75 11.1048 4.75 8.34ZM12 17.5L11.5897 18.1278C11.839 18.2907 12.161 18.2907 12.4103 18.1278L12 17.5ZM12 16.5854C12.1518 16.4753 12.3399 16.3353 12.5545 16.168C13.1447 15.7079 13.9295 15.0465 14.7115 14.2399C16.3092 12.5922 17.75 10.4872 17.75 8.34C17.75 5.2716 15.1934 2.75 12 2.75C8.80653 2.75 6.25 5.27068 6.25 8.34C6.25 10.4872 7.69084 12.5922 9.28846 14.2399C10.0705 15.0465 10.8553 15.7079 11.4455 16.168C11.6601 16.3353 11.8482 16.4753 12 16.5854Z" ></path>
    <path fill-rule="evenodd" clip-rule="evenodd" d="M9.7019 6.2019C10.3114 5.59241 11.138 5.25 12 5.25C12.862 5.25 13.6886 5.59241 14.2981 6.2019C14.9076 6.8114 15.25 7.63805 15.25 8.5C15.25 9.36195 14.9076 10.1886 14.2981 10.7981C13.6886 11.4076 12.862 11.75 12 11.75C11.138 11.75 10.3114 11.4076 9.7019 10.7981C9.09241 10.1886 8.75 9.36195 8.75 8.5C8.75 7.63805 9.09241 6.8114 9.7019 6.2019ZM12 6.75C11.5359 6.75 11.0908 6.93437 10.7626 7.26256C10.4344 7.59075 10.25 8.03587 10.25 8.5C10.25 8.96413 10.4344 9.40925 10.7626 9.73744C11.0908 10.0656 11.5359 10.25 12 10.25C12.4641 10.25 12.9092 10.0656 13.2374 9.73744C13.5656 9.40925 13.75 8.96413 13.75 8.5C13.75 8.03587 13.5656 7.59075 13.2374 7.26256C12.9092 6.93437 12.4641 6.75 12 6.75Z" ></path>
  </symbol>
  <symbol version="1.1" id="mail" xmlns="http://www.w3.org/2000/svg" xmlns:xlink="http://www.w3.org/1999/xlink" x="0px" y="0px" xml:space="preserve" viewBox="0 0 24 24">
    <path d="M20.7,5.9c0-0.1,0-0.1,0-0.1c0,0,0-0.1-0.1-0.1c0,0,0-0.1,0-0.1c0,0,0,0,0,0c0,0-0.1-0.1-0.1-0.1
	c0,0-0.1-0.1-0.1-0.1c0,0-0.1,0-0.1,0c-0.1,0-0.1,0-0.2,0c0,0,0,0-0.1,0H4c0,0,0,0-0.1,0c-0.1,0-0.1,0-0.2,0c0,0-0.1,0-0.1,0
	c0,0-0.1,0-0.1,0.1c0,0-0.1,0.1-0.1,0.1c0,0,0,0,0,0c0,0,0,0.1,0,0.1c0,0,0,0.1-0.1,0.1c0,0,0,0.1,0,0.1c0,0,0,0.1,0,0.1v12
	c0,0.4,0.3,0.8,0.8,0.8h16c0.4,0,0.8-0.3,0.8-0.8L20.7,5.9C20.8,6,20.7,5.9,20.7,5.9z M17.8,6.8L12,11.1L6.2,6.8H17.8z M4.8,17.2
	V7.5l6.8,5.1c0.3,0.2,0.6,0.2,0.9,0l6.8-5.1v9.7H4.8z"></path>
  </symbol>
  <symbol  xmlns="http://www.w3.org/2000/svg" viewBox="0 0 24 24" id="minus">
    <path fill-rule="evenodd" clip-rule="evenodd" d="M7.5 12C7.5 11.7239 7.72386 11.5 8 11.5H16C16.2761 11.5 16.5 11.7239 16.5 12C16.5 12.2761 16.2761 12.5 16 12.5H8C7.72386 12.5 7.5 12.2761 7.5 12Z" ></path>
  </symbol>
  <symbol version="1.1" id="phone" xmlns="http://www.w3.org/2000/svg" xmlns:xlink="http://www.w3.org/1999/xlink" x="0px" y="0px" xml:space="preserve" viewBox="0 0 24 24">
    <path d="M18.4,20.5c-0.3,0-0.6,0-0.8-0.1c-2.7-0.9-6.5-2.5-9-5c-2.5-2.5-4.1-6.3-5-9C3.3,5.6,3.5,4.8,3.9,4.1C4.4,3.4,5.2,3,6.1,3
	l2.5,0c0,0,0,0,0,0c0.3,0,0.6,0.1,0.9,0.2c0.3,0.2,0.5,0.4,0.6,0.7l1.2,2.2c0.1,0.2,0.2,0.5,0.2,0.8c0,0.3-0.1,0.6-0.2,0.8l-1,2.1
	c0.1,0.5,0.5,1.6,1.5,2.5c0.9,0.9,2,1.3,2.5,1.5l2.1-1c0.2-0.1,0.5-0.2,0.8-0.2c0.3,0,0.6,0.1,0.8,0.2l2.2,1.2
	c0.5,0.3,0.9,0.9,0.9,1.5v2.5c0,0.9-0.4,1.7-1.1,2.2C19.5,20.4,19,20.5,18.4,20.5z M8.6,4.5l-2.5,0C5.7,4.5,5.4,4.7,5.2,5
	C5,5.1,4.9,5.5,5,5.9c0.7,2.1,2.3,6,4.7,8.4c2.4,2.4,6.3,3.9,8.4,4.7c0.4,0.2,0.8,0,0.9-0.1c0.3-0.2,0.5-0.5,0.5-0.9v-2.5
	c0-0.1,0-0.2-0.1-0.2L17.2,14c0,0-0.1,0-0.1,0c0,0-0.1,0-0.1,0l-2.3,1.2c-0.1,0.1-0.3,0.1-0.5,0.1c-0.1,0-2-0.4-3.5-1.9
	c-1.5-1.5-1.9-3.4-1.9-3.5c0-0.2,0-0.3,0.1-0.5L10,7c0,0,0-0.1,0-0.1c0,0,0-0.1,0-0.1L8.8,4.6c0,0,0-0.1-0.1-0.1
	C8.7,4.5,8.6,4.5,8.6,4.5z"></path>
  </symbol>
  <symbol  xmlns="http://www.w3.org/2000/svg" viewBox="0 0 24 24" id="plus">
    <path fill-rule="evenodd" clip-rule="evenodd" d="M12.5 8C12.5 7.72386 12.2761 7.5 12 7.5C11.7239 7.5 11.5 7.72386 11.5 8V11.5H8C7.72386 11.5 7.5 11.7239 7.5 12C7.5 12.2761 7.72386 12.5 8 12.5H11.5V16C11.5 16.2761 11.7239 16.5 12 16.5C12.2761 16.5 12.5 16.2761 12.5 16V12.5H16C16.2761 12.5 16.5 12.2761 16.5 12C16.5 11.7239 16.2761 11.5 16 11.5H12.5V8Z" ></path>
  </symbol>
  <symbol  xmlns="http://www.w3.org/2000/svg" viewBox="0 0 24 24" id="search">
    <path fill-rule="evenodd" clip-rule="evenodd" d="M16.6177 18.0319C15.078 19.2635 13.125 20 11 20C6.02944 20 2 15.9706 2 11C2 6.02944 6.02944 2 11 2C15.9706 2 20 6.02944 20 11C20 13.125 19.2635 15.078 18.0319 16.6177L21.7071 20.2929C22.0976 20.6834 22.0976 21.3166 21.7071 21.7071C21.3166 22.0976 20.6834 22.0976 20.2929 21.7071L16.6177 18.0319ZM4 11C4 7.13401 7.13401 4 11 4C14.866 4 18 7.13401 18 11C18 12.8859 17.2542 14.5977 16.0414 15.8563C16.0072 15.8827 15.9743 15.9115 15.9429 15.9429C15.9115 15.9743 15.8827 16.0072 15.8563 16.0414C14.5977 17.2542 12.8859 18 11 18C7.13401 18 4 14.866 4 11Z" ></path>
  </symbol>
  <symbol  xmlns="http://www.w3.org/2000/svg" viewBox="0 0 24 24" id="search-1">
    <path fill-rule="evenodd" clip-rule="evenodd" d="M10.5 3.25C8.57718 3.25 6.73311 4.01384 5.37348 5.37348C4.01384 6.73311 3.25 8.57718 3.25 10.5C3.25 12.4228 4.01384 14.2669 5.37348 15.6265C6.73311 16.9862 8.57718 17.75 10.5 17.75C12.1712 17.75 13.7828 17.173 15.0687 16.1294L18.4697 19.5303C18.7626 19.8232 19.2374 19.8232 19.5303 19.5303C19.8232 19.2374 19.8232 18.7626 19.5303 18.4697L16.1294 15.0687C17.173 13.7828 17.75 12.1712 17.75 10.5C17.75 8.57718 16.9862 6.73311 15.6265 5.37348C14.2669 4.01384 12.4228 3.25 10.5 3.25ZM14.5659 14.5659C13.4875 15.6442 12.025 16.25 10.5 16.25C8.97501 16.25 7.51247 15.6442 6.43414 14.5659C5.3558 13.4875 4.75 12.025 4.75 10.5C4.75 8.97501 5.3558 7.51247 6.43414 6.43414C7.51247 5.3558 8.97501 4.75 10.5 4.75C12.025 4.75 13.4875 5.3558 14.5659 6.43414C15.6442 7.51247 16.25 8.97501 16.25 10.5C16.25 12.025 15.6442 13.4875 14.5659 14.5659Z" ></path>
  </symbol>
  <symbol  xmlns="http://www.w3.org/2000/svg" viewBox="0 0 24 24" id="smartphone">
    <path fill-rule="evenodd" clip-rule="evenodd" d="M8.92308 4.5C8.52334 4.5 8.15527 4.68118 7.89484 4.97741C7.63624 5.27157 7.5 5.65823 7.5 6.05V17.95C7.5 18.3418 7.63624 18.7284 7.89484 19.0226C8.15527 19.3188 8.52334 19.5 8.92308 19.5H15.0769C15.4767 19.5 15.8447 19.3188 16.1052 19.0226C16.3638 18.7284 16.5 18.3418 16.5 17.95V6.05C16.5 5.65823 16.3638 5.27157 16.1052 4.97741C15.8447 4.68118 15.4767 4.5 15.0769 4.5H8.92308ZM8.64588 5.63767C8.73168 5.54007 8.83318 5.5 8.92308 5.5H10.5C10.5 5.77614 10.7239 6 11 6H13C13.2761 6 13.5 5.77614 13.5 5.5H15.0769C15.1668 5.5 15.2683 5.54007 15.3541 5.63767C15.4417 5.73733 15.5 5.88482 15.5 6.05V17.95C15.5 18.1152 15.4417 18.2627 15.3541 18.3623C15.2683 18.4599 15.1668 18.5 15.0769 18.5H8.92308C8.83318 18.5 8.73168 18.4599 8.64588 18.3623C8.55827 18.2627 8.5 18.1152 8.5 17.95V6.05C8.5 5.88482 8.55827 5.73733 8.64588 5.63767Z" ></path>
    <path fill-rule="evenodd" clip-rule="evenodd" d="M10.5 17C10.5 16.7239 10.7239 16.5 11 16.5H13C13.2761 16.5 13.5 16.7239 13.5 17C13.5 17.2761 13.2761 17.5 13 17.5H11C10.7239 17.5 10.5 17.2761 10.5 17Z" ></path>
  </symbol>
  <symbol  xmlns="http://www.w3.org/2000/svg" viewBox="0 0 24 24" id="star">
    <path fill-rule="evenodd" clip-rule="evenodd" d="M11.3616 2.10478C11.4983 1.88419 11.7394 1.75 11.999 1.75H12C12.2589 1.75 12.4994 1.88351 12.6364 2.10318C12.6559 2.13443 12.6729 2.16679 12.6874 2.19998L15.5931 8.05357L22.1082 9.00385C22.3903 9.045 22.6247 9.24254 22.7131 9.5136C22.8014 9.78467 22.7284 10.0824 22.5247 10.2819L17.7867 14.9217L18.9128 21.371C18.9621 21.6534 18.8462 21.9391 18.614 22.1073C18.3819 22.2755 18.0743 22.2967 17.8213 22.1619L12 19.0598L6.1787 22.1619C5.92556 22.2968 5.61766 22.2755 5.3855 22.107C5.15335 21.9386 5.03761 21.6524 5.08735 21.3699L6.22272 14.9217L1.47577 10.2824C1.27171 10.0829 1.19849 9.78498 1.28688 9.51368C1.37527 9.24238 1.60994 9.04473 1.89232 9.00377L8.4427 8.05358L11.3101 2.20348C11.3247 2.16963 11.3418 2.13663 11.3616 2.10478ZM12.0038 4.19641L9.61545 9.06909C9.50646 9.29145 9.29473 9.44568 9.04966 9.48123L3.60955 10.2704L7.55421 14.1256C7.73133 14.2987 7.81158 14.5481 7.76863 14.7921L6.83151 20.1143L11.6473 17.5481C11.8677 17.4306 12.1322 17.4306 12.3527 17.5481L17.1709 20.1156L16.2412 14.791C16.1987 14.5477 16.2787 14.299 16.4552 14.1261L20.3934 10.2696L14.9877 9.48115C14.7442 9.44563 14.5336 9.2929 14.4242 9.07247L12.0038 4.19641Z" ></path>
  </symbol>
  <symbol  xmlns="http://www.w3.org/2000/svg" viewBox="0 0 24 24" id="time">
    <path fill-rule="evenodd" clip-rule="evenodd" d="M3.25 12C3.25 7.16739 7.16739 3.25 12 3.25C16.8326 3.25 20.75 7.16739 20.75 12C20.75 16.8326 16.8326 20.75 12 20.75C7.16739 20.75 3.25 16.8326 3.25 12ZM12 4.75C7.99581 4.75 4.75 7.99581 4.75 12C4.75 16.0042 7.99581 19.25 12 19.25C16.0042 19.25 19.25 16.0042 19.25 12C19.25 7.99581 16.0042 4.75 12 4.75Z" ></path>
    <path fill-rule="evenodd" clip-rule="evenodd" d="M12 7.25C12.4142 7.25 12.75 7.58579 12.75 8V11.7844L15.521 14.4605C15.819 14.7483 15.8272 15.2231 15.5395 15.521C15.2517 15.819 14.7769 15.8272 14.479 15.5395L11.479 12.6422C11.3326 12.5008 11.25 12.3061 11.25 12.1027V8C11.25 7.58579 11.5858 7.25 12 7.25Z" ></path>
  </symbol>
  <symbol  xmlns="http://www.w3.org/2000/svg" viewBox="0 0 24 24" id="user">
    <path fill-rule="evenodd" clip-rule="evenodd" d="M8.64124 2.64124C9.53204 1.75045 10.7402 1.25 12 1.25C13.2598 1.25 14.468 1.75045 15.3588 2.64124C16.2496 3.53204 16.75 4.74022 16.75 6C16.75 7.25978 16.2496 8.46796 15.3588 9.35876C14.468 10.2496 13.2598 10.75 12 10.75C10.7402 10.75 9.53204 10.2496 8.64124 9.35876C7.75044 8.46796 7.25 7.25978 7.25 6C7.25 4.74022 7.75044 3.53204 8.64124 2.64124ZM12 2.75C11.138 2.75 10.3114 3.09241 9.7019 3.7019C9.09241 4.3114 8.75 5.13805 8.75 6C8.75 6.86195 9.09241 7.6886 9.7019 8.2981C10.3114 8.90759 11.138 9.25 12 9.25C12.862 9.25 13.6886 8.90759 14.2981 8.2981C14.9076 7.6886 15.25 6.86195 15.25 6C15.25 5.13805 14.9076 4.3114 14.2981 3.7019C13.6886 3.09241 12.862 2.75 12 2.75Z" ></path>
    <path fill-rule="evenodd" clip-rule="evenodd" d="M8.26884 12.9922C9.45177 12.5022 10.7196 12.25 12 12.25C13.2804 12.25 14.5482 12.5022 15.7312 12.9922C16.9141 13.4822 17.9889 14.2003 18.8943 15.1057C19.7997 16.0111 20.5179 17.0859 21.0078 18.2688C21.3161 19.0131 21.2979 19.9392 21.0316 20.7373C20.7633 21.5413 20.1959 22.3476 19.2666 22.701C19.1814 22.7334 19.0911 22.75 19 22.75H5C4.91939 22.75 4.83931 22.737 4.76283 22.7115C3.73042 22.3674 3.14274 21.5546 2.89181 20.7146C2.64657 19.8936 2.69759 18.98 2.99218 18.2688C3.48216 17.0859 4.20034 16.0111 5.10571 15.1057C6.01109 14.2003 7.08592 13.4822 8.26884 12.9922ZM12 13.75C10.9166 13.75 9.8438 13.9634 8.84287 14.378C7.84193 14.7926 6.93246 15.4003 6.16637 16.1664C5.40029 16.9325 4.7926 17.8419 4.378 18.8429C4.2203 19.2236 4.17877 19.7821 4.32906 20.2852C4.46283 20.733 4.72609 21.0775 5.13496 21.25H18.8438C19.1791 21.0791 19.452 20.7321 19.6087 20.2625C19.7842 19.7365 19.766 19.1905 19.622 18.8429C19.2074 17.8419 18.5997 16.9325 17.8336 16.1664C17.0676 15.4003 16.1581 14.7926 15.1571 14.378C14.1562 13.9634 13.0834 13.75 12 13.75Z" ></path>
  </symbol>
  <symbol  xmlns="http://www.w3.org/2000/svg" viewBox="0 0 24 24" id="width">
    <path fill-rule="evenodd" clip-rule="evenodd" d="M16.4744 8.46947C16.7674 8.17669 17.2422 8.17687 17.535 8.46987L20.5305 11.4676C20.6771 11.6143 20.7503 11.8067 20.75 11.999C20.75 11.9993 20.75 11.9997 20.75 12C20.75 12.2246 20.6513 12.4262 20.4948 12.5636L17.5305 15.5301C17.2377 15.8231 16.7629 15.8233 16.4699 15.5305C16.1769 15.2377 16.1767 14.7629 16.4695 14.4699L18.1881 12.75H5.80745L7.52603 14.4699C7.81881 14.7629 7.81863 15.2377 7.52563 15.5305C7.23263 15.8233 6.75775 15.8231 6.46497 15.5301L3.46947 12.5324C3.32287 12.3857 3.24972 12.1934 3.25 12.0011C3.25 12.0008 3.25 12.0004 3.25 12C3.25 11.7754 3.34875 11.5738 3.50521 11.4364L6.46947 8.46987C6.76225 8.17687 7.23713 8.17669 7.53013 8.46947C7.82313 8.76225 7.82331 9.23713 7.53053 9.53013L5.81195 11.25H18.1925L16.474 9.53013C16.1812 9.23713 16.1814 8.76225 16.4744 8.46947Z" ></path>
  </symbol>
  <symbol  xmlns="http://www.w3.org/2000/svg" viewBox="0 0 24 24" id="burger">
    <path fill-rule="evenodd" clip-rule="evenodd" d="M3 6C3 5.44772 3.44772 5 4 5H20C20.5523 5 21 5.44772 21 6C21 6.55228 20.5523 7 20 7H4C3.44772 7 3 6.55228 3 6Z" ></path>
    <path fill-rule="evenodd" clip-rule="evenodd" d="M3 12C3 11.4477 3.44772 11 4 11H20C20.5523 11 21 11.4477 21 12C21 12.5523 20.5523 13 20 13H4C3.44772 13 3 12.5523 3 12Z" ></path>
    <path fill-rule="evenodd" clip-rule="evenodd" d="M3 18C3 17.4477 3.44772 17 4 17H20C20.5523 17 21 17.4477 21 18C21 18.5523 20.5523 19 20 19H4C3.44772 19 3 18.5523 3 18Z" ></path>
  </symbol>
  <symbol  xmlns="http://www.w3.org/2000/svg" viewBox="0 0 24 24" id="cart">
    <path fill-rule="evenodd" clip-rule="evenodd" d="M4.90901 17.909C5.33097 17.4871 5.90326 17.25 6.5 17.25C7.09674 17.25 7.66903 17.4871 8.09099 17.909C8.51295 18.331 8.75 18.9033 8.75 19.5C8.75 20.0967 8.51295 20.669 8.09099 21.091C7.66903 21.5129 7.09674 21.75 6.5 21.75C5.90326 21.75 5.33097 21.5129 4.90901 21.091C4.48705 20.669 4.25 20.0967 4.25 19.5C4.25 18.9033 4.48705 18.331 4.90901 17.909ZM6.5 20.25C6.69891 20.25 6.88968 20.171 7.03033 20.0303C7.17098 19.8897 7.25 19.6989 7.25 19.5C7.25 19.3011 7.17098 19.1103 7.03033 18.9697C6.88968 18.829 6.69891 18.75 6.5 18.75C6.30109 18.75 6.11032 18.829 5.96967 18.9697C5.82902 19.1103 5.75 19.3011 5.75 19.5C5.75 19.6989 5.82902 19.8897 5.96967 20.0303C6.11032 20.171 6.30109 20.25 6.5 20.25Z" ></path>
    <path fill-rule="evenodd" clip-rule="evenodd" d="M17.909 17.909C18.331 17.4871 18.9033 17.25 19.5 17.25C20.0967 17.25 20.669 17.4871 21.091 17.909C21.5129 18.331 21.75 18.9033 21.75 19.5C21.75 20.0967 21.5129 20.669 21.091 21.091C20.669 21.5129 20.0967 21.75 19.5 21.75C18.9033 21.75 18.331 21.5129 17.909 21.091C17.4871 20.669 17.25 20.0967 17.25 19.5C17.25 18.9033 17.4871 18.331 17.909 17.909ZM19.5 18.75C19.3011 18.75 19.1103 18.829 18.9697 18.9697C18.829 19.1103 18.75 19.3011 18.75 19.5C18.75 19.6989 18.829 19.8897 18.9697 20.0303C19.1103 20.171 19.3011 20.25 19.5 20.25C19.6989 20.25 19.8897 20.171 20.0303 20.0303C20.171 19.8897 20.25 19.6989 20.25 19.5C20.25 19.3011 20.171 19.1103 20.0303 18.9697C19.8897 18.829 19.6989 18.75 19.5 18.75Z" ></path>
    <path fill-rule="evenodd" clip-rule="evenodd" d="M10.25 11C10.25 10.5858 10.5858 10.25 11 10.25H15C15.4142 10.25 15.75 10.5858 15.75 11C15.75 11.4142 15.4142 11.75 15 11.75H11C10.5858 11.75 10.25 11.4142 10.25 11Z" ></path>
    <path fill-rule="evenodd" clip-rule="evenodd" d="M1.5 2.25C1.08579 2.25 0.75 2.58579 0.75 3C0.75 3.41421 1.08579 3.75 1.5 3.75H2.66442L3.27239 6.1819L3.27316 6.18496L5.7724 16.1819C5.85587 16.5158 6.15586 16.75 6.50001 16.75H19.5C19.8442 16.75 20.1441 16.5158 20.2276 16.1819L22.7276 6.1819C22.7836 5.95785 22.7333 5.72048 22.5912 5.53844C22.449 5.3564 22.231 5.25 22 5.25H4.58558L3.97761 2.8181C3.89414 2.48422 3.59415 2.25 3.25 2.25H1.5ZM7.08559 15.25L4.96059 6.75H21.0394L18.9144 15.25H7.08559Z" ></path>
  </symbol>
  <symbol  xmlns="http://www.w3.org/2000/svg" viewBox="0 0 24 24" id="category">
    <path fill-rule="evenodd" clip-rule="evenodd" d="M3.54394 3.54394C3.89223 3.19566 4.3646 3 4.85714 3H9.14286C9.6354 3 10.1078 3.19566 10.4561 3.54394C10.8043 3.89223 11 4.3646 11 4.85714V9.14286C11 9.6354 10.8043 10.1078 10.4561 10.4561C10.1078 10.8043 9.6354 11 9.14286 11H4.85714C4.3646 11 3.89223 10.8043 3.54394 10.4561C3.19566 10.1078 3 9.6354 3 9.14286V4.85714C3 4.3646 3.19566 3.89223 3.54394 3.54394ZM5 5V9H9V5H5Z" ></path>
    <path fill-rule="evenodd" clip-rule="evenodd" d="M3.54394 13.5439C3.89223 13.1957 4.3646 13 4.85714 13H9.14286C9.6354 13 10.1078 13.1957 10.4561 13.5439C10.8043 13.8922 11 14.3646 11 14.8571V19.1429C11 19.6354 10.8043 20.1078 10.4561 20.4561C10.1078 20.8043 9.6354 21 9.14286 21H4.85714C4.3646 21 3.89223 20.8043 3.54394 20.4561C3.19566 20.1078 3 19.6354 3 19.1429V14.8571C3 14.3646 3.19566 13.8922 3.54394 13.5439ZM5 15V19H9V15H5Z" ></path>
    <path fill-rule="evenodd" clip-rule="evenodd" d="M13.5439 3.54394C13.8922 3.19566 14.3646 3 14.8571 3H19.1429C19.6354 3 20.1078 3.19566 20.4561 3.54394C20.8043 3.89223 21 4.3646 21 4.85714V9.14286C21 9.6354 20.8043 10.1078 20.4561 10.4561C20.1078 10.8043 19.6354 11 19.1429 11H14.8571C14.3646 11 13.8922 10.8043 13.5439 10.4561C13.1957 10.1078 13 9.6354 13 9.14286V4.85714C13 4.3646 13.1957 3.89223 13.5439 3.54394ZM15 5V9H19V5H15Z" ></path>
    <path fill-rule="evenodd" clip-rule="evenodd" d="M13.5439 13.5439C13.8922 13.1957 14.3646 13 14.8571 13H19.1429C19.6354 13 20.1078 13.1957 20.4561 13.5439C20.8043 13.8922 21 14.3646 21 14.8571V19.1429C21 19.6354 20.8043 20.1078 20.4561 20.4561C20.1078 20.8043 19.6354 21 19.1429 21H14.8571C14.3646 21 13.8922 20.8043 13.5439 20.4561C13.1957 20.1078 13 19.6354 13 19.1429V14.8571C13 14.3646 13.1957 13.8922 13.5439 13.5439ZM15 15V19H19V15H15Z" ></path>
  </symbol>
  <symbol  xmlns="http://www.w3.org/2000/svg" viewBox="0 0 24 24" id="chevron-left">
    <path fill-rule="evenodd" clip-rule="evenodd" d="M15.7073 18.7072C15.3167 19.0977 14.6836 19.0977 14.293 18.7072L8.29305 12.7072C7.90252 12.3166 7.90252 11.6835 8.29305 11.293L14.293 5.29295C14.6836 4.90243 15.3167 4.90243 15.7073 5.29295C16.0978 5.68348 16.0978 6.31664 15.7073 6.70717L10.4144 12.0001L15.7073 17.293C16.0978 17.6835 16.0978 18.3166 15.7073 18.7072Z" ></path>
  </symbol>
  <symbol  xmlns="http://www.w3.org/2000/svg" viewBox="0 0 24 24" id="chevron-right">
    <path fill-rule="evenodd" clip-rule="evenodd" d="M8.29289 5.29289C8.68342 4.90237 9.31658 4.90237 9.70711 5.29289L15.7071 11.2929C16.0976 11.6834 16.0976 12.3166 15.7071 12.7071L9.70711 18.7071C9.31658 19.0976 8.68342 19.0976 8.29289 18.7071C7.90237 18.3166 7.90237 17.6834 8.29289 17.2929L13.5858 12L8.29289 6.70711C7.90237 6.31658 7.90237 5.68342 8.29289 5.29289Z" ></path>
  </symbol>
  <symbol  xmlns="http://www.w3.org/2000/svg" viewBox="0 0 24 24" id="close">
    <path fill-rule="evenodd" clip-rule="evenodd" d="M7.53033 6.46967C7.23744 6.17678 6.76256 6.17678 6.46967 6.46967C6.17678 6.76256 6.17678 7.23744 6.46967 7.53033L10.9393 12L6.46967 16.4697C6.17678 16.7626 6.17678 17.2374 6.46967 17.5303C6.76256 17.8232 7.23744 17.8232 7.53033 17.5303L12 13.0607L16.4697 17.5303C16.7626 17.8232 17.2374 17.8232 17.5303 17.5303C17.8232 17.2374 17.8232 16.7626 17.5303 16.4697L13.0607 12L17.5303 7.53033C17.8232 7.23744 17.8232 6.76256 17.5303 6.46967C17.2374 6.17678 16.7626 6.17678 16.4697 6.46967L12 10.9393L7.53033 6.46967Z" ></path>
  </symbol>
  <symbol  xmlns="http://www.w3.org/2000/svg" viewBox="0 0 24 24" id="comment">
    <path fill-rule="evenodd" clip-rule="evenodd" d="M20.5 8C20.5 7.72386 20.2761 7.5 20 7.5H4C3.72386 7.5 3.5 7.72386 3.5 8V14.619C3.5 14.8952 3.72386 15.119 4 15.119H13.017L16.8772 18.3819C17.0259 18.5075 17.2339 18.5355 17.4105 18.4535C17.587 18.3716 17.7 18.1946 17.7 18V15.119H20C20.2761 15.119 20.5 14.8952 20.5 14.619V8ZM19.5 8.5V14.119H17.2C16.9239 14.119 16.7 14.3429 16.7 14.619V16.9227L13.5228 14.2372C13.4325 14.1609 13.3182 14.119 13.2 14.119H4.5V8.5H19.5Z" ></path>
  </symbol>
  <symbol  xmlns="http://www.w3.org/2000/svg" viewBox="0 0 24 24" id="constructor">
    <path fill-rule="evenodd" clip-rule="evenodd" d="M13.3183 7.28242C11.6929 8.76303 10.2779 10.446 9.53028 11.4304C9.38839 11.3902 9.2442 11.3566 9.09821 11.3297C8.23134 11.1698 7.33226 11.2514 6.5126 11.5663C5.69267 11.8813 4.98291 12.418 4.47923 13.1171C3.97496 13.8169 3.70166 14.6463 3.70166 15.5C3.70166 16.5528 3.38853 17.2903 3.09252 17.7569C2.94302 17.9926 2.79584 18.1622 2.69129 18.2688C2.63911 18.3221 2.59795 18.3592 2.57303 18.3807C2.56059 18.3914 2.55226 18.3981 2.54872 18.401L2.5475 18.4019C2.29179 18.5954 2.18715 18.9304 2.28792 19.2353C2.38943 19.5425 2.67651 19.75 3.00005 19.75H8.22585C9.10861 19.75 9.97565 19.5075 10.7177 19.0477C11.4603 18.5876 12.048 17.9279 12.3975 17.1453C12.7475 16.3618 12.8402 15.4959 12.6608 14.6599C12.6451 14.5865 12.6273 14.5137 12.6076 14.4415C13.5967 13.6868 15.2561 12.2868 16.718 10.6817C17.5048 9.81787 18.251 8.87666 18.8043 7.92952C19.3511 6.99366 19.75 5.98402 19.75 5C19.75 4.58579 19.4143 4.25 19 4.25C18.016 4.25 17.0063 4.64899 16.0705 5.19584C15.1233 5.74927 14.1821 6.49554 13.3183 7.28242ZM11.9417 10.8505C11.5425 11.309 11.1957 11.7322 10.9197 12.085C11.09 12.2035 11.2521 12.3338 11.4046 12.4752C11.6005 12.6569 11.7779 12.8546 11.9348 13.0655C12.2836 12.792 12.6996 12.4507 13.1498 12.0587C12.8234 11.5863 12.4141 11.1769 11.9417 10.8505ZM12.9589 9.73404C13.457 10.1027 13.8976 10.5433 14.2662 11.0415C14.7159 10.6123 15.1724 10.1511 15.6091 9.67165C16.3555 8.85208 17.0276 7.99711 17.5092 7.17284C17.7737 6.7201 17.9691 6.29629 18.0926 5.90749C17.7038 6.031 17.28 6.22641 16.8272 6.49095C16.003 6.97259 15.148 7.64476 14.3284 8.39132C13.8491 8.82798 13.388 9.28443 12.9589 9.73404ZM8.82611 12.8048C8.22875 12.6946 7.61009 12.7516 7.05047 12.9665C6.49111 13.1814 6.02197 13.5418 5.69623 13.9939C5.37107 14.4452 5.20166 14.9693 5.20166 15.5C5.20166 16.6748 4.8983 17.5867 4.54087 18.25H8.22585C8.83603 18.25 9.4284 18.082 9.92765 17.7726C10.4264 17.4635 10.8062 17.03 11.028 16.5335C11.2493 16.0379 11.3061 15.4963 11.1942 14.9745C11.0821 14.452 10.8039 13.9638 10.3846 13.5751C9.96482 13.1857 9.42336 12.915 8.82611 12.8048Z" ></path>
    <path d="M11.6414 7.46967L8.64144 4.46967C8.34855 4.17678 7.87367 4.17678 7.58078 4.46967L4.46967 7.58078C4.17678 7.87367 4.17678 8.34855 4.46967 8.64144L6.43605 10.6078C7.04248 10.4189 7.67822 10.3365 8.31207 10.3625L6.06066 8.11111L8.11111 6.06066L8.9949 6.94444L8.46967 7.46967C8.17678 7.76256 8.17678 8.23744 8.46967 8.53033C8.76256 8.82322 9.23744 8.82322 9.53033 8.53033L10.0556 8.00511L10.6062 8.55574C10.9303 8.20051 11.2773 7.83463 11.6414 7.46967Z" ></path>
    <path d="M13.804 15.8545L15.8889 17.9393L17.9393 15.8889L17.0556 15.0051L16.5303 15.5303C16.2374 15.8232 15.7626 15.8232 15.4697 15.5303C15.1768 15.2374 15.1768 14.7626 15.4697 14.4697L15.9949 13.9444L15.4443 13.3939C15.7995 13.0698 16.1654 12.7227 16.5303 12.3586L19.5303 15.3586C19.8232 15.6515 19.8232 16.1263 19.5303 16.4192L16.4192 19.5303C16.1263 19.8232 15.6515 19.8232 15.3586 19.5303L13.4456 17.6174C13.6767 17.0539 13.7976 16.4564 13.804 15.8545Z" ></path>
  </symbol>
  <symbol  xmlns="http://www.w3.org/2000/svg" viewBox="0 0 24 24" id="copy link">
    <path fill-rule="evenodd" clip-rule="evenodd" d="M6.96967 2.96967C7.11032 2.82902 7.30109 2.75 7.5 2.75H20.5C20.6989 2.75 20.8897 2.82902 21.0303 2.96967C21.171 3.11032 21.25 3.30109 21.25 3.5V16.5C21.25 16.6989 21.171 16.8897 21.0303 17.0303C20.8897 17.171 20.6989 17.25 20.5 17.25H19.75V6.5C19.75 5.90326 19.5129 5.33097 19.091 4.90901C18.669 4.48705 18.0967 4.25 17.5 4.25H6.75V3.5C6.75 3.30109 6.82902 3.11032 6.96967 2.96967ZM5.25 4.25V3.5C5.25 2.90326 5.48705 2.33097 5.90901 1.90901C6.33097 1.48705 6.90326 1.25 7.5 1.25H20.5C21.0967 1.25 21.669 1.48705 22.091 1.90901C22.5129 2.33097 22.75 2.90326 22.75 3.5V16.5C22.75 17.0967 22.5129 17.669 22.091 18.091C21.669 18.5129 21.0967 18.75 20.5 18.75H19.75V20.5C19.75 21.0967 19.5129 21.669 19.091 22.091C18.669 22.5129 18.0967 22.75 17.5 22.75H3.5C2.90326 22.75 2.33097 22.5129 1.90901 22.091C1.48705 21.669 1.25 21.0967 1.25 20.5V6.5C1.25 5.90326 1.48705 5.33097 1.90901 4.90901C2.33097 4.48705 2.90326 4.25 3.5 4.25H5.25ZM2.96967 5.96967C3.11032 5.82902 3.30109 5.75 3.5 5.75H17.5C17.6989 5.75 17.8897 5.82902 18.0303 5.96967C18.171 6.11032 18.25 6.30109 18.25 6.5V20.5C18.25 20.6989 18.171 20.8897 18.0303 21.0303C17.8897 21.171 17.6989 21.25 17.5 21.25H3.5C3.30109 21.25 3.11032 21.171 2.96967 21.0303C2.82902 20.8897 2.75 20.6989 2.75 20.5V6.5C2.75 6.30109 2.82902 6.11032 2.96967 5.96967ZM12.401 9.32573L9.93445 11.8939C9.90465 11.9421 9.86889 11.9876 9.82716 12.0295C9.71761 12.1394 9.63296 12.2715 9.57893 12.417C9.52491 12.5625 9.50277 12.7178 9.51402 12.8726L9.5142 12.875C9.53405 13.1609 9.65711 13.4299 9.86047 13.6318C10.1544 13.9237 10.156 14.3986 9.86417 14.6925C9.5723 14.9864 9.09743 14.988 8.80352 14.6962C8.34238 14.2382 8.06321 13.6285 8.01788 12.9802C7.99125 12.6115 8.04407 12.2413 8.17278 11.8948C8.26444 11.648 8.39305 11.4173 8.5537 11.2103C8.58607 11.1478 8.62785 11.0888 8.67908 11.0355L11.3251 8.2805L11.3357 8.26969C12.3677 7.23766 14.0357 7.2801 15.0603 8.30469C16.0829 9.3273 16.1284 10.9893 15.1045 12.0222L14.1562 13.026C13.8718 13.3271 13.3971 13.3407 13.096 13.0562C12.7949 12.7718 12.7814 12.2971 13.0658 11.996L14.0208 10.985L14.0272 10.9783L14.0357 10.9697C14.4554 10.55 14.4663 9.83202 13.9997 9.36535C13.536 8.90165 12.8216 8.91031 12.401 9.32573ZM7.26333 14.9033C7.55622 14.6104 7.55622 14.1355 7.26333 13.8427C6.97043 13.5498 6.49556 13.5498 6.20267 13.8427C6.0793 13.966 5.88699 14.1539 5.72298 14.3134C5.64151 14.3927 5.56793 14.464 5.51472 14.5156L5.42886 14.5985L5.4193 14.608C4.40703 15.6217 4.37702 17.3907 5.42002 18.4337C6.44073 19.453 8.09817 19.5001 9.1314 18.4821L11.6967 16.1533C11.7032 16.1475 11.7097 16.1414 11.7161 16.1353C11.7211 16.1306 11.7259 16.1258 11.7307 16.1209C12.7593 15.0886 12.7158 13.4228 11.691 12.3993C11.3979 12.1066 10.923 12.1069 10.6303 12.4C10.3376 12.6931 10.3379 13.168 10.631 13.4607C11.0929 13.922 11.0867 14.6311 10.6777 15.0524L8.11088 17.3827C8.10194 17.3908 8.0932 17.3991 8.08467 17.4077C7.66493 17.8274 6.94686 17.8384 6.48015 17.3725C6.03472 16.9268 6.04353 16.1108 6.47719 15.6715L6.55824 15.5931C6.612 15.541 6.68636 15.4689 6.76877 15.3888C6.9325 15.2295 7.13169 15.035 7.26333 14.9033Z" ></path>
  </symbol>
  <symbol  xmlns="http://www.w3.org/2000/svg" viewBox="0 0 24 24" id="copy">
    <path fill-rule="evenodd" clip-rule="evenodd" d="M8.75 6.03107C8.75 5.87621 8.87621 5.75 9.03107 5.75H17.9689C18.1238 5.75 18.25 5.87621 18.25 6.03107V14.9689C18.25 15.1238 18.1238 15.25 17.9689 15.25H16.75V9.03107C16.75 8.04779 15.9522 7.25 14.9689 7.25H8.75V6.03107ZM7.25 7.25V6.03107C7.25 5.04779 8.04779 4.25 9.03107 4.25H17.9689C18.9522 4.25 19.75 5.04779 19.75 6.03107V14.9689C19.75 15.9522 18.9522 16.75 17.9689 16.75H16.75V17.9689C16.75 18.9522 15.9522 19.75 14.9689 19.75H6.03107C5.04779 19.75 4.25 18.9522 4.25 17.9689V9.03107C4.25 8.04779 5.04779 7.25 6.03107 7.25H7.25ZM5.75 9.03107C5.75 8.87621 5.87621 8.75 6.03107 8.75H14.9689C15.1238 8.75 15.25 8.87621 15.25 9.03107V17.9689C15.25 18.1238 15.1238 18.25 14.9689 18.25H6.03107C5.87621 18.25 5.75 18.1238 5.75 17.9689V9.03107Z" ></path>
  </symbol>
  <symbol  xmlns="http://www.w3.org/2000/svg" viewBox="0 0 24 24" id="edit">
    <path fill-rule="evenodd" clip-rule="evenodd" d="M15.661 4.46982C15.5204 4.32905 15.3295 4.24997 15.1305 4.25C14.9314 4.25003 14.7406 4.32917 14.5999 4.46998L6.46936 12.61C6.3289 12.7506 6.25 12.9412 6.25 13.14V16C6.25 16.4142 6.58579 16.75 7 16.75H9.87493C10.0739 16.75 10.2647 16.6709 10.4054 16.5302L18.5305 8.4012C18.8232 8.10834 18.8232 7.63368 18.5305 7.34081L15.661 4.46982ZM7.75 13.4504L15.1307 6.06111L16.9396 7.87098L9.56416 15.25H7.75V13.4504ZM5 19.25C4.58579 19.25 4.25 19.5858 4.25 20C4.25 20.4142 4.58579 20.75 5 20.75H20C20.4142 20.75 20.75 20.4142 20.75 20C20.75 19.5858 20.4142 19.25 20 19.25H5Z" ></path>
  </symbol>
  <symbol  xmlns="http://www.w3.org/2000/svg" viewBox="0 0 24 24" id="filter">
    <path fill-rule="evenodd" clip-rule="evenodd" d="M3.50189 2.05887C3.61033 2.01992 3.7247 2 3.83993 2H20.1601C20.2753 2 20.3897 2.01992 20.4981 2.05887C20.8254 2.17642 21.1199 2.36838 21.3601 2.61819C21.6001 2.8679 21.7796 3.16885 21.8865 3.49719C21.9933 3.82547 22.0252 4.17374 21.9802 4.5158C21.9351 4.85789 21.814 5.1863 21.6248 5.47576C21.598 5.51678 21.5682 5.55577 21.5356 5.59242L15.5108 12.3798V21C15.5108 21.3561 15.3214 21.6854 15.0135 21.8644C14.7057 22.0435 14.3258 22.0453 14.0163 21.8692L8.99468 19.012C8.6822 18.8342 8.48921 18.5024 8.48921 18.1429V12.3798L2.46436 5.59242C2.43183 5.55577 2.40204 5.51678 2.37522 5.47576C2.18598 5.1863 2.06491 4.85788 2.01984 4.5158C1.97478 4.17375 2.00667 3.82547 2.11352 3.49719C2.22039 3.16885 2.39985 2.86791 2.63992 2.61819C2.88007 2.36838 3.17461 2.17642 3.50189 2.05887ZM4.08591 4C4.0845 4.0014 4.08311 4.00282 4.08172 4.00426C4.05294 4.0342 4.02963 4.07221 4.01532 4.11618C4.001 4.1602 3.99653 4.2077 4.00271 4.25457C4.00667 4.28462 4.01484 4.31322 4.02651 4.33954L10.2371 11.3362C10.3995 11.5191 10.4892 11.7553 10.4892 12V17.5613L13.5108 19.2805V12C13.5108 11.7553 13.6005 11.5191 13.7629 11.3362L19.9735 4.33955C19.9852 4.31322 19.9933 4.28462 19.9973 4.25457C20.0035 4.20771 19.999 4.16021 19.9847 4.11618C19.9704 4.07221 19.9471 4.0342 19.9183 4.00426C19.9169 4.00282 19.9155 4.0014 19.9141 4H4.08591Z" ></path>
  </symbol>
  <symbol  xmlns="http://www.w3.org/2000/svg" viewBox="0 0 24 24" id="heart small">
    <path fill-rule="evenodd" clip-rule="evenodd" d="M7.06173 5.57769C7.60928 5.36109 8.19515 5.25 8.78605 5.25C9.37694 5.25 9.96282 5.36109 10.5104 5.57769C11.058 5.79431 11.5576 6.11268 11.9797 6.51623L11.9823 6.51868L12 6.53582L12.0203 6.51623C12.4424 6.11268 12.9421 5.79431 13.4897 5.57769C14.0372 5.36109 14.6231 5.25 15.214 5.25C15.8049 5.25 16.3907 5.36109 16.9383 5.57769C17.4856 5.7942 17.985 6.11234 18.4069 6.51557C20.2286 8.25136 20.2594 11.129 18.1179 13.2073L18.1129 13.2122L12.5173 18.543C12.2277 18.819 11.7724 18.819 11.4827 18.543L5.88206 13.2073C3.74072 11.1291 3.77138 8.2516 5.59285 6.51579C6.01487 6.11245 6.51433 5.79423 7.06173 5.57769ZM8.78605 6.75C8.38273 6.75 7.98416 6.82589 7.61351 6.97252C7.2429 7.11913 6.90861 7.3331 6.62893 7.60047L6.62799 7.60137C5.48486 8.69043 5.33341 10.5824 6.92435 12.1286L12 16.9641L17.0756 12.1286C18.6666 10.5824 18.5152 8.69043 17.372 7.60137L17.3711 7.60047C17.0914 7.3331 16.7571 7.11913 16.3865 6.97252C16.0159 6.82589 15.6173 6.75 15.214 6.75C14.8107 6.75 14.4121 6.82589 14.0414 6.97252C13.6713 7.11892 13.3375 7.33249 13.058 7.59934C13.0576 7.59972 13.0573 7.6001 13.0569 7.60047L12.5208 8.11779C12.2302 8.39822 11.7698 8.39822 11.4792 8.11779L10.9419 7.5993C10.6625 7.33247 10.3287 7.11891 9.95859 6.97252C9.58793 6.82589 9.18937 6.75 8.78605 6.75Z" ></path>
  </symbol>
  <symbol  xmlns="http://www.w3.org/2000/svg" viewBox="0 0 24 24" id="heart">
    <path fill-rule="evenodd" clip-rule="evenodd" d="M5.62594 3.44163C6.33687 3.14998 7.09867 3 7.86775 3C8.63683 3 9.39863 3.14998 10.1096 3.44163C10.8155 3.73123 11.4578 4.155 12 4.68952C12.5422 4.155 13.1845 3.73123 13.8904 3.44163C14.6013 3.14998 15.3631 3 16.1322 3C16.9013 3 17.6631 3.14998 18.374 3.44163C19.0844 3.73307 19.7305 4.16042 20.2748 4.69977C22.6135 7.01032 22.6555 10.8273 19.9037 13.597L19.8971 13.6035L12.7028 20.7114C12.3133 21.0962 11.6867 21.0962 11.2972 20.7114L4.09625 13.597C1.34463 10.8275 1.38648 7.01099 3.72454 4.70037C4.26901 4.16074 4.91526 3.73318 5.62594 3.44163ZM13.3981 6.11971C13.3975 6.12024 13.397 6.12076 13.3965 6.12129L12.7074 6.81097C12.5198 6.99868 12.2653 7.10415 12 7.10415C11.7346 7.10415 11.4802 6.99868 11.2926 6.81097L10.6035 6.12129C10.6029 6.12076 10.6024 6.12024 10.6019 6.11971C10.2445 5.76582 9.81938 5.48434 9.35047 5.29198C8.88085 5.09932 8.37694 5 7.86775 5C7.35855 5 6.85464 5.09932 6.38502 5.29198C5.91543 5.48463 5.48973 5.76665 5.13202 6.12129L5.13078 6.12251C3.65721 7.57837 3.46491 10.1211 5.51192 12.1842L12 18.5943L18.488 12.1842C20.5351 10.1211 20.3428 7.57837 18.8692 6.12251L18.868 6.12129C18.5102 5.76665 18.0845 5.48463 17.6149 5.29198C17.1453 5.09932 16.6414 5 16.1322 5C15.623 5 15.1191 5.09932 14.6495 5.29198C14.1806 5.48434 13.7555 5.76582 13.3981 6.11971Z" ></path>
  </symbol>
  <symbol  xmlns="http://www.w3.org/2000/svg" viewBox="0 0 24 24" id="height">
    <path fill-rule="evenodd" clip-rule="evenodd" d="M12.5618 3.50313C12.4244 3.34788 12.2236 3.25 12 3.25C11.9997 3.25 11.9993 3.25 11.999 3.25C11.8068 3.24975 11.6146 3.32288 11.4679 3.4694L8.46994 6.4644C8.1769 6.75715 8.17666 7.23202 8.4694 7.52506C8.76215 7.8181 9.23702 7.81834 9.53006 7.5256L11.25 5.80738V18.1882L9.53015 16.4695C9.23716 16.1767 8.76229 16.1769 8.46949 16.4698C8.1767 16.7628 8.17686 17.2377 8.46985 17.5305L11.4382 20.4969C11.5756 20.6521 11.7764 20.75 12 20.75C12.0003 20.75 12.0007 20.75 12.001 20.75C12.1932 20.7503 12.3854 20.6771 12.5321 20.5306L15.5301 17.5356C15.8231 17.2428 15.8233 16.768 15.5306 16.4749C15.2378 16.1819 14.763 16.1817 14.4699 16.4744L12.75 18.1926V5.81181L14.4698 7.53051C14.7628 7.8233 15.2377 7.82314 15.5305 7.53015C15.8233 7.23716 15.8231 6.76229 15.5302 6.46949L12.5618 3.50313Z" ></path>
  </symbol>
  <symbol  xmlns="http://www.w3.org/2000/svg" viewBox="0 0 24 24" id="s-star">
    <path fill-rule="evenodd" clip-rule="evenodd" d="M12 4.5C12.1886 4.5 12.3612 4.60611 12.4462 4.77442L14.4917 8.82049L19.0707 9.474C19.2604 9.50107 19.418 9.63423 19.4763 9.8168C19.5346 9.99936 19.4835 10.1992 19.3446 10.3313L16.0389 13.4751L16.8185 17.9135C16.8513 18.1004 16.7755 18.2899 16.6227 18.4025C16.4699 18.5151 16.2665 18.5315 16.0976 18.4448L12 16.3407L7.90241 18.4448C7.73355 18.5315 7.53016 18.5151 7.37737 18.4025C7.22457 18.2899 7.14872 18.1004 7.18156 17.9135L7.96117 13.4751L4.65544 10.3313C4.51656 10.1992 4.4654 9.99936 4.52374 9.8168C4.58207 9.63423 4.73963 9.50107 4.92937 9.474L9.50837 8.82049L11.5538 4.77442C11.6389 4.60611 11.8114 4.5 12 4.5ZM12 6.10826L10.2832 9.50423C10.2096 9.64998 10.0693 9.75056 9.90766 9.77364L6.09266 10.3181L8.84459 12.9353C8.96593 13.0507 9.02145 13.2192 8.99248 13.3841L8.34052 17.0957L11.7716 15.3339C11.915 15.2603 12.085 15.2603 12.2284 15.3339L15.6595 17.0957L15.0076 13.3841C14.9786 13.2192 15.0341 13.0507 15.1554 12.9353L17.9074 10.3181L14.0924 9.77364C13.9307 9.75056 13.7905 9.64998 13.7168 9.50423L12 6.10826Z" stroke-linecap="round" stroke-linejoin="round"/>
  </symbol>
  <symbol  xmlns="http://www.w3.org/2000/svg" viewBox="0 0 10 8" id="check_mark">
      <path fill-rule="evenodd" clip-rule="evenodd" d="M9.70712 1.70706L4.00001 7.41417L0.292908 3.70706L1.70712 2.29285L4.00001 4.58574L8.29291 0.292847L9.70712 1.70706Z"/>      
  </symbol>
  <symbol  xmlns="http://www.w3.org/2000/svg" viewBox="0 0 24 24" id="star_rate">
    <path d="M12 5L14.163 9.27865L19 9.96898L15.5 13.2976L16.326 18L12 15.7787L7.674 18L8.5 13.2976L5 9.96898L9.837 9.27865L12 5Z" stroke="#F1BF0F" stroke-linecap="round" stroke-linejoin="round"/>
  </symbol>
  <symbol  xmlns="http://www.w3.org/2000/svg" viewBox="0 0 24 24" id="reset">
    <path fill-rule="evenodd" clip-rule="evenodd" d="M6.98809 4.56946C7.30259 4.29989 7.33901 3.82641 7.06944 3.51192C6.79988 3.19743 6.3264 3.161 6.01191 3.43057L2.51678 6.42639C2.35364 6.56397 2.25 6.76988 2.25 7C2.25 7.18856 2.31959 7.36087 2.43448 7.49265C2.44574 7.50557 2.45747 7.51814 2.46967 7.53034L5.96967 11.0303C6.26256 11.3232 6.73744 11.3232 7.03033 11.0303C7.32322 10.7375 7.32322 10.2626 7.03033 9.96968L4.81065 7.75H14.497C17.5352 7.75 20.1273 10.2419 20.2456 13.2793C20.3709 16.4879 17.7094 19.25 14.497 19.25H5.999C5.58479 19.25 5.249 19.5858 5.249 20C5.249 20.4142 5.58479 20.75 5.999 20.75H14.497C18.5586 20.75 21.903 17.2822 21.7444 13.2208C21.5947 9.37817 18.3408 6.25 14.497 6.25H5.02746L6.98809 4.56946Z"/>
  </symbol>
  <symbol  xmlns="http://www.w3.org/2000/svg" viewBox="0 0 87 84" id="constructor-text">
    <path d="M38.153 3.60886C38.3943 3.57242 38.614 3.62605 38.812 3.76976C39.01 3.91346 39.1261 4.10751 39.1603 4.3519C39.199 4.59019 39.145 4.80722 38.9982 5.00298C38.8515 5.19875 38.6574 5.31485 38.4161 5.35129C38.1827 5.38653 37.967 5.3323 37.769 5.1886C37.5683 5.04529 37.4486 4.8545 37.4099 4.61621C37.3881 4.45403 37.4084 4.30043 37.4705 4.15541C37.5301 4.01079 37.6202 3.88869 37.7407 3.7891C37.8591 3.69257 37.9965 3.63249 38.153 3.60886Z"/>
    <path d="M23.4485 5.86384L27.4487 7.94159L28.1093 7.62555L26.5551 4.37741L27.9015 3.73317L31.4579 11.1658L30.1114 11.81L28.6493 8.75423L28.3118 8.91573L27.1318 13.2357L25.4733 14.0293L26.7875 9.23476L21.79 6.65742L23.4485 5.86384Z" />
    <path d="M18.2374 9.40289C18.7192 9.0395 19.2167 8.83057 19.73 8.77608C20.2432 8.72159 20.741 8.81145 21.2233 9.04565C21.7035 9.28146 22.1358 9.6542 22.5202 10.1639C22.9046 10.6735 23.145 11.1927 23.2413 11.7213C23.3356 12.2516 23.286 12.756 23.0925 13.2345C22.8991 13.713 22.5615 14.1339 22.0796 14.4973C21.5978 14.8607 21.1003 15.0696 20.5871 15.1241C20.0739 15.1786 19.5763 15.0869 19.0945 14.8489C18.6106 14.6126 18.1764 14.2396 17.792 13.7299C17.4076 13.2203 17.1691 12.7014 17.0765 12.1732C16.9817 11.6467 17.0311 11.1442 17.2245 10.6657C17.418 10.1872 17.7556 9.76628 18.2374 9.40289ZM18.9335 10.3392C18.6723 10.5363 18.508 10.7728 18.4406 11.0487C18.3748 11.3267 18.3912 11.6201 18.4896 11.9288C18.5859 12.2392 18.7471 12.5442 18.9733 12.844C19.201 13.146 19.4508 13.3859 19.7227 13.5638C19.9941 13.7454 20.2725 13.8429 20.5579 13.856C20.8433 13.8692 21.1167 13.7773 21.3779 13.5803C21.6456 13.3784 21.8134 13.1376 21.8813 12.8579C21.9471 12.5799 21.931 12.2846 21.8331 11.9721C21.7346 11.6634 21.5715 11.3581 21.3438 11.0562C21.1177 10.7564 20.8697 10.5167 20.6 10.3372C20.3281 10.1593 20.0494 10.0637 19.764 10.0506C19.478 10.0411 19.2012 10.1374 18.9335 10.3392Z" />
    <path d="M14.2566 18.7189L13.3675 17.9206L15.5661 15.4718L16.4552 16.27L14.2566 18.7189ZM18.0043 18.2664L13.4059 14.138L14.344 13.0932L18.9424 17.2215L18.0043 18.2664ZM15.4698 21.0895L10.8714 16.9611L11.8067 15.9192L16.4051 20.0476L15.4698 21.0895Z" />
    <path d="M7.85354 21.6388C8.16995 21.1092 8.55794 20.7239 9.01748 20.483C9.47565 20.2443 9.97087 20.145 10.5032 20.1849C11.0364 20.2286 11.5712 20.4106 12.1077 20.7312C12.6465 21.0531 13.06 21.4408 13.3483 21.8943C13.639 22.3491 13.7866 22.8342 13.7912 23.3493C13.7968 23.8682 13.6448 24.3867 13.3353 24.9047C13.078 25.3353 12.7709 25.6689 12.4139 25.9055C12.0578 26.1458 11.6768 26.279 11.2706 26.305C10.8668 26.3325 10.4656 26.2458 10.0668 26.0451L10.7808 24.8501C11.0653 24.9544 11.3471 24.9666 11.6261 24.8865C11.9061 24.8101 12.1362 24.621 12.3165 24.3194C12.4692 24.0638 12.5342 23.7981 12.5116 23.5221C12.4913 23.2475 12.3857 22.9798 12.1948 22.7189C12.0025 22.4603 11.7279 22.2243 11.3711 22.0111C11.0096 21.7951 10.6671 21.6623 10.3436 21.6128C10.0225 21.5646 9.73458 21.5941 9.47994 21.7013C9.22623 21.8122 9.02165 21.9977 8.86619 22.2579C8.75613 22.4421 8.69231 22.6273 8.67471 22.8137C8.65804 23.0037 8.6869 23.1881 8.76129 23.3669C8.83567 23.5457 8.95741 23.7106 9.12651 23.8616L8.41251 25.0566C8.05509 24.8024 7.78841 24.4931 7.61249 24.1287C7.43886 23.7656 7.36868 23.3706 7.40193 22.9437C7.43749 22.5181 7.58802 22.0831 7.85354 21.6388Z" />
    <path d="M10.4515 27.8975L11.573 28.31L9.70637 33.3848L8.58492 32.9723L9.27518 31.0957L4.5968 29.3749L5.08289 28.0533L9.76127 29.7741L10.4515 27.8975Z"/>
    <path d="M1.19608 33.2895L9.57591 34.6963L9.33877 36.1089L8.33096 35.9397L8.31697 36.023C8.45267 36.1219 8.59251 36.2528 8.73651 36.4157C8.88315 36.579 8.99667 36.7857 9.07707 37.0359C9.16011 37.2864 9.17165 37.5902 9.1117 37.9473C9.03265 38.4182 8.84102 38.8225 8.53681 39.1604C8.2348 39.5013 7.83104 39.7435 7.32555 39.8871C6.82226 40.0338 6.23203 40.0503 5.55487 39.9366C4.88565 39.8243 4.33537 39.619 3.90404 39.3209C3.47271 39.0227 3.1658 38.6639 2.9833 38.2443C2.80081 37.8247 2.74975 37.3756 2.83013 36.8968C2.88875 36.5477 2.99557 36.2678 3.15059 36.0572C3.30561 35.8466 3.47689 35.685 3.66443 35.5723C3.85417 35.4627 4.02954 35.382 4.19054 35.3302L4.20054 35.2707L0.954939 34.7258L1.19608 33.2895ZM6.29222 35.5933C5.89809 35.5271 5.54358 35.5247 5.22867 35.5861C4.91332 35.6501 4.65455 35.7739 4.45238 35.9575C4.25241 36.1443 4.12689 36.3897 4.07582 36.6939C4.02253 37.0113 4.06255 37.2914 4.19586 37.5341C4.33183 37.7772 4.53883 37.9778 4.81688 38.136C5.09713 38.2973 5.42771 38.4099 5.80861 38.4739C6.18687 38.5374 6.5319 38.5395 6.84372 38.4804C7.15554 38.4212 7.41276 38.2985 7.61537 38.1122C7.81799 37.9259 7.94616 37.6728 7.9999 37.3527C8.05141 37.0459 8.01448 36.7718 7.8891 36.5304C7.76371 36.2891 7.56486 36.0884 7.29255 35.9285C7.01979 35.7712 6.68635 35.6595 6.29222 35.5933Z" />
    <path d="M0.334283 42.6357C0.328989 42.4373 0.340175 42.2532 0.367842 42.0834C0.3929 41.9164 0.424214 41.7827 0.461785 41.6824L1.60495 41.99C1.54894 42.2035 1.52449 42.3933 1.53161 42.5594C1.53872 42.7256 1.59491 42.8703 1.70015 42.9936C1.80279 43.1197 1.97193 43.2238 2.20755 43.3061L2.54469 43.4219L8.79112 41.0134L8.83234 42.5578L4.20502 44.106L4.20674 44.1704L8.91014 45.4736L8.95146 47.022L1.95989 44.7334C1.6297 44.6269 1.34544 44.4815 1.10709 44.2974C0.866067 44.1133 0.680201 43.8848 0.549496 43.6119C0.416181 43.3418 0.344443 43.0164 0.334283 42.6357Z"/>
    <path d="M3.32152 49.679L9.3527 48.3322L9.6701 49.7536L7.23564 50.2972L7.35137 50.8155L10.1909 52.086L10.5732 53.798L7.11368 52.2249L4.54727 55.1683L4.16324 53.4485L6.06758 51.2877L5.91239 50.5927L3.63892 51.1004L3.32152 49.679Z" />
    <path d="M9.98174 55.0942L11.0796 54.6225L13.2142 59.5906L12.1163 60.0623L11.327 58.2251L6.74704 60.193L6.19115 58.8992L10.7711 56.9314L9.98174 55.0942Z"/>
    <path d="M10.297 66.3843C9.96024 65.8835 9.77859 65.3754 9.75201 64.86C9.72544 64.3445 9.84215 63.8524 10.1022 63.3834C10.3637 62.9167 10.7593 62.5053 11.289 62.1491C11.8188 61.7929 12.3502 61.581 12.8833 61.5135C13.4179 61.4481 13.9189 61.525 14.3862 61.7441C14.8535 61.9632 15.2555 62.3232 15.5922 62.824C15.9289 63.3248 16.1106 63.8329 16.1372 64.3483C16.1637 64.8638 16.0452 65.3556 15.7814 65.8238C15.5192 66.2942 15.1232 66.7075 14.5935 67.0637C14.0637 67.4199 13.5326 67.6299 13.0003 67.6937C12.4694 67.7598 11.9703 67.6833 11.503 67.4642C11.0357 67.2451 10.6337 66.8851 10.297 66.3843ZM11.2697 65.74C11.4523 66.0115 11.6795 66.1884 11.9513 66.2707C12.2254 66.3514 12.5193 66.351 12.8329 66.2694C13.148 66.1901 13.4613 66.0457 13.7729 65.8361C14.0868 65.6251 14.3399 65.3887 14.5323 65.1268C14.7284 64.8657 14.8408 64.593 14.8694 64.3087C14.898 64.0244 14.8211 63.7465 14.6385 63.4749C14.4514 63.1967 14.2201 63.0161 13.9445 62.9331C13.6704 62.8524 13.3747 62.8524 13.0574 62.9333C12.7438 63.0148 12.4301 63.1611 12.1162 63.3722C11.8046 63.5817 11.5519 63.8163 11.358 64.0759C11.1656 64.3378 11.0551 64.6108 11.0265 64.8951C11.0015 65.1801 11.0826 65.4618 11.2697 65.74Z" />
    <path d="M12.1311 72.1109L18.1421 66.1052L19.1544 67.1185L18.4315 67.8407L18.4912 67.9005C18.6506 67.8475 18.8383 67.8096 19.0546 67.787C19.2727 67.7624 19.5069 67.79 19.7572 67.8698C20.0094 67.9477 20.2635 68.1147 20.5194 68.3708C20.8568 68.7086 21.0748 69.0994 21.1732 69.5432C21.2754 69.9871 21.2382 70.4564 21.0616 70.9514C20.8888 71.4463 20.5595 71.9364 20.0738 72.4217C19.5937 72.9013 19.1071 73.2302 18.6139 73.4082C18.1207 73.5863 17.6504 73.6278 17.2028 73.5328C16.7553 73.4377 16.3599 73.2185 16.0168 72.8751C15.7666 72.6246 15.6007 72.3751 15.5193 72.1267C15.4378 71.8782 15.4057 71.6449 15.4229 71.4268C15.4438 71.2087 15.48 71.019 15.5312 70.8578L15.4886 70.8152L13.1604 73.1412L12.1311 72.1109ZM16.9657 69.2995C16.683 69.582 16.4752 69.8692 16.3423 70.1612C16.2113 70.4551 16.1619 70.7377 16.194 71.0089C16.2299 71.2802 16.3569 71.5249 16.5749 71.7431C16.8024 71.9708 17.0536 72.1008 17.3286 72.1332C17.6055 72.1636 17.8891 72.1116 18.1793 71.9771C18.4733 71.8425 18.757 71.6388 19.0302 71.3658C19.3015 71.0947 19.5036 70.8151 19.6365 70.5268C19.7694 70.2386 19.8188 69.9579 19.7848 69.6848C19.7508 69.4117 19.6191 69.1603 19.3897 68.9308C19.1698 68.7107 18.9252 68.5816 18.6559 68.5435C18.3866 68.5055 18.1078 68.5509 17.8195 68.6797C17.533 68.8104 17.2485 69.017 16.9657 69.2995Z" />
    <path d="M26.1236 76.535C25.909 76.4188 25.7659 76.2437 25.6943 76.0097C25.6228 75.7758 25.6469 75.5509 25.7668 75.3352C25.8794 75.1217 26.0532 74.9809 26.2882 74.913C26.5233 74.8451 26.7481 74.8692 26.9628 74.9855C27.1703 75.0979 27.3099 75.271 27.3814 75.505C27.4553 75.7403 27.436 75.9646 27.3234 76.1782C27.2432 76.3208 27.1345 76.4313 26.9976 76.5096C26.8629 76.5892 26.7175 76.6324 26.5613 76.6393C26.4087 76.6451 26.2628 76.6104 26.1236 76.535Z"/>
    <path d="M42.3834 78.6223L40.9066 78.3337C40.9119 78.0833 40.8761 77.8536 40.7995 77.6445C40.7233 77.4329 40.6139 77.2448 40.4711 77.0802C40.3284 76.9157 40.1555 76.7794 39.9525 76.6714C39.7527 76.5613 39.529 76.4821 39.2816 76.4337C38.842 76.3478 38.4308 76.3822 38.048 76.537C37.6657 76.6891 37.3371 76.9583 37.0621 77.3445C36.7876 77.7281 36.5909 78.224 36.4721 78.8321C36.3512 79.4507 36.3454 79.9907 36.4547 80.452C36.5672 80.9113 36.7708 81.2817 37.0656 81.5635C37.3635 81.843 37.7309 82.0255 38.1679 82.1109C38.4101 82.1583 38.6426 82.1709 38.8656 82.1489C39.0916 82.1248 39.3013 82.066 39.4944 81.9726C39.6902 81.8797 39.864 81.7524 40.0159 81.5908C40.1704 81.4297 40.2931 81.235 40.3842 81.0069L41.8594 81.3034C41.729 81.6769 41.5387 82.0141 41.2886 82.315C41.0411 82.6165 40.7448 82.8674 40.3995 83.0677C40.0548 83.2654 39.6708 83.3981 39.2477 83.4657C38.8251 83.5307 38.3729 83.5161 37.8912 83.422C37.1804 83.283 36.5782 82.9945 36.0844 82.5564C35.5907 82.1183 35.2439 81.5572 35.0442 80.8732C34.8445 80.1892 34.8295 79.4129 34.9993 78.5442C35.1696 77.6729 35.4771 76.9596 35.9218 76.4043C36.367 75.8463 36.9007 75.4573 37.5231 75.2374C38.1455 75.0174 38.8094 74.9763 39.5149 75.1142C39.965 75.2022 40.3712 75.3472 40.7335 75.5492C41.0957 75.7511 41.4043 76.0041 41.6592 76.3081C41.9146 76.6094 42.1052 76.9555 42.231 77.3463C42.36 77.735 42.4108 78.1604 42.3834 78.6223Z" />
    <path d="M46.0894 83.8799C45.486 83.8882 44.9612 83.7626 44.515 83.5032C44.0689 83.2438 43.7204 82.8771 43.4698 82.4031C43.2219 81.929 43.0935 81.3729 43.0847 80.7346C43.0759 80.0963 43.1889 79.5354 43.4236 79.052C43.661 78.5686 43.9992 78.1911 44.438 77.9195C44.8769 77.6479 45.398 77.5079 46.0015 77.4996C46.6049 77.4913 47.1297 77.6168 47.5759 77.8762C48.0221 78.1356 48.3691 78.5037 48.6171 78.9804C48.8678 79.4571 48.9975 80.0146 49.0063 80.6529C49.0151 81.2912 48.9008 81.8507 48.6633 82.3315C48.4285 82.8122 48.0917 83.1884 47.6529 83.46C47.214 83.7316 46.6929 83.8715 46.0894 83.8799ZM46.0814 82.7131C46.4086 82.7086 46.6809 82.615 46.8983 82.4323C47.1158 82.2469 47.276 82.0006 47.379 81.6933C47.4848 81.3861 47.5351 81.0447 47.5299 80.6693C47.5247 80.2911 47.465 79.9499 47.3508 79.6457C47.2393 79.3388 47.0723 79.0956 46.8499 78.9163C46.6274 78.7369 46.3526 78.6495 46.0254 78.654C45.6902 78.6587 45.4125 78.7537 45.1924 78.9391C44.975 79.1245 44.8135 79.3722 44.7078 79.6821C44.6047 79.9894 44.5558 80.332 44.561 80.7102C44.5662 81.0857 44.6245 81.4255 44.736 81.7298C44.8502 82.034 45.0185 82.2758 45.2409 82.4551C45.466 82.6317 45.7462 82.7177 46.0814 82.7131Z" />
    <path d="M50.7041 81.6108L52.1196 81.324C52.1786 81.5474 52.3152 81.7017 52.5295 81.7869C52.7438 81.8721 53.0021 81.8841 53.3044 81.8228C53.612 81.7605 53.8574 81.641 54.0405 81.4643C54.2257 81.2845 54.2904 81.0566 54.2345 80.7806C54.2014 80.6176 54.1317 80.4826 54.0251 80.3755C53.9181 80.2659 53.784 80.1918 53.623 80.1532C53.4619 80.1147 53.2815 80.1157 53.0817 80.1562L52.1551 80.3439L51.9497 79.3305L52.8764 79.1428C53.1734 79.0826 53.3843 78.9687 53.5091 78.8011C53.6365 78.633 53.6792 78.4451 53.6371 78.2374C53.5918 78.014 53.4736 77.8491 53.2824 77.7428C53.0938 77.636 52.8575 77.6113 52.5736 77.6689C52.2897 77.7264 52.0662 77.8387 51.903 78.0059C51.7425 78.1725 51.6788 78.3578 51.7119 78.5618L50.3042 78.8471C50.2381 78.4937 50.2812 78.1662 50.4335 77.8644C50.5884 77.5621 50.8261 77.3032 51.1464 77.0878C51.4694 76.8718 51.8516 76.7191 52.2933 76.6296C52.7664 76.5338 53.1896 76.5219 53.5627 76.5941C53.9359 76.6663 54.2416 76.8109 54.4799 77.0281C54.7177 77.2427 54.8712 77.5208 54.9404 77.8625C55.007 78.1911 54.9596 78.484 54.7982 78.7411C54.6363 78.9956 54.3912 79.2039 54.0628 79.3663L54.0756 79.4294C54.3175 79.394 54.5469 79.4187 54.7638 79.5034C54.9802 79.5854 55.166 79.7188 55.3211 79.9036C55.4762 80.0883 55.5815 80.3174 55.6369 80.5908C55.712 80.9615 55.6705 81.3037 55.5124 81.6177C55.3538 81.9289 55.1025 82.1947 54.7585 82.4149C54.4172 82.6346 54.0073 82.7929 53.5288 82.8898C53.0636 82.9841 52.6328 82.9988 52.2365 82.9341C51.8424 82.8662 51.5106 82.7213 51.2413 82.4995C50.9719 82.2776 50.7928 81.9814 50.7041 81.6108Z" />
    <path d="M58.8462 83.152L57.7001 80.3868L58.1536 80.1989C58.236 80.0544 58.2846 79.8847 58.2997 79.6898C58.3136 79.4923 58.301 79.2726 58.2616 79.0305C58.2237 78.7849 58.1651 78.5174 58.0858 78.228C58.0054 77.9361 57.9126 77.6247 57.8074 77.2938L57.1422 75.2264L61.2677 73.5165L63.1748 78.1177L64.0593 77.7511L65.2054 80.5163L63.9046 81.0555L63.2176 79.3978L59.4823 80.946L60.1694 82.6036L58.8462 83.152ZM59.5362 79.6258L61.8888 78.6507L60.4315 75.1348L58.759 75.828L59.0488 76.7793C59.2498 77.4044 59.3988 77.9494 59.4957 78.4145C59.5926 78.8795 59.6061 79.2833 59.5362 79.6258Z"/>
    <path d="M67.9181 76.6292C67.5933 76.848 67.2618 76.9872 66.9236 77.0469C66.5861 77.1028 66.2646 77.0672 65.959 76.9399C65.6556 76.8112 65.3908 76.5789 65.1645 76.243C64.9697 75.9538 64.8619 75.6787 64.8413 75.4177C64.8207 75.1567 64.8645 74.9073 64.9728 74.6694C65.081 74.4316 65.2313 74.2059 65.4236 73.9922C65.6168 73.7748 65.8289 73.5688 66.0601 73.3743C66.3394 73.1408 66.5642 72.9489 66.7346 72.7986C66.9035 72.646 67.0122 72.5145 67.0608 72.4042C67.11 72.2902 67.0957 72.1753 67.0178 72.0596L67.0043 72.0396C66.835 71.7882 66.6293 71.6438 66.3874 71.6063C66.1454 71.5688 65.8843 71.6444 65.604 71.8332C65.3082 72.0325 65.117 72.2551 65.0304 72.5011C64.946 72.7455 64.933 72.9758 64.9913 73.192L63.7556 73.7916C63.6348 73.4202 63.6062 73.061 63.67 72.7141C63.7323 72.3649 63.8762 72.0383 64.1016 71.7345C64.3255 71.4284 64.6166 71.1547 64.9747 70.9135C65.2216 70.7471 65.4869 70.6104 65.7706 70.5034C66.0542 70.3964 66.3422 70.3415 66.6346 70.3386C66.9254 70.3335 67.2084 70.4031 67.4836 70.5476C67.7611 70.6906 68.0144 70.9323 68.2437 71.2726L70.5545 74.7028L69.3933 75.485L68.919 74.781L68.8789 74.8079C68.9014 74.9997 68.8879 75.2029 68.8384 75.4174C68.7895 75.6281 68.6905 75.8388 68.5413 76.0493C68.3927 76.2561 68.185 76.4494 67.9181 76.6292ZM67.6338 75.5303C67.8763 75.367 68.0542 75.1775 68.1678 74.962C68.2798 74.7442 68.3297 74.5231 68.3174 74.2985C68.3074 74.0724 68.2387 73.8648 68.1113 73.6757L67.7045 73.0717C67.6876 73.1284 67.6426 73.2007 67.5694 73.2889C67.4984 73.3755 67.414 73.4663 67.3163 73.5612C67.2186 73.6562 67.1204 73.7482 67.0219 73.8372C66.9234 73.9262 66.8379 74.0032 66.7653 74.0683C66.6016 74.2141 66.4673 74.3628 66.3624 74.5143C66.2575 74.6658 66.1976 74.8194 66.1827 74.9749C66.1663 75.1283 66.2106 75.2828 66.3155 75.4385C66.4654 75.6609 66.6597 75.7742 66.8985 75.7782C67.1373 75.7823 67.3824 75.6997 67.6338 75.5303Z"/>
    <path d="M72.3595 70.2503L71.1312 65.5256L72.189 64.4668L76.5607 68.8346L75.5655 69.8307L72.5855 66.8535L73.8223 71.5754L72.7617 72.637L68.39 68.2692L69.3824 67.2759L72.3595 70.2503ZM69.3469 64.3059L70.1176 63.5346C70.4496 63.8664 70.5987 64.256 70.5647 64.7037C70.5308 65.1475 70.3091 65.5743 69.8996 65.9841C69.4939 66.3902 69.0682 66.6113 68.6226 66.6476C68.1769 66.68 67.789 66.5294 67.4588 66.1958L68.2237 65.4301C68.3603 65.5666 68.5244 65.6472 68.716 65.6717C68.9076 65.6925 69.1057 65.6004 69.3104 65.3955C69.5114 65.1944 69.6014 64.9981 69.5804 64.8065C69.5614 64.6131 69.4836 64.4462 69.3469 64.3059Z"/>
    <path d="M82.1944 59.902C81.9162 60.4526 81.5564 60.8643 81.1151 61.1372C80.6749 61.4076 80.1879 61.5417 79.6542 61.5394C79.1192 61.5336 78.5728 61.3898 78.015 61.1079C77.4549 60.8249 77.0149 60.4674 76.6953 60.0354C76.3732 59.6022 76.1917 59.1289 76.1507 58.6153C76.1085 58.0981 76.2235 57.5702 76.4956 57.0316C76.7218 56.5839 77.0046 56.2295 77.3439 55.9682C77.6821 55.7033 78.0528 55.5435 78.4561 55.4889C78.857 55.433 79.2634 55.4911 79.6753 55.6631L79.0475 56.9056C78.7564 56.8216 78.4745 56.8294 78.2018 56.929C77.9279 57.025 77.7117 57.2298 77.5532 57.5434C77.419 57.8092 77.3728 58.0789 77.4149 58.3525C77.4545 58.625 77.5788 58.8846 77.7877 59.1314C77.9977 59.3758 78.2883 59.5917 78.6594 59.7792C79.0352 59.9691 79.3862 60.0773 79.7124 60.1039C80.0361 60.1292 80.3212 60.0794 80.5677 59.9545C80.8129 59.826 81.0039 59.6265 81.1405 59.356C81.2373 59.1645 81.2879 58.9752 81.2923 58.7881C81.2955 58.5974 81.2537 58.4155 81.1668 58.2424C81.08 58.0693 80.9469 57.9134 80.7675 57.7747L81.3953 56.5322C81.7698 56.7605 82.0577 57.0502 82.2589 57.4013C82.4578 57.7512 82.5557 58.1402 82.5527 58.5685C82.5473 58.9955 82.4279 59.44 82.1944 59.902Z" />
    <path d="M84.0617 54.874L78.1139 53.1969L78.8182 50.6993C79.0169 49.9945 79.3145 49.4779 79.7108 49.1493C80.108 48.8182 80.5582 48.7236 81.0616 48.8656C81.3946 48.9595 81.6342 49.1524 81.7804 49.4445C81.9247 49.7332 81.977 50.0865 81.9371 50.5044C82.051 50.1994 82.2069 49.9479 82.4048 49.7501C82.6035 49.5497 82.8288 49.4126 83.0809 49.3388C83.3331 49.265 83.5985 49.2674 83.8773 49.346C84.2052 49.4385 84.466 49.6054 84.6599 49.8468C84.852 50.0848 84.9689 50.3867 85.0107 50.7524C85.0506 51.1148 85.0051 51.5284 84.874 51.993L84.0617 54.874ZM83.3282 53.2501L83.7705 51.6818C83.8432 51.4237 83.8397 51.2039 83.7599 51.0226C83.6775 50.8405 83.5304 50.7196 83.3187 50.6599C83.0735 50.5908 82.8604 50.6101 82.6795 50.7179C82.496 50.8251 82.3679 51.0077 82.2951 51.2658L81.8529 52.8341L83.3282 53.2501ZM80.9468 52.5786L81.2886 51.3666C81.3424 51.1756 81.3615 51.004 81.3459 50.8519C81.3277 50.699 81.2784 50.5723 81.1982 50.4716C81.1153 50.3702 81.0028 50.2995 80.8609 50.2595C80.6569 50.202 80.4732 50.2407 80.3097 50.3758C80.147 50.5082 80.0241 50.7216 79.9411 51.0159L79.607 52.2008L80.9468 52.5786Z" />
    <path d="M86.1178 44.3409C86.0685 44.9424 85.8934 45.4528 85.5926 45.8722C85.2918 46.2915 84.8935 46.6033 84.3977 46.8076C83.9021 47.0092 83.3362 47.0838 82.7 47.0317C82.0638 46.9795 81.5163 46.8135 81.0575 46.5337C80.599 46.2512 80.2555 45.8785 80.027 45.4157C79.7985 44.953 79.7089 44.4208 79.7583 43.8194C79.8076 43.2179 79.9827 42.7075 80.2835 42.2881C80.5843 41.8687 80.9838 41.5584 81.4821 41.357C81.9805 41.153 82.5478 41.0771 83.1841 41.1293C83.8203 41.1814 84.3663 41.3487 84.8222 41.631C85.2783 41.9106 85.6206 42.2818 85.8491 42.7445C86.0775 43.2073 86.1671 43.7394 86.1178 44.3409ZM84.9556 44.2375C84.9824 43.9114 84.9152 43.6314 84.754 43.3975C84.5902 43.1634 84.3604 42.9804 84.0644 42.8485C83.7686 42.7139 83.4336 42.6312 83.0594 42.6005C82.6825 42.5696 82.3371 42.5965 82.0234 42.6811C81.7072 42.7628 81.4492 42.9058 81.2495 43.1101C81.0497 43.3144 80.9365 43.5796 80.9097 43.9057C80.8823 44.2399 80.9504 44.5253 81.114 44.7621C81.2778 44.9962 81.5089 45.1807 81.8074 45.3155C82.1033 45.4474 82.4398 45.5288 82.8167 45.5597C83.1909 45.5904 83.5348 45.5648 83.8483 45.4829C84.1621 45.3983 84.4188 45.2538 84.6186 45.0495C84.8159 44.8423 84.9282 44.5717 84.9556 44.2375Z" />
    <path d="M83.8389 37.8026L79.382 35.8105L79.216 34.3231L85.3575 33.6374L85.5138 35.0369L81.3274 35.5043L85.7874 37.4879L85.9539 38.9793L79.8124 39.665L79.6566 38.2696L83.8389 37.8026ZM77.3151 36.4421L77.1941 35.3585C77.6606 35.3064 78.058 35.4334 78.3863 35.7395C78.7117 36.0433 78.9065 36.483 78.9708 37.0588C79.0345 37.6292 78.9413 38.0998 78.6912 38.4704C78.4382 38.8387 78.0783 39.0476 77.6115 39.097L77.4914 38.0215C77.6833 38 77.8487 37.9222 77.9875 37.7879C78.1234 37.6513 78.1753 37.4391 78.1432 37.1512C78.1116 36.8686 78.0145 36.6757 77.8518 36.5724C77.6889 36.4665 77.51 36.423 77.3151 36.4421Z"/>
    <path d="M84.7648 25.8651L82.0505 27.1269L81.8436 26.6819C81.6957 26.6056 81.5241 26.5642 81.3287 26.5574C81.1309 26.5518 80.9118 26.5737 80.6716 26.6233C80.4279 26.6715 80.1631 26.7414 79.8773 26.8329C79.589 26.9255 79.2818 27.0313 78.9557 27.1504L76.9183 27.9024L75.0356 23.8528L79.5521 21.7531L79.1485 20.8848L81.8628 19.6229L82.4564 20.8998L80.8293 21.6562L82.5339 25.3227L84.161 24.5663L84.7648 25.8651ZM81.2126 25.3247L80.139 23.0154L76.6877 24.6199L77.451 26.2616L78.3892 25.9319C79.0052 25.7046 79.5435 25.5328 80.004 25.4163C80.4645 25.2998 80.8674 25.2693 81.2126 25.3247Z"/>
    <path d="M76.3995 18.6211L71.5439 19.1259L70.656 17.921L75.6308 14.2549L76.4662 15.3885L73.0751 17.8875L77.9293 17.3739L78.8195 18.582L73.8447 22.2481L73.0117 21.1177L76.3995 18.6211Z"/>
    <path d="M72.786 13.9089L71.7288 12.9248C71.8761 12.7469 71.922 12.5459 71.8666 12.3221C71.8111 12.0982 71.6705 11.8812 71.4447 11.6711C71.215 11.4573 70.975 11.3273 70.7248 11.2813C70.4707 11.2353 70.2477 11.3154 70.0559 11.5216C69.9426 11.6433 69.8734 11.7786 69.8484 11.9275C69.8215 12.0784 69.8393 12.2306 69.9017 12.3839C69.9641 12.5373 70.07 12.6835 70.2192 12.8224L70.9112 13.4665L70.2067 14.2234L69.5147 13.5792C69.2928 13.3727 69.0775 13.2675 68.8686 13.2636C68.6577 13.2578 68.4801 13.3325 68.3357 13.4876C68.1804 13.6545 68.1152 13.8466 68.14 14.064C68.1629 14.2795 68.2804 14.486 68.4924 14.6833C68.7045 14.8807 68.9259 14.9971 69.1568 15.0324C69.3858 15.066 69.5735 15.0099 69.7201 14.8642L70.7715 15.8428C70.5227 16.1023 70.2312 16.2579 69.8972 16.3097C69.5612 16.3597 69.2123 16.3172 68.8507 16.1821C68.4871 16.0452 68.1404 15.8232 67.8106 15.5162C67.4572 15.1873 67.2013 14.8501 67.0428 14.5047C66.8843 14.1593 66.8239 13.8265 66.8618 13.5063C66.8979 13.1881 67.0347 12.9013 67.2722 12.6461C67.5007 12.4007 67.7664 12.2688 68.0694 12.2503C68.3705 12.2338 68.6826 12.3119 69.0058 12.4844L69.0496 12.4372C68.8801 12.2611 68.7666 12.0602 68.7092 11.8346C68.65 11.6108 68.6503 11.3821 68.7102 11.1485C68.7702 10.9148 68.8952 10.6959 69.0853 10.4917C69.3429 10.2149 69.6454 10.0494 69.9926 9.99516C70.3381 9.94293 70.7004 9.99258 71.0797 10.1441C71.4571 10.2938 71.8244 10.5349 72.1817 10.8675C72.5292 11.191 72.7919 11.5327 72.9699 11.8926C73.1441 12.2526 73.2195 12.6067 73.1959 12.9548C73.1723 13.303 73.0356 13.621 72.786 13.9089Z" />
    <path d="M66.4736 6.59922C66.8046 6.80838 67.0656 7.05572 67.2564 7.34125C67.4435 7.62761 67.5403 7.93628 67.547 8.26725C67.5513 8.59679 67.4454 8.93275 67.229 9.27515C67.0428 9.56993 66.8344 9.77931 66.6038 9.90328C66.3732 10.0273 66.1272 10.0876 65.866 10.0843C65.6047 10.0811 65.3375 10.0344 65.0644 9.9444C64.7877 9.8552 64.5137 9.74398 64.2426 9.61074C63.9164 9.44909 63.6502 9.32056 63.444 9.22517C63.2363 9.13204 63.0722 9.08546 62.9516 9.08545C62.8274 9.08626 62.728 9.14563 62.6535 9.26354L62.6406 9.28395C62.4787 9.54018 62.4294 9.78658 62.4925 10.0231C62.5556 10.2597 62.73 10.4683 63.0157 10.6488C63.3173 10.8393 63.598 10.9247 63.858 10.9049C64.1157 10.8837 64.3317 10.8029 64.5061 10.6624L65.5526 11.552C65.2613 11.8122 64.9441 11.9829 64.6008 12.0643C64.2561 12.1479 63.8993 12.1477 63.5304 12.0637C63.16 11.982 62.7923 11.8259 62.4272 11.5952C62.1755 11.4362 61.9436 11.2484 61.7314 11.0319C61.5192 10.8153 61.353 10.5739 61.2326 10.3074C61.1107 10.0433 61.0605 9.75617 61.0819 9.44609C61.1011 9.13458 61.2203 8.80536 61.4394 8.45842L63.6485 4.9619L64.8322 5.70972L64.3787 6.42739L64.4196 6.45318C64.5861 6.35533 64.7775 6.2859 64.9938 6.24487C65.2063 6.20468 65.439 6.2105 65.6918 6.26234C65.9409 6.31501 66.2015 6.42731 66.4736 6.59922ZM65.5823 7.30197C65.3351 7.14581 65.09 7.05918 64.847 7.04208C64.6026 7.02724 64.38 7.07065 64.1794 7.17231C63.9765 7.27254 63.8141 7.41902 63.6923 7.61176L63.3034 8.2274C63.362 8.22001 63.4464 8.23207 63.5565 8.2636C63.6644 8.29369 63.7815 8.33435 63.9078 8.38557C64.034 8.4368 64.1577 8.48957 64.2789 8.54389C64.4 8.59822 64.505 8.6455 64.5938 8.68574C64.7932 8.77683 64.9834 8.83988 65.1643 8.87488C65.3453 8.90988 65.5099 8.90286 65.6583 8.85383C65.8052 8.80706 65.9288 8.70432 66.0291 8.54559C66.1724 8.31884 66.1978 8.09535 66.1053 7.87513C66.0128 7.6549 65.8385 7.46385 65.5823 7.30197Z"/>
    <path d="M58.8454 5.10303L55.0154 8.13008L53.6203 7.58824L55.8576 1.82774L57.1702 2.33754L55.6452 6.26413L59.4692 3.23041L60.868 3.77371L58.6307 9.53421L57.3219 9.02587L58.8454 5.10303ZM54.6176 10.2545L53.6013 9.85973C53.7712 9.42219 54.0679 9.12882 54.4912 8.97962C54.9111 8.83195 55.3911 8.86298 55.9312 9.07273C56.4662 9.28053 56.8401 9.58111 57.0527 9.97445C57.2619 10.3693 57.2803 10.7851 57.1078 11.2216L56.099 10.8298C56.1689 10.6498 56.1766 10.4672 56.1219 10.2819C56.0638 10.0982 55.8997 9.95392 55.6297 9.84905C55.3646 9.74612 55.1487 9.74281 54.9818 9.83912C54.8124 9.93447 54.691 10.0729 54.6176 10.2545Z"/>
    <path d="M48.3824 4.2021L48.5933 3.02595L51.8326 3.60684L51.6217 4.78299L48.3824 4.2021ZM50.7393 7.15078L51.8301 1.0681L53.2122 1.31594L52.1214 7.39862L50.7393 7.15078ZM47.005 6.48112L48.0957 0.398438L49.4738 0.645566L48.3831 6.72825L47.005 6.48112Z" />
  </symbol>

</svg>