<svg width="0" height="0" class="hidden">
  <symbol  xmlns="http://www.w3.org/2000/svg" viewBox="0 0 24 24" id="key">
    <path fill-rule="evenodd" clip-rule="evenodd" d="M3.46447 8.46447C4.40215 7.52678 5.67392 7 7 7C8.32608 7 9.59785 7.52678 10.5355 8.46447C11.2351 9.16405 11.706 10.0496 11.9 11.0049C11.9329 11.0017 11.9663 11 12 11H17H21C21.5523 11 22 11.4477 22 12V16C22 16.5523 21.5523 17 21 17C20.4477 17 20 16.5523 20 16V13H18V15C18 15.5523 17.5523 16 17 16C16.4477 16 16 15.5523 16 15V13H12C11.9663 13 11.9329 12.9983 11.9 12.9951C11.706 13.9504 11.2351 14.8359 10.5355 15.5355C9.59785 16.4732 8.32608 17 7 17C5.67392 17 4.40215 16.4732 3.46447 15.5355C2.52678 14.5979 2 13.3261 2 12C2 10.6739 2.52678 9.40215 3.46447 8.46447ZM7 9C6.20435 9 5.44129 9.31607 4.87868 9.87868C4.31607 10.4413 4 11.2044 4 12C4 12.7956 4.31607 13.5587 4.87868 14.1213C5.44129 14.6839 6.20435 15 7 15C7.79565 15 8.55871 14.6839 9.12132 14.1213C9.68393 13.5587 10 12.7956 10 12C10 11.2044 9.68393 10.4413 9.12132 9.87868C8.55871 9.31607 7.79565 9 7 9Z" ></path>
  </symbol>
  <symbol  xmlns="http://www.w3.org/2000/svg" viewBox="0 0 24 24" id="location">
    <path fill-rule="evenodd" clip-rule="evenodd" d="M18.3527 16.1634C18.4717 15.7667 18.8899 15.5416 19.2866 15.6607C20.2301 15.9439 21.0485 16.2959 21.6477 16.7208C22.2273 17.1318 22.75 17.7221 22.75 18.5C22.75 19.2778 22.2278 19.8683 21.6481 20.2795C21.0489 20.7046 20.2304 21.0566 19.2866 21.3398C17.3895 21.9089 14.8135 22.25 12 22.25C9.18655 22.25 6.61055 21.9089 4.71337 21.3398C3.76955 21.0566 2.95113 20.7046 2.35192 20.2795C1.77217 19.8683 1.25 19.2778 1.25 18.5C1.25 17.7224 1.77221 17.132 2.35187 16.7209C2.95105 16.2959 3.76949 15.9438 4.71349 15.6606C5.11023 15.5416 5.52835 15.7668 5.64737 16.1635C5.76639 16.5602 5.54126 16.9784 5.14451 17.0974C4.27851 17.3572 3.63245 17.6516 3.21963 17.9444C2.78729 18.251 2.75 18.4497 2.75 18.5C2.75 18.5507 2.78746 18.7495 3.21974 19.0561C3.63256 19.3489 4.27857 19.6433 5.14438 19.903C6.86645 20.4196 9.29045 20.75 12 20.75C14.7095 20.75 17.1335 20.4196 18.8556 19.903C19.7214 19.6433 20.3674 19.3489 20.7803 19.0561C21.2125 18.7495 21.25 18.5507 21.25 18.5C21.25 18.4499 21.2127 18.2512 20.7801 17.9444C20.367 17.6516 19.7209 17.3572 18.8554 17.0973C18.4587 16.9783 18.2336 16.5601 18.3527 16.1634Z" ></path>
    <path fill-rule="evenodd" clip-rule="evenodd" d="M4.75 8.34C4.75 4.40732 8.01347 1.25 12 1.25C15.9866 1.25 19.25 4.4084 19.25 8.34C19.25 11.1048 17.4408 13.5798 15.7885 15.2841C14.9455 16.1535 14.1053 16.8611 13.4767 17.351C13.1618 17.5965 12.8985 17.7885 12.7125 17.9201C12.6194 17.986 12.5456 18.0368 12.4942 18.0717C12.4685 18.0891 12.4484 18.1026 12.4343 18.112L12.4176 18.123L12.4128 18.1262L12.4112 18.1272L12.4107 18.1276C12.4105 18.1277 12.4103 18.1278 12 17.5C11.5897 18.1278 11.5895 18.1277 11.5893 18.1276L11.5888 18.1272L11.5872 18.1262L11.5824 18.123L11.5657 18.112C11.5516 18.1026 11.5315 18.0891 11.5058 18.0717C11.4544 18.0368 11.3806 17.986 11.2875 17.9201C11.1015 17.7885 10.8382 17.5965 10.5233 17.351C9.89474 16.8611 9.05448 16.1535 8.21154 15.2841C6.55916 13.5798 4.75 11.1048 4.75 8.34ZM12 17.5L11.5897 18.1278C11.839 18.2907 12.161 18.2907 12.4103 18.1278L12 17.5ZM12 16.5854C12.1518 16.4753 12.3399 16.3353 12.5545 16.168C13.1447 15.7079 13.9295 15.0465 14.7115 14.2399C16.3092 12.5922 17.75 10.4872 17.75 8.34C17.75 5.2716 15.1934 2.75 12 2.75C8.80653 2.75 6.25 5.27068 6.25 8.34C6.25 10.4872 7.69084 12.5922 9.28846 14.2399C10.0705 15.0465 10.8553 15.7079 11.4455 16.168C11.6601 16.3353 11.8482 16.4753 12 16.5854Z" ></path>
    <path fill-rule="evenodd" clip-rule="evenodd" d="M9.7019 6.2019C10.3114 5.59241 11.138 5.25 12 5.25C12.862 5.25 13.6886 5.59241 14.2981 6.2019C14.9076 6.8114 15.25 7.63805 15.25 8.5C15.25 9.36195 14.9076 10.1886 14.2981 10.7981C13.6886 11.4076 12.862 11.75 12 11.75C11.138 11.75 10.3114 11.4076 9.7019 10.7981C9.09241 10.1886 8.75 9.36195 8.75 8.5C8.75 7.63805 9.09241 6.8114 9.7019 6.2019ZM12 6.75C11.5359 6.75 11.0908 6.93437 10.7626 7.26256C10.4344 7.59075 10.25 8.03587 10.25 8.5C10.25 8.96413 10.4344 9.40925 10.7626 9.73744C11.0908 10.0656 11.5359 10.25 12 10.25C12.4641 10.25 12.9092 10.0656 13.2374 9.73744C13.5656 9.40925 13.75 8.96413 13.75 8.5C13.75 8.03587 13.5656 7.59075 13.2374 7.26256C12.9092 6.93437 12.4641 6.75 12 6.75Z" ></path>
  </symbol>
  <symbol version="1.1" id="mail" xmlns="http://www.w3.org/2000/svg" xmlns:xlink="http://www.w3.org/1999/xlink" x="0px" y="0px" xml:space="preserve" viewBox="0 0 24 24">
    <path d="M20.7,5.9c0-0.1,0-0.1,0-0.1c0,0,0-0.1-0.1-0.1c0,0,0-0.1,0-0.1c0,0,0,0,0,0c0,0-0.1-0.1-0.1-0.1
	c0,0-0.1-0.1-0.1-0.1c0,0-0.1,0-0.1,0c-0.1,0-0.1,0-0.2,0c0,0,0,0-0.1,0H4c0,0,0,0-0.1,0c-0.1,0-0.1,0-0.2,0c0,0-0.1,0-0.1,0
	c0,0-0.1,0-0.1,0.1c0,0-0.1,0.1-0.1,0.1c0,0,0,0,0,0c0,0,0,0.1,0,0.1c0,0,0,0.1-0.1,0.1c0,0,0,0.1,0,0.1c0,0,0,0.1,0,0.1v12
	c0,0.4,0.3,0.8,0.8,0.8h16c0.4,0,0.8-0.3,0.8-0.8L20.7,5.9C20.8,6,20.7,5.9,20.7,5.9z M17.8,6.8L12,11.1L6.2,6.8H17.8z M4.8,17.2
	V7.5l6.8,5.1c0.3,0.2,0.6,0.2,0.9,0l6.8-5.1v9.7H4.8z"></path>
  </symbol>
  <symbol  xmlns="http://www.w3.org/2000/svg" viewBox="0 0 24 24" id="minus">
    <path fill-rule="evenodd" clip-rule="evenodd" d="M7.5 12C7.5 11.7239 7.72386 11.5 8 11.5H16C16.2761 11.5 16.5 11.7239 16.5 12C16.5 12.2761 16.2761 12.5 16 12.5H8C7.72386 12.5 7.5 12.2761 7.5 12Z" ></path>
  </symbol>
  <symbol version="1.1" id="phone" xmlns="http://www.w3.org/2000/svg" xmlns:xlink="http://www.w3.org/1999/xlink" x="0px" y="0px" xml:space="preserve" viewBox="0 0 24 24">
    <path d="M18.4,20.5c-0.3,0-0.6,0-0.8-0.1c-2.7-0.9-6.5-2.5-9-5c-2.5-2.5-4.1-6.3-5-9C3.3,5.6,3.5,4.8,3.9,4.1C4.4,3.4,5.2,3,6.1,3
	l2.5,0c0,0,0,0,0,0c0.3,0,0.6,0.1,0.9,0.2c0.3,0.2,0.5,0.4,0.6,0.7l1.2,2.2c0.1,0.2,0.2,0.5,0.2,0.8c0,0.3-0.1,0.6-0.2,0.8l-1,2.1
	c0.1,0.5,0.5,1.6,1.5,2.5c0.9,0.9,2,1.3,2.5,1.5l2.1-1c0.2-0.1,0.5-0.2,0.8-0.2c0.3,0,0.6,0.1,0.8,0.2l2.2,1.2
	c0.5,0.3,0.9,0.9,0.9,1.5v2.5c0,0.9-0.4,1.7-1.1,2.2C19.5,20.4,19,20.5,18.4,20.5z M8.6,4.5l-2.5,0C5.7,4.5,5.4,4.7,5.2,5
	C5,5.1,4.9,5.5,5,5.9c0.7,2.1,2.3,6,4.7,8.4c2.4,2.4,6.3,3.9,8.4,4.7c0.4,0.2,0.8,0,0.9-0.1c0.3-0.2,0.5-0.5,0.5-0.9v-2.5
	c0-0.1,0-0.2-0.1-0.2L17.2,14c0,0-0.1,0-0.1,0c0,0-0.1,0-0.1,0l-2.3,1.2c-0.1,0.1-0.3,0.1-0.5,0.1c-0.1,0-2-0.4-3.5-1.9
	c-1.5-1.5-1.9-3.4-1.9-3.5c0-0.2,0-0.3,0.1-0.5L10,7c0,0,0-0.1,0-0.1c0,0,0-0.1,0-0.1L8.8,4.6c0,0,0-0.1-0.1-0.1
	C8.7,4.5,8.6,4.5,8.6,4.5z"></path>
  </symbol>
  <symbol  xmlns="http://www.w3.org/2000/svg" viewBox="0 0 24 24" id="plus">
    <path fill-rule="evenodd" clip-rule="evenodd" d="M12.5 8C12.5 7.72386 12.2761 7.5 12 7.5C11.7239 7.5 11.5 7.72386 11.5 8V11.5H8C7.72386 11.5 7.5 11.7239 7.5 12C7.5 12.2761 7.72386 12.5 8 12.5H11.5V16C11.5 16.2761 11.7239 16.5 12 16.5C12.2761 16.5 12.5 16.2761 12.5 16V12.5H16C16.2761 12.5 16.5 12.2761 16.5 12C16.5 11.7239 16.2761 11.5 16 11.5H12.5V8Z" ></path>
  </symbol>
  <symbol  xmlns="http://www.w3.org/2000/svg" viewBox="0 0 24 24" id="search">
    <path fill-rule="evenodd" clip-rule="evenodd" d="M16.6177 18.0319C15.078 19.2635 13.125 20 11 20C6.02944 20 2 15.9706 2 11C2 6.02944 6.02944 2 11 2C15.9706 2 20 6.02944 20 11C20 13.125 19.2635 15.078 18.0319 16.6177L21.7071 20.2929C22.0976 20.6834 22.0976 21.3166 21.7071 21.7071C21.3166 22.0976 20.6834 22.0976 20.2929 21.7071L16.6177 18.0319ZM4 11C4 7.13401 7.13401 4 11 4C14.866 4 18 7.13401 18 11C18 12.8859 17.2542 14.5977 16.0414 15.8563C16.0072 15.8827 15.9743 15.9115 15.9429 15.9429C15.9115 15.9743 15.8827 16.0072 15.8563 16.0414C14.5977 17.2542 12.8859 18 11 18C7.13401 18 4 14.866 4 11Z" ></path>
  </symbol>
  <symbol  xmlns="http://www.w3.org/2000/svg" viewBox="0 0 24 24" id="search-1">
    <path fill-rule="evenodd" clip-rule="evenodd" d="M10.5 3.25C8.57718 3.25 6.73311 4.01384 5.37348 5.37348C4.01384 6.73311 3.25 8.57718 3.25 10.5C3.25 12.4228 4.01384 14.2669 5.37348 15.6265C6.73311 16.9862 8.57718 17.75 10.5 17.75C12.1712 17.75 13.7828 17.173 15.0687 16.1294L18.4697 19.5303C18.7626 19.8232 19.2374 19.8232 19.5303 19.5303C19.8232 19.2374 19.8232 18.7626 19.5303 18.4697L16.1294 15.0687C17.173 13.7828 17.75 12.1712 17.75 10.5C17.75 8.57718 16.9862 6.73311 15.6265 5.37348C14.2669 4.01384 12.4228 3.25 10.5 3.25ZM14.5659 14.5659C13.4875 15.6442 12.025 16.25 10.5 16.25C8.97501 16.25 7.51247 15.6442 6.43414 14.5659C5.3558 13.4875 4.75 12.025 4.75 10.5C4.75 8.97501 5.3558 7.51247 6.43414 6.43414C7.51247 5.3558 8.97501 4.75 10.5 4.75C12.025 4.75 13.4875 5.3558 14.5659 6.43414C15.6442 7.51247 16.25 8.97501 16.25 10.5C16.25 12.025 15.6442 13.4875 14.5659 14.5659Z" ></path>
  </symbol>
  <symbol  xmlns="http://www.w3.org/2000/svg" viewBox="0 0 24 24" id="smartphone">
    <path fill-rule="evenodd" clip-rule="evenodd" d="M8.92308 4.5C8.52334 4.5 8.15527 4.68118 7.89484 4.97741C7.63624 5.27157 7.5 5.65823 7.5 6.05V17.95C7.5 18.3418 7.63624 18.7284 7.89484 19.0226C8.15527 19.3188 8.52334 19.5 8.92308 19.5H15.0769C15.4767 19.5 15.8447 19.3188 16.1052 19.0226C16.3638 18.7284 16.5 18.3418 16.5 17.95V6.05C16.5 5.65823 16.3638 5.27157 16.1052 4.97741C15.8447 4.68118 15.4767 4.5 15.0769 4.5H8.92308ZM8.64588 5.63767C8.73168 5.54007 8.83318 5.5 8.92308 5.5H10.5C10.5 5.77614 10.7239 6 11 6H13C13.2761 6 13.5 5.77614 13.5 5.5H15.0769C15.1668 5.5 15.2683 5.54007 15.3541 5.63767C15.4417 5.73733 15.5 5.88482 15.5 6.05V17.95C15.5 18.1152 15.4417 18.2627 15.3541 18.3623C15.2683 18.4599 15.1668 18.5 15.0769 18.5H8.92308C8.83318 18.5 8.73168 18.4599 8.64588 18.3623C8.55827 18.2627 8.5 18.1152 8.5 17.95V6.05C8.5 5.88482 8.55827 5.73733 8.64588 5.63767Z" ></path>
    <path fill-rule="evenodd" clip-rule="evenodd" d="M10.5 17C10.5 16.7239 10.7239 16.5 11 16.5H13C13.2761 16.5 13.5 16.7239 13.5 17C13.5 17.2761 13.2761 17.5 13 17.5H11C10.7239 17.5 10.5 17.2761 10.5 17Z" ></path>
  </symbol>
  <symbol  xmlns="http://www.w3.org/2000/svg" viewBox="0 0 24 24" id="star">
    <path fill-rule="evenodd" clip-rule="evenodd" d="M11.3616 2.10478C11.4983 1.88419 11.7394 1.75 11.999 1.75H12C12.2589 1.75 12.4994 1.88351 12.6364 2.10318C12.6559 2.13443 12.6729 2.16679 12.6874 2.19998L15.5931 8.05357L22.1082 9.00385C22.3903 9.045 22.6247 9.24254 22.7131 9.5136C22.8014 9.78467 22.7284 10.0824 22.5247 10.2819L17.7867 14.9217L18.9128 21.371C18.9621 21.6534 18.8462 21.9391 18.614 22.1073C18.3819 22.2755 18.0743 22.2967 17.8213 22.1619L12 19.0598L6.1787 22.1619C5.92556 22.2968 5.61766 22.2755 5.3855 22.107C5.15335 21.9386 5.03761 21.6524 5.08735 21.3699L6.22272 14.9217L1.47577 10.2824C1.27171 10.0829 1.19849 9.78498 1.28688 9.51368C1.37527 9.24238 1.60994 9.04473 1.89232 9.00377L8.4427 8.05358L11.3101 2.20348C11.3247 2.16963 11.3418 2.13663 11.3616 2.10478ZM12.0038 4.19641L9.61545 9.06909C9.50646 9.29145 9.29473 9.44568 9.04966 9.48123L3.60955 10.2704L7.55421 14.1256C7.73133 14.2987 7.81158 14.5481 7.76863 14.7921L6.83151 20.1143L11.6473 17.5481C11.8677 17.4306 12.1322 17.4306 12.3527 17.5481L17.1709 20.1156L16.2412 14.791C16.1987 14.5477 16.2787 14.299 16.4552 14.1261L20.3934 10.2696L14.9877 9.48115C14.7442 9.44563 14.5336 9.2929 14.4242 9.07247L12.0038 4.19641Z" ></path>
  </symbol>
  <symbol  xmlns="http://www.w3.org/2000/svg" viewBox="0 0 24 24" id="time">
    <path fill-rule="evenodd" clip-rule="evenodd" d="M3.25 12C3.25 7.16739 7.16739 3.25 12 3.25C16.8326 3.25 20.75 7.16739 20.75 12C20.75 16.8326 16.8326 20.75 12 20.75C7.16739 20.75 3.25 16.8326 3.25 12ZM12 4.75C7.99581 4.75 4.75 7.99581 4.75 12C4.75 16.0042 7.99581 19.25 12 19.25C16.0042 19.25 19.25 16.0042 19.25 12C19.25 7.99581 16.0042 4.75 12 4.75Z" ></path>
    <path fill-rule="evenodd" clip-rule="evenodd" d="M12 7.25C12.4142 7.25 12.75 7.58579 12.75 8V11.7844L15.521 14.4605C15.819 14.7483 15.8272 15.2231 15.5395 15.521C15.2517 15.819 14.7769 15.8272 14.479 15.5395L11.479 12.6422C11.3326 12.5008 11.25 12.3061 11.25 12.1027V8C11.25 7.58579 11.5858 7.25 12 7.25Z" ></path>
  </symbol>
  <symbol  xmlns="http://www.w3.org/2000/svg" viewBox="0 0 24 24" id="user">
    <path fill-rule="evenodd" clip-rule="evenodd" d="M8.64124 2.64124C9.53204 1.75045 10.7402 1.25 12 1.25C13.2598 1.25 14.468 1.75045 15.3588 2.64124C16.2496 3.53204 16.75 4.74022 16.75 6C16.75 7.25978 16.2496 8.46796 15.3588 9.35876C14.468 10.2496 13.2598 10.75 12 10.75C10.7402 10.75 9.53204 10.2496 8.64124 9.35876C7.75044 8.46796 7.25 7.25978 7.25 6C7.25 4.74022 7.75044 3.53204 8.64124 2.64124ZM12 2.75C11.138 2.75 10.3114 3.09241 9.7019 3.7019C9.09241 4.3114 8.75 5.13805 8.75 6C8.75 6.86195 9.09241 7.6886 9.7019 8.2981C10.3114 8.90759 11.138 9.25 12 9.25C12.862 9.25 13.6886 8.90759 14.2981 8.2981C14.9076 7.6886 15.25 6.86195 15.25 6C15.25 5.13805 14.9076 4.3114 14.2981 3.7019C13.6886 3.09241 12.862 2.75 12 2.75Z" ></path>
    <path fill-rule="evenodd" clip-rule="evenodd" d="M8.26884 12.9922C9.45177 12.5022 10.7196 12.25 12 12.25C13.2804 12.25 14.5482 12.5022 15.7312 12.9922C16.9141 13.4822 17.9889 14.2003 18.8943 15.1057C19.7997 16.0111 20.5179 17.0859 21.0078 18.2688C21.3161 19.0131 21.2979 19.9392 21.0316 20.7373C20.7633 21.5413 20.1959 22.3476 19.2666 22.701C19.1814 22.7334 19.0911 22.75 19 22.75H5C4.91939 22.75 4.83931 22.737 4.76283 22.7115C3.73042 22.3674 3.14274 21.5546 2.89181 20.7146C2.64657 19.8936 2.69759 18.98 2.99218 18.2688C3.48216 17.0859 4.20034 16.0111 5.10571 15.1057C6.01109 14.2003 7.08592 13.4822 8.26884 12.9922ZM12 13.75C10.9166 13.75 9.8438 13.9634 8.84287 14.378C7.84193 14.7926 6.93246 15.4003 6.16637 16.1664C5.40029 16.9325 4.7926 17.8419 4.378 18.8429C4.2203 19.2236 4.17877 19.7821 4.32906 20.2852C4.46283 20.733 4.72609 21.0775 5.13496 21.25H18.8438C19.1791 21.0791 19.452 20.7321 19.6087 20.2625C19.7842 19.7365 19.766 19.1905 19.622 18.8429C19.2074 17.8419 18.5997 16.9325 17.8336 16.1664C17.0676 15.4003 16.1581 14.7926 15.1571 14.378C14.1562 13.9634 13.0834 13.75 12 13.75Z" ></path>
  </symbol>
  <symbol  xmlns="http://www.w3.org/2000/svg" viewBox="0 0 24 24" id="width">
    <path fill-rule="evenodd" clip-rule="evenodd" d="M16.4744 8.46947C16.7674 8.17669 17.2422 8.17687 17.535 8.46987L20.5305 11.4676C20.6771 11.6143 20.7503 11.8067 20.75 11.999C20.75 11.9993 20.75 11.9997 20.75 12C20.75 12.2246 20.6513 12.4262 20.4948 12.5636L17.5305 15.5301C17.2377 15.8231 16.7629 15.8233 16.4699 15.5305C16.1769 15.2377 16.1767 14.7629 16.4695 14.4699L18.1881 12.75H5.80745L7.52603 14.4699C7.81881 14.7629 7.81863 15.2377 7.52563 15.5305C7.23263 15.8233 6.75775 15.8231 6.46497 15.5301L3.46947 12.5324C3.32287 12.3857 3.24972 12.1934 3.25 12.0011C3.25 12.0008 3.25 12.0004 3.25 12C3.25 11.7754 3.34875 11.5738 3.50521 11.4364L6.46947 8.46987C6.76225 8.17687 7.23713 8.17669 7.53013 8.46947C7.82313 8.76225 7.82331 9.23713 7.53053 9.53013L5.81195 11.25H18.1925L16.474 9.53013C16.1812 9.23713 16.1814 8.76225 16.4744 8.46947Z" ></path>
  </symbol>
  <symbol  xmlns="http://www.w3.org/2000/svg" viewBox="0 0 24 24" id="burger">
    <path fill-rule="evenodd" clip-rule="evenodd" d="M3 6C3 5.44772 3.44772 5 4 5H20C20.5523 5 21 5.44772 21 6C21 6.55228 20.5523 7 20 7H4C3.44772 7 3 6.55228 3 6Z" ></path>
    <path fill-rule="evenodd" clip-rule="evenodd" d="M3 12C3 11.4477 3.44772 11 4 11H20C20.5523 11 21 11.4477 21 12C21 12.5523 20.5523 13 20 13H4C3.44772 13 3 12.5523 3 12Z" ></path>
    <path fill-rule="evenodd" clip-rule="evenodd" d="M3 18C3 17.4477 3.44772 17 4 17H20C20.5523 17 21 17.4477 21 18C21 18.5523 20.5523 19 20 19H4C3.44772 19 3 18.5523 3 18Z" ></path>
  </symbol>
  <symbol  xmlns="http://www.w3.org/2000/svg" viewBox="0 0 24 24" id="cart">
    <path fill-rule="evenodd" clip-rule="evenodd" d="M4.90901 17.909C5.33097 17.4871 5.90326 17.25 6.5 17.25C7.09674 17.25 7.66903 17.4871 8.09099 17.909C8.51295 18.331 8.75 18.9033 8.75 19.5C8.75 20.0967 8.51295 20.669 8.09099 21.091C7.66903 21.5129 7.09674 21.75 6.5 21.75C5.90326 21.75 5.33097 21.5129 4.90901 21.091C4.48705 20.669 4.25 20.0967 4.25 19.5C4.25 18.9033 4.48705 18.331 4.90901 17.909ZM6.5 20.25C6.69891 20.25 6.88968 20.171 7.03033 20.0303C7.17098 19.8897 7.25 19.6989 7.25 19.5C7.25 19.3011 7.17098 19.1103 7.03033 18.9697C6.88968 18.829 6.69891 18.75 6.5 18.75C6.30109 18.75 6.11032 18.829 5.96967 18.9697C5.82902 19.1103 5.75 19.3011 5.75 19.5C5.75 19.6989 5.82902 19.8897 5.96967 20.0303C6.11032 20.171 6.30109 20.25 6.5 20.25Z" ></path>
    <path fill-rule="evenodd" clip-rule="evenodd" d="M17.909 17.909C18.331 17.4871 18.9033 17.25 19.5 17.25C20.0967 17.25 20.669 17.4871 21.091 17.909C21.5129 18.331 21.75 18.9033 21.75 19.5C21.75 20.0967 21.5129 20.669 21.091 21.091C20.669 21.5129 20.0967 21.75 19.5 21.75C18.9033 21.75 18.331 21.5129 17.909 21.091C17.4871 20.669 17.25 20.0967 17.25 19.5C17.25 18.9033 17.4871 18.331 17.909 17.909ZM19.5 18.75C19.3011 18.75 19.1103 18.829 18.9697 18.9697C18.829 19.1103 18.75 19.3011 18.75 19.5C18.75 19.6989 18.829 19.8897 18.9697 20.0303C19.1103 20.171 19.3011 20.25 19.5 20.25C19.6989 20.25 19.8897 20.171 20.0303 20.0303C20.171 19.8897 20.25 19.6989 20.25 19.5C20.25 19.3011 20.171 19.1103 20.0303 18.9697C19.8897 18.829 19.6989 18.75 19.5 18.75Z" ></path>
    <path fill-rule="evenodd" clip-rule="evenodd" d="M10.25 11C10.25 10.5858 10.5858 10.25 11 10.25H15C15.4142 10.25 15.75 10.5858 15.75 11C15.75 11.4142 15.4142 11.75 15 11.75H11C10.5858 11.75 10.25 11.4142 10.25 11Z" ></path>
    <path fill-rule="evenodd" clip-rule="evenodd" d="M1.5 2.25C1.08579 2.25 0.75 2.58579 0.75 3C0.75 3.41421 1.08579 3.75 1.5 3.75H2.66442L3.27239 6.1819L3.27316 6.18496L5.7724 16.1819C5.85587 16.5158 6.15586 16.75 6.50001 16.75H19.5C19.8442 16.75 20.1441 16.5158 20.2276 16.1819L22.7276 6.1819C22.7836 5.95785 22.7333 5.72048 22.5912 5.53844C22.449 5.3564 22.231 5.25 22 5.25H4.58558L3.97761 2.8181C3.89414 2.48422 3.59415 2.25 3.25 2.25H1.5ZM7.08559 15.25L4.96059 6.75H21.0394L18.9144 15.25H7.08559Z" ></path>
  </symbol>
  <symbol  xmlns="http://www.w3.org/2000/svg" viewBox="0 0 24 24" id="category">
    <path fill-rule="evenodd" clip-rule="evenodd" d="M3.54394 3.54394C3.89223 3.19566 4.3646 3 4.85714 3H9.14286C9.6354 3 10.1078 3.19566 10.4561 3.54394C10.8043 3.89223 11 4.3646 11 4.85714V9.14286C11 9.6354 10.8043 10.1078 10.4561 10.4561C10.1078 10.8043 9.6354 11 9.14286 11H4.85714C4.3646 11 3.89223 10.8043 3.54394 10.4561C3.19566 10.1078 3 9.6354 3 9.14286V4.85714C3 4.3646 3.19566 3.89223 3.54394 3.54394ZM5 5V9H9V5H5Z" ></path>
    <path fill-rule="evenodd" clip-rule="evenodd" d="M3.54394 13.5439C3.89223 13.1957 4.3646 13 4.85714 13H9.14286C9.6354 13 10.1078 13.1957 10.4561 13.5439C10.8043 13.8922 11 14.3646 11 14.8571V19.1429C11 19.6354 10.8043 20.1078 10.4561 20.4561C10.1078 20.8043 9.6354 21 9.14286 21H4.85714C4.3646 21 3.89223 20.8043 3.54394 20.4561C3.19566 20.1078 3 19.6354 3 19.1429V14.8571C3 14.3646 3.19566 13.8922 3.54394 13.5439ZM5 15V19H9V15H5Z" ></path>
    <path fill-rule="evenodd" clip-rule="evenodd" d="M13.5439 3.54394C13.8922 3.19566 14.3646 3 14.8571 3H19.1429C19.6354 3 20.1078 3.19566 20.4561 3.54394C20.8043 3.89223 21 4.3646 21 4.85714V9.14286C21 9.6354 20.8043 10.1078 20.4561 10.4561C20.1078 10.8043 19.6354 11 19.1429 11H14.8571C14.3646 11 13.8922 10.8043 13.5439 10.4561C13.1957 10.1078 13 9.6354 13 9.14286V4.85714C13 4.3646 13.1957 3.89223 13.5439 3.54394ZM15 5V9H19V5H15Z" ></path>
    <path fill-rule="evenodd" clip-rule="evenodd" d="M13.5439 13.5439C13.8922 13.1957 14.3646 13 14.8571 13H19.1429C19.6354 13 20.1078 13.1957 20.4561 13.5439C20.8043 13.8922 21 14.3646 21 14.8571V19.1429C21 19.6354 20.8043 20.1078 20.4561 20.4561C20.1078 20.8043 19.6354 21 19.1429 21H14.8571C14.3646 21 13.8922 20.8043 13.5439 20.4561C13.1957 20.1078 13 19.6354 13 19.1429V14.8571C13 14.3646 13.1957 13.8922 13.5439 13.5439ZM15 15V19H19V15H15Z" ></path>
  </symbol>
  <symbol  xmlns="http://www.w3.org/2000/svg" viewBox="0 0 24 24" id="chevron-left">
    <path fill-rule="evenodd" clip-rule="evenodd" d="M15.7073 18.7072C15.3167 19.0977 14.6836 19.0977 14.293 18.7072L8.29305 12.7072C7.90252 12.3166 7.90252 11.6835 8.29305 11.293L14.293 5.29295C14.6836 4.90243 15.3167 4.90243 15.7073 5.29295C16.0978 5.68348 16.0978 6.31664 15.7073 6.70717L10.4144 12.0001L15.7073 17.293C16.0978 17.6835 16.0978 18.3166 15.7073 18.7072Z" ></path>
  </symbol>
  <symbol  xmlns="http://www.w3.org/2000/svg" viewBox="0 0 24 24" id="chevron-right">
    <path fill-rule="evenodd" clip-rule="evenodd" d="M8.29289 5.29289C8.68342 4.90237 9.31658 4.90237 9.70711 5.29289L15.7071 11.2929C16.0976 11.6834 16.0976 12.3166 15.7071 12.7071L9.70711 18.7071C9.31658 19.0976 8.68342 19.0976 8.29289 18.7071C7.90237 18.3166 7.90237 17.6834 8.29289 17.2929L13.5858 12L8.29289 6.70711C7.90237 6.31658 7.90237 5.68342 8.29289 5.29289Z" ></path>
  </symbol>
  <symbol  xmlns="http://www.w3.org/2000/svg" viewBox="0 0 24 24" id="close">
    <path fill-rule="evenodd" clip-rule="evenodd" d="M7.53033 6.46967C7.23744 6.17678 6.76256 6.17678 6.46967 6.46967C6.17678 6.76256 6.17678 7.23744 6.46967 7.53033L10.9393 12L6.46967 16.4697C6.17678 16.7626 6.17678 17.2374 6.46967 17.5303C6.76256 17.8232 7.23744 17.8232 7.53033 17.5303L12 13.0607L16.4697 17.5303C16.7626 17.8232 17.2374 17.8232 17.5303 17.5303C17.8232 17.2374 17.8232 16.7626 17.5303 16.4697L13.0607 12L17.5303 7.53033C17.8232 7.23744 17.8232 6.76256 17.5303 6.46967C17.2374 6.17678 16.7626 6.17678 16.4697 6.46967L12 10.9393L7.53033 6.46967Z" ></path>
  </symbol>
  <symbol  xmlns="http://www.w3.org/2000/svg" viewBox="0 0 24 24" id="comment">
    <path fill-rule="evenodd" clip-rule="evenodd" d="M20.5 8C20.5 7.72386 20.2761 7.5 20 7.5H4C3.72386 7.5 3.5 7.72386 3.5 8V14.619C3.5 14.8952 3.72386 15.119 4 15.119H13.017L16.8772 18.3819C17.0259 18.5075 17.2339 18.5355 17.4105 18.4535C17.587 18.3716 17.7 18.1946 17.7 18V15.119H20C20.2761 15.119 20.5 14.8952 20.5 14.619V8ZM19.5 8.5V14.119H17.2C16.9239 14.119 16.7 14.3429 16.7 14.619V16.9227L13.5228 14.2372C13.4325 14.1609 13.3182 14.119 13.2 14.119H4.5V8.5H19.5Z" ></path>
  </symbol>
  <symbol  xmlns="http://www.w3.org/2000/svg" viewBox="0 0 24 24" id="constructor">
    <path fill-rule="evenodd" clip-rule="evenodd" d="M13.3183 7.28242C11.6929 8.76303 10.2779 10.446 9.53028 11.4304C9.38839 11.3902 9.2442 11.3566 9.09821 11.3297C8.23134 11.1698 7.33226 11.2514 6.5126 11.5663C5.69267 11.8813 4.98291 12.418 4.47923 13.1171C3.97496 13.8169 3.70166 14.6463 3.70166 15.5C3.70166 16.5528 3.38853 17.2903 3.09252 17.7569C2.94302 17.9926 2.79584 18.1622 2.69129 18.2688C2.63911 18.3221 2.59795 18.3592 2.57303 18.3807C2.56059 18.3914 2.55226 18.3981 2.54872 18.401L2.5475 18.4019C2.29179 18.5954 2.18715 18.9304 2.28792 19.2353C2.38943 19.5425 2.67651 19.75 3.00005 19.75H8.22585C9.10861 19.75 9.97565 19.5075 10.7177 19.0477C11.4603 18.5876 12.048 17.9279 12.3975 17.1453C12.7475 16.3618 12.8402 15.4959 12.6608 14.6599C12.6451 14.5865 12.6273 14.5137 12.6076 14.4415C13.5967 13.6868 15.2561 12.2868 16.718 10.6817C17.5048 9.81787 18.251 8.87666 18.8043 7.92952C19.3511 6.99366 19.75 5.98402 19.75 5C19.75 4.58579 19.4143 4.25 19 4.25C18.016 4.25 17.0063 4.64899 16.0705 5.19584C15.1233 5.74927 14.1821 6.49554 13.3183 7.28242ZM11.9417 10.8505C11.5425 11.309 11.1957 11.7322 10.9197 12.085C11.09 12.2035 11.2521 12.3338 11.4046 12.4752C11.6005 12.6569 11.7779 12.8546 11.9348 13.0655C12.2836 12.792 12.6996 12.4507 13.1498 12.0587C12.8234 11.5863 12.4141 11.1769 11.9417 10.8505ZM12.9589 9.73404C13.457 10.1027 13.8976 10.5433 14.2662 11.0415C14.7159 10.6123 15.1724 10.1511 15.6091 9.67165C16.3555 8.85208 17.0276 7.99711 17.5092 7.17284C17.7737 6.7201 17.9691 6.29629 18.0926 5.90749C17.7038 6.031 17.28 6.22641 16.8272 6.49095C16.003 6.97259 15.148 7.64476 14.3284 8.39132C13.8491 8.82798 13.388 9.28443 12.9589 9.73404ZM8.82611 12.8048C8.22875 12.6946 7.61009 12.7516 7.05047 12.9665C6.49111 13.1814 6.02197 13.5418 5.69623 13.9939C5.37107 14.4452 5.20166 14.9693 5.20166 15.5C5.20166 16.6748 4.8983 17.5867 4.54087 18.25H8.22585C8.83603 18.25 9.4284 18.082 9.92765 17.7726C10.4264 17.4635 10.8062 17.03 11.028 16.5335C11.2493 16.0379 11.3061 15.4963 11.1942 14.9745C11.0821 14.452 10.8039 13.9638 10.3846 13.5751C9.96482 13.1857 9.42336 12.915 8.82611 12.8048Z" ></path>
    <path d="M11.6414 7.46967L8.64144 4.46967C8.34855 4.17678 7.87367 4.17678 7.58078 4.46967L4.46967 7.58078C4.17678 7.87367 4.17678 8.34855 4.46967 8.64144L6.43605 10.6078C7.04248 10.4189 7.67822 10.3365 8.31207 10.3625L6.06066 8.11111L8.11111 6.06066L8.9949 6.94444L8.46967 7.46967C8.17678 7.76256 8.17678 8.23744 8.46967 8.53033C8.76256 8.82322 9.23744 8.82322 9.53033 8.53033L10.0556 8.00511L10.6062 8.55574C10.9303 8.20051 11.2773 7.83463 11.6414 7.46967Z" ></path>
    <path d="M13.804 15.8545L15.8889 17.9393L17.9393 15.8889L17.0556 15.0051L16.5303 15.5303C16.2374 15.8232 15.7626 15.8232 15.4697 15.5303C15.1768 15.2374 15.1768 14.7626 15.4697 14.4697L15.9949 13.9444L15.4443 13.3939C15.7995 13.0698 16.1654 12.7227 16.5303 12.3586L19.5303 15.3586C19.8232 15.6515 19.8232 16.1263 19.5303 16.4192L16.4192 19.5303C16.1263 19.8232 15.6515 19.8232 15.3586 19.5303L13.4456 17.6174C13.6767 17.0539 13.7976 16.4564 13.804 15.8545Z" ></path>
  </symbol>
  <symbol  xmlns="http://www.w3.org/2000/svg" viewBox="0 0 24 24" id="copy link">
    <path fill-rule="evenodd" clip-rule="evenodd" d="M6.96967 2.96967C7.11032 2.82902 7.30109 2.75 7.5 2.75H20.5C20.6989 2.75 20.8897 2.82902 21.0303 2.96967C21.171 3.11032 21.25 3.30109 21.25 3.5V16.5C21.25 16.6989 21.171 16.8897 21.0303 17.0303C20.8897 17.171 20.6989 17.25 20.5 17.25H19.75V6.5C19.75 5.90326 19.5129 5.33097 19.091 4.90901C18.669 4.48705 18.0967 4.25 17.5 4.25H6.75V3.5C6.75 3.30109 6.82902 3.11032 6.96967 2.96967ZM5.25 4.25V3.5C5.25 2.90326 5.48705 2.33097 5.90901 1.90901C6.33097 1.48705 6.90326 1.25 7.5 1.25H20.5C21.0967 1.25 21.669 1.48705 22.091 1.90901C22.5129 2.33097 22.75 2.90326 22.75 3.5V16.5C22.75 17.0967 22.5129 17.669 22.091 18.091C21.669 18.5129 21.0967 18.75 20.5 18.75H19.75V20.5C19.75 21.0967 19.5129 21.669 19.091 22.091C18.669 22.5129 18.0967 22.75 17.5 22.75H3.5C2.90326 22.75 2.33097 22.5129 1.90901 22.091C1.48705 21.669 1.25 21.0967 1.25 20.5V6.5C1.25 5.90326 1.48705 5.33097 1.90901 4.90901C2.33097 4.48705 2.90326 4.25 3.5 4.25H5.25ZM2.96967 5.96967C3.11032 5.82902 3.30109 5.75 3.5 5.75H17.5C17.6989 5.75 17.8897 5.82902 18.0303 5.96967C18.171 6.11032 18.25 6.30109 18.25 6.5V20.5C18.25 20.6989 18.171 20.8897 18.0303 21.0303C17.8897 21.171 17.6989 21.25 17.5 21.25H3.5C3.30109 21.25 3.11032 21.171 2.96967 21.0303C2.82902 20.8897 2.75 20.6989 2.75 20.5V6.5C2.75 6.30109 2.82902 6.11032 2.96967 5.96967ZM12.401 9.32573L9.93445 11.8939C9.90465 11.9421 9.86889 11.9876 9.82716 12.0295C9.71761 12.1394 9.63296 12.2715 9.57893 12.417C9.52491 12.5625 9.50277 12.7178 9.51402 12.8726L9.5142 12.875C9.53405 13.1609 9.65711 13.4299 9.86047 13.6318C10.1544 13.9237 10.156 14.3986 9.86417 14.6925C9.5723 14.9864 9.09743 14.988 8.80352 14.6962C8.34238 14.2382 8.06321 13.6285 8.01788 12.9802C7.99125 12.6115 8.04407 12.2413 8.17278 11.8948C8.26444 11.648 8.39305 11.4173 8.5537 11.2103C8.58607 11.1478 8.62785 11.0888 8.67908 11.0355L11.3251 8.2805L11.3357 8.26969C12.3677 7.23766 14.0357 7.2801 15.0603 8.30469C16.0829 9.3273 16.1284 10.9893 15.1045 12.0222L14.1562 13.026C13.8718 13.3271 13.3971 13.3407 13.096 13.0562C12.7949 12.7718 12.7814 12.2971 13.0658 11.996L14.0208 10.985L14.0272 10.9783L14.0357 10.9697C14.4554 10.55 14.4663 9.83202 13.9997 9.36535C13.536 8.90165 12.8216 8.91031 12.401 9.32573ZM7.26333 14.9033C7.55622 14.6104 7.55622 14.1355 7.26333 13.8427C6.97043 13.5498 6.49556 13.5498 6.20267 13.8427C6.0793 13.966 5.88699 14.1539 5.72298 14.3134C5.64151 14.3927 5.56793 14.464 5.51472 14.5156L5.42886 14.5985L5.4193 14.608C4.40703 15.6217 4.37702 17.3907 5.42002 18.4337C6.44073 19.453 8.09817 19.5001 9.1314 18.4821L11.6967 16.1533C11.7032 16.1475 11.7097 16.1414 11.7161 16.1353C11.7211 16.1306 11.7259 16.1258 11.7307 16.1209C12.7593 15.0886 12.7158 13.4228 11.691 12.3993C11.3979 12.1066 10.923 12.1069 10.6303 12.4C10.3376 12.6931 10.3379 13.168 10.631 13.4607C11.0929 13.922 11.0867 14.6311 10.6777 15.0524L8.11088 17.3827C8.10194 17.3908 8.0932 17.3991 8.08467 17.4077C7.66493 17.8274 6.94686 17.8384 6.48015 17.3725C6.03472 16.9268 6.04353 16.1108 6.47719 15.6715L6.55824 15.5931C6.612 15.541 6.68636 15.4689 6.76877 15.3888C6.9325 15.2295 7.13169 15.035 7.26333 14.9033Z" ></path>
  </symbol>
  <symbol  xmlns="http://www.w3.org/2000/svg" viewBox="0 0 24 24" id="copy">
    <path fill-rule="evenodd" clip-rule="evenodd" d="M8.75 6.03107C8.75 5.87621 8.87621 5.75 9.03107 5.75H17.9689C18.1238 5.75 18.25 5.87621 18.25 6.03107V14.9689C18.25 15.1238 18.1238 15.25 17.9689 15.25H16.75V9.03107C16.75 8.04779 15.9522 7.25 14.9689 7.25H8.75V6.03107ZM7.25 7.25V6.03107C7.25 5.04779 8.04779 4.25 9.03107 4.25H17.9689C18.9522 4.25 19.75 5.04779 19.75 6.03107V14.9689C19.75 15.9522 18.9522 16.75 17.9689 16.75H16.75V17.9689C16.75 18.9522 15.9522 19.75 14.9689 19.75H6.03107C5.04779 19.75 4.25 18.9522 4.25 17.9689V9.03107C4.25 8.04779 5.04779 7.25 6.03107 7.25H7.25ZM5.75 9.03107C5.75 8.87621 5.87621 8.75 6.03107 8.75H14.9689C15.1238 8.75 15.25 8.87621 15.25 9.03107V17.9689C15.25 18.1238 15.1238 18.25 14.9689 18.25H6.03107C5.87621 18.25 5.75 18.1238 5.75 17.9689V9.03107Z" ></path>
  </symbol>
  <symbol  xmlns="http://www.w3.org/2000/svg" viewBox="0 0 24 24" id="edit">
    <path fill-rule="evenodd" clip-rule="evenodd" d="M15.661 4.46982C15.5204 4.32905 15.3295 4.24997 15.1305 4.25C14.9314 4.25003 14.7406 4.32917 14.5999 4.46998L6.46936 12.61C6.3289 12.7506 6.25 12.9412 6.25 13.14V16C6.25 16.4142 6.58579 16.75 7 16.75H9.87493C10.0739 16.75 10.2647 16.6709 10.4054 16.5302L18.5305 8.4012C18.8232 8.10834 18.8232 7.63368 18.5305 7.34081L15.661 4.46982ZM7.75 13.4504L15.1307 6.06111L16.9396 7.87098L9.56416 15.25H7.75V13.4504ZM5 19.25C4.58579 19.25 4.25 19.5858 4.25 20C4.25 20.4142 4.58579 20.75 5 20.75H20C20.4142 20.75 20.75 20.4142 20.75 20C20.75 19.5858 20.4142 19.25 20 19.25H5Z" ></path>
  </symbol>
  <symbol  xmlns="http://www.w3.org/2000/svg" viewBox="0 0 24 24" id="filter">
    <path fill-rule="evenodd" clip-rule="evenodd" d="M3.50189 2.05887C3.61033 2.01992 3.7247 2 3.83993 2H20.1601C20.2753 2 20.3897 2.01992 20.4981 2.05887C20.8254 2.17642 21.1199 2.36838 21.3601 2.61819C21.6001 2.8679 21.7796 3.16885 21.8865 3.49719C21.9933 3.82547 22.0252 4.17374 21.9802 4.5158C21.9351 4.85789 21.814 5.1863 21.6248 5.47576C21.598 5.51678 21.5682 5.55577 21.5356 5.59242L15.5108 12.3798V21C15.5108 21.3561 15.3214 21.6854 15.0135 21.8644C14.7057 22.0435 14.3258 22.0453 14.0163 21.8692L8.99468 19.012C8.6822 18.8342 8.48921 18.5024 8.48921 18.1429V12.3798L2.46436 5.59242C2.43183 5.55577 2.40204 5.51678 2.37522 5.47576C2.18598 5.1863 2.06491 4.85788 2.01984 4.5158C1.97478 4.17375 2.00667 3.82547 2.11352 3.49719C2.22039 3.16885 2.39985 2.86791 2.63992 2.61819C2.88007 2.36838 3.17461 2.17642 3.50189 2.05887ZM4.08591 4C4.0845 4.0014 4.08311 4.00282 4.08172 4.00426C4.05294 4.0342 4.02963 4.07221 4.01532 4.11618C4.001 4.1602 3.99653 4.2077 4.00271 4.25457C4.00667 4.28462 4.01484 4.31322 4.02651 4.33954L10.2371 11.3362C10.3995 11.5191 10.4892 11.7553 10.4892 12V17.5613L13.5108 19.2805V12C13.5108 11.7553 13.6005 11.5191 13.7629 11.3362L19.9735 4.33955C19.9852 4.31322 19.9933 4.28462 19.9973 4.25457C20.0035 4.20771 19.999 4.16021 19.9847 4.11618C19.9704 4.07221 19.9471 4.0342 19.9183 4.00426C19.9169 4.00282 19.9155 4.0014 19.9141 4H4.08591Z" ></path>
  </symbol>
  <symbol  xmlns="http://www.w3.org/2000/svg" viewBox="0 0 24 24" id="heart small">
    <path fill-rule="evenodd" clip-rule="evenodd" d="M7.06173 5.57769C7.60928 5.36109 8.19515 5.25 8.78605 5.25C9.37694 5.25 9.96282 5.36109 10.5104 5.57769C11.058 5.79431 11.5576 6.11268 11.9797 6.51623L11.9823 6.51868L12 6.53582L12.0203 6.51623C12.4424 6.11268 12.9421 5.79431 13.4897 5.57769C14.0372 5.36109 14.6231 5.25 15.214 5.25C15.8049 5.25 16.3907 5.36109 16.9383 5.57769C17.4856 5.7942 17.985 6.11234 18.4069 6.51557C20.2286 8.25136 20.2594 11.129 18.1179 13.2073L18.1129 13.2122L12.5173 18.543C12.2277 18.819 11.7724 18.819 11.4827 18.543L5.88206 13.2073C3.74072 11.1291 3.77138 8.2516 5.59285 6.51579C6.01487 6.11245 6.51433 5.79423 7.06173 5.57769ZM8.78605 6.75C8.38273 6.75 7.98416 6.82589 7.61351 6.97252C7.2429 7.11913 6.90861 7.3331 6.62893 7.60047L6.62799 7.60137C5.48486 8.69043 5.33341 10.5824 6.92435 12.1286L12 16.9641L17.0756 12.1286C18.6666 10.5824 18.5152 8.69043 17.372 7.60137L17.3711 7.60047C17.0914 7.3331 16.7571 7.11913 16.3865 6.97252C16.0159 6.82589 15.6173 6.75 15.214 6.75C14.8107 6.75 14.4121 6.82589 14.0414 6.97252C13.6713 7.11892 13.3375 7.33249 13.058 7.59934C13.0576 7.59972 13.0573 7.6001 13.0569 7.60047L12.5208 8.11779C12.2302 8.39822 11.7698 8.39822 11.4792 8.11779L10.9419 7.5993C10.6625 7.33247 10.3287 7.11891 9.95859 6.97252C9.58793 6.82589 9.18937 6.75 8.78605 6.75Z" ></path>
  </symbol>
  <symbol  xmlns="http://www.w3.org/2000/svg" viewBox="0 0 24 24" id="heart">
    <path fill-rule="evenodd" clip-rule="evenodd" d="M5.62594 3.44163C6.33687 3.14998 7.09867 3 7.86775 3C8.63683 3 9.39863 3.14998 10.1096 3.44163C10.8155 3.73123 11.4578 4.155 12 4.68952C12.5422 4.155 13.1845 3.73123 13.8904 3.44163C14.6013 3.14998 15.3631 3 16.1322 3C16.9013 3 17.6631 3.14998 18.374 3.44163C19.0844 3.73307 19.7305 4.16042 20.2748 4.69977C22.6135 7.01032 22.6555 10.8273 19.9037 13.597L19.8971 13.6035L12.7028 20.7114C12.3133 21.0962 11.6867 21.0962 11.2972 20.7114L4.09625 13.597C1.34463 10.8275 1.38648 7.01099 3.72454 4.70037C4.26901 4.16074 4.91526 3.73318 5.62594 3.44163ZM13.3981 6.11971C13.3975 6.12024 13.397 6.12076 13.3965 6.12129L12.7074 6.81097C12.5198 6.99868 12.2653 7.10415 12 7.10415C11.7346 7.10415 11.4802 6.99868 11.2926 6.81097L10.6035 6.12129C10.6029 6.12076 10.6024 6.12024 10.6019 6.11971C10.2445 5.76582 9.81938 5.48434 9.35047 5.29198C8.88085 5.09932 8.37694 5 7.86775 5C7.35855 5 6.85464 5.09932 6.38502 5.29198C5.91543 5.48463 5.48973 5.76665 5.13202 6.12129L5.13078 6.12251C3.65721 7.57837 3.46491 10.1211 5.51192 12.1842L12 18.5943L18.488 12.1842C20.5351 10.1211 20.3428 7.57837 18.8692 6.12251L18.868 6.12129C18.5102 5.76665 18.0845 5.48463 17.6149 5.29198C17.1453 5.09932 16.6414 5 16.1322 5C15.623 5 15.1191 5.09932 14.6495 5.29198C14.1806 5.48434 13.7555 5.76582 13.3981 6.11971Z" ></path>
  </symbol>
  <symbol  xmlns="http://www.w3.org/2000/svg" viewBox="0 0 24 24" id="height">
    <path fill-rule="evenodd" clip-rule="evenodd" d="M12.5618 3.50313C12.4244 3.34788 12.2236 3.25 12 3.25C11.9997 3.25 11.9993 3.25 11.999 3.25C11.8068 3.24975 11.6146 3.32288 11.4679 3.4694L8.46994 6.4644C8.1769 6.75715 8.17666 7.23202 8.4694 7.52506C8.76215 7.8181 9.23702 7.81834 9.53006 7.5256L11.25 5.80738V18.1882L9.53015 16.4695C9.23716 16.1767 8.76229 16.1769 8.46949 16.4698C8.1767 16.7628 8.17686 17.2377 8.46985 17.5305L11.4382 20.4969C11.5756 20.6521 11.7764 20.75 12 20.75C12.0003 20.75 12.0007 20.75 12.001 20.75C12.1932 20.7503 12.3854 20.6771 12.5321 20.5306L15.5301 17.5356C15.8231 17.2428 15.8233 16.768 15.5306 16.4749C15.2378 16.1819 14.763 16.1817 14.4699 16.4744L12.75 18.1926V5.81181L14.4698 7.53051C14.7628 7.8233 15.2377 7.82314 15.5305 7.53015C15.8233 7.23716 15.8231 6.76229 15.5302 6.46949L12.5618 3.50313Z" ></path>
  </symbol>
  <symbol  xmlns="http://www.w3.org/2000/svg" viewBox="0 0 10 8" id="check_mark">
      <path fill-rule="evenodd" clip-rule="evenodd" d="M9.70712 1.70706L4.00001 7.41417L0.292908 3.70706L1.70712 2.29285L4.00001 4.58574L8.29291 0.292847L9.70712 1.70706Z"/>      
  </symbol>
</svg>