<svg width="24" height="24" viewBox="0 0 24 24" fill="none" xmlns="http://www.w3.org/2000/svg">
<path fill-rule="evenodd" clip-rule="evenodd" d="M4.90901 17.909C5.33097 17.4871 5.90326 17.25 6.5 17.25C7.09674 17.25 7.66903 17.4871 8.09099 17.909C8.51295 18.331 8.75 18.9033 8.75 19.5C8.75 20.0967 8.51295 20.669 8.09099 21.091C7.66903 21.5129 7.09674 21.75 6.5 21.75C5.90326 21.75 5.33097 21.5129 4.90901 21.091C4.48705 20.669 4.25 20.0967 4.25 19.5C4.25 18.9033 4.48705 18.331 4.90901 17.909ZM6.5 20.25C6.69891 20.25 6.88968 20.171 7.03033 20.0303C7.17098 19.8897 7.25 19.6989 7.25 19.5C7.25 19.3011 7.17098 19.1103 7.03033 18.9697C6.88968 18.829 6.69891 18.75 6.5 18.75C6.30109 18.75 6.11032 18.829 5.96967 18.9697C5.82902 19.1103 5.75 19.3011 5.75 19.5C5.75 19.6989 5.82902 19.8897 5.96967 20.0303C6.11032 20.171 6.30109 20.25 6.5 20.25Z" fill="black"/>
<path fill-rule="evenodd" clip-rule="evenodd" d="M17.909 17.909C18.331 17.4871 18.9033 17.25 19.5 17.25C20.0967 17.25 20.669 17.4871 21.091 17.909C21.5129 18.331 21.75 18.9033 21.75 19.5C21.75 20.0967 21.5129 20.669 21.091 21.091C20.669 21.5129 20.0967 21.75 19.5 21.75C18.9033 21.75 18.331 21.5129 17.909 21.091C17.4871 20.669 17.25 20.0967 17.25 19.5C17.25 18.9033 17.4871 18.331 17.909 17.909ZM19.5 18.75C19.3011 18.75 19.1103 18.829 18.9697 18.9697C18.829 19.1103 18.75 19.3011 18.75 19.5C18.75 19.6989 18.829 19.8897 18.9697 20.0303C19.1103 20.171 19.3011 20.25 19.5 20.25C19.6989 20.25 19.8897 20.171 20.0303 20.0303C20.171 19.8897 20.25 19.6989 20.25 19.5C20.25 19.3011 20.171 19.1103 20.0303 18.9697C19.8897 18.829 19.6989 18.75 19.5 18.75Z" fill="black"/>
<path fill-rule="evenodd" clip-rule="evenodd" d="M10.25 11C10.25 10.5858 10.5858 10.25 11 10.25H15C15.4142 10.25 15.75 10.5858 15.75 11C15.75 11.4142 15.4142 11.75 15 11.75H11C10.5858 11.75 10.25 11.4142 10.25 11Z" fill="black"/>
<path fill-rule="evenodd" clip-rule="evenodd" d="M1.5 2.25C1.08579 2.25 0.75 2.58579 0.75 3C0.75 3.41421 1.08579 3.75 1.5 3.75H2.66442L3.27239 6.1819L3.27316 6.18496L5.7724 16.1819C5.85587 16.5158 6.15586 16.75 6.50001 16.75H19.5C19.8442 16.75 20.1441 16.5158 20.2276 16.1819L22.7276 6.1819C22.7836 5.95785 22.7333 5.72048 22.5912 5.53844C22.449 5.3564 22.231 5.25 22 5.25H4.58558L3.97761 2.8181C3.89414 2.48422 3.59415 2.25 3.25 2.25H1.5ZM7.08559 15.25L4.96059 6.75H21.0394L18.9144 15.25H7.08559Z" fill="black"/>
</svg>
