<svg width="24" height="24" viewBox="0 0 24 24" fill="none" xmlns="http://www.w3.org/2000/svg">
<path fill-rule="evenodd" clip-rule="evenodd" d="M3.54394 3.54394C3.89223 3.19566 4.3646 3 4.85714 3H9.14286C9.6354 3 10.1078 3.19566 10.4561 3.54394C10.8043 3.89223 11 4.3646 11 4.85714V9.14286C11 9.6354 10.8043 10.1078 10.4561 10.4561C10.1078 10.8043 9.6354 11 9.14286 11H4.85714C4.3646 11 3.89223 10.8043 3.54394 10.4561C3.19566 10.1078 3 9.6354 3 9.14286V4.85714C3 4.3646 3.19566 3.89223 3.54394 3.54394ZM5 5V9H9V5H5Z" fill="black"/>
<path fill-rule="evenodd" clip-rule="evenodd" d="M3.54394 13.5439C3.89223 13.1957 4.3646 13 4.85714 13H9.14286C9.6354 13 10.1078 13.1957 10.4561 13.5439C10.8043 13.8922 11 14.3646 11 14.8571V19.1429C11 19.6354 10.8043 20.1078 10.4561 20.4561C10.1078 20.8043 9.6354 21 9.14286 21H4.85714C4.3646 21 3.89223 20.8043 3.54394 20.4561C3.19566 20.1078 3 19.6354 3 19.1429V14.8571C3 14.3646 3.19566 13.8922 3.54394 13.5439ZM5 15V19H9V15H5Z" fill="black"/>
<path fill-rule="evenodd" clip-rule="evenodd" d="M13.5439 3.54394C13.8922 3.19566 14.3646 3 14.8571 3H19.1429C19.6354 3 20.1078 3.19566 20.4561 3.54394C20.8043 3.89223 21 4.3646 21 4.85714V9.14286C21 9.6354 20.8043 10.1078 20.4561 10.4561C20.1078 10.8043 19.6354 11 19.1429 11H14.8571C14.3646 11 13.8922 10.8043 13.5439 10.4561C13.1957 10.1078 13 9.6354 13 9.14286V4.85714C13 4.3646 13.1957 3.89223 13.5439 3.54394ZM15 5V9H19V5H15Z" fill="black"/>
<path fill-rule="evenodd" clip-rule="evenodd" d="M13.5439 13.5439C13.8922 13.1957 14.3646 13 14.8571 13H19.1429C19.6354 13 20.1078 13.1957 20.4561 13.5439C20.8043 13.8922 21 14.3646 21 14.8571V19.1429C21 19.6354 20.8043 20.1078 20.4561 20.4561C20.1078 20.8043 19.6354 21 19.1429 21H14.8571C14.3646 21 13.8922 20.8043 13.5439 20.4561C13.1957 20.1078 13 19.6354 13 19.1429V14.8571C13 14.3646 13.1957 13.8922 13.5439 13.5439ZM15 15V19H19V15H15Z" fill="black"/>
</svg>
