<?xml version="1.0" encoding="utf-8"?>
<!-- Generator: Adobe Illustrator 26.2.1, SVG Export Plug-In . SVG Version: 6.00 Build 0)  -->
<svg version="1.1" id="Layer_1" xmlns="http://www.w3.org/2000/svg" xmlns:xlink="http://www.w3.org/1999/xlink" x="0px" y="0px"
	 viewBox="0 0 24 24" style="enable-background:new 0 0 24 24;" xml:space="preserve">
<style type="text/css">
	.st0{fill-rule:evenodd;clip-rule:evenodd;}
</style>
<path class="st0" d="M20.7,5.9c0-0.1,0-0.1,0-0.1c0,0,0-0.1-0.1-0.1c0,0,0-0.1,0-0.1c0,0,0,0,0,0c0,0-0.1-0.1-0.1-0.1
	c0,0-0.1-0.1-0.1-0.1c0,0-0.1,0-0.1,0c-0.1,0-0.1,0-0.2,0c0,0,0,0-0.1,0H4c0,0,0,0-0.1,0c-0.1,0-0.1,0-0.2,0c0,0-0.1,0-0.1,0
	c0,0-0.1,0-0.1,0.1c0,0-0.1,0.1-0.1,0.1c0,0,0,0,0,0c0,0,0,0.1,0,0.1c0,0,0,0.1-0.1,0.1c0,0,0,0.1,0,0.1c0,0,0,0.1,0,0.1v12
	c0,0.4,0.3,0.8,0.8,0.8h16c0.4,0,0.8-0.3,0.8-0.8L20.7,5.9C20.8,6,20.7,5.9,20.7,5.9z M17.8,6.8L12,11.1L6.2,6.8H17.8z M4.8,17.2
	V7.5l6.8,5.1c0.3,0.2,0.6,0.2,0.9,0l6.8-5.1v9.7H4.8z"/>
</svg>
