<svg width="24" height="24" viewBox="0 0 24 24" fill="none" xmlns="http://www.w3.org/2000/svg">
<path fill-rule="evenodd" clip-rule="evenodd" d="M10.5 3.25C8.57718 3.25 6.73311 4.01384 5.37348 5.37348C4.01384 6.73311 3.25 8.57718 3.25 10.5C3.25 12.4228 4.01384 14.2669 5.37348 15.6265C6.73311 16.9862 8.57718 17.75 10.5 17.75C12.1712 17.75 13.7828 17.173 15.0687 16.1294L18.4697 19.5303C18.7626 19.8232 19.2374 19.8232 19.5303 19.5303C19.8232 19.2374 19.8232 18.7626 19.5303 18.4697L16.1294 15.0687C17.173 13.7828 17.75 12.1712 17.75 10.5C17.75 8.57718 16.9862 6.73311 15.6265 5.37348C14.2669 4.01384 12.4228 3.25 10.5 3.25ZM14.5659 14.5659C13.4875 15.6442 12.025 16.25 10.5 16.25C8.97501 16.25 7.51247 15.6442 6.43414 14.5659C5.3558 13.4875 4.75 12.025 4.75 10.5C4.75 8.97501 5.3558 7.51247 6.43414 6.43414C7.51247 5.3558 8.97501 4.75 10.5 4.75C12.025 4.75 13.4875 5.3558 14.5659 6.43414C15.6442 7.51247 16.25 8.97501 16.25 10.5C16.25 12.025 15.6442 13.4875 14.5659 14.5659Z" fill="black"/>
</svg>
