<svg width="24" height="24" viewBox="0 0 24 24" fill="none" xmlns="http://www.w3.org/2000/svg">
<path fill-rule="evenodd" clip-rule="evenodd" d="M8.92308 4.5C8.52334 4.5 8.15527 4.68118 7.89484 4.97741C7.63624 5.27157 7.5 5.65823 7.5 6.05V17.95C7.5 18.3418 7.63624 18.7284 7.89484 19.0226C8.15527 19.3188 8.52334 19.5 8.92308 19.5H15.0769C15.4767 19.5 15.8447 19.3188 16.1052 19.0226C16.3638 18.7284 16.5 18.3418 16.5 17.95V6.05C16.5 5.65823 16.3638 5.27157 16.1052 4.97741C15.8447 4.68118 15.4767 4.5 15.0769 4.5H8.92308ZM8.64588 5.63767C8.73168 5.54007 8.83318 5.5 8.92308 5.5H10.5C10.5 5.77614 10.7239 6 11 6H13C13.2761 6 13.5 5.77614 13.5 5.5H15.0769C15.1668 5.5 15.2683 5.54007 15.3541 5.63767C15.4417 5.73733 15.5 5.88482 15.5 6.05V17.95C15.5 18.1152 15.4417 18.2627 15.3541 18.3623C15.2683 18.4599 15.1668 18.5 15.0769 18.5H8.92308C8.83318 18.5 8.73168 18.4599 8.64588 18.3623C8.55827 18.2627 8.5 18.1152 8.5 17.95V6.05C8.5 5.88482 8.55827 5.73733 8.64588 5.63767Z" fill="black"/>
<path fill-rule="evenodd" clip-rule="evenodd" d="M10.5 17C10.5 16.7239 10.7239 16.5 11 16.5H13C13.2761 16.5 13.5 16.7239 13.5 17C13.5 17.2761 13.2761 17.5 13 17.5H11C10.7239 17.5 10.5 17.2761 10.5 17Z" fill="black"/>
</svg>
