<svg width="24" height="24" viewBox="0 0 24 24" fill="none" xmlns="http://www.w3.org/2000/svg">
<path fill-rule="evenodd" clip-rule="evenodd" d="M3.25 12C3.25 7.16739 7.16739 3.25 12 3.25C16.8326 3.25 20.75 7.16739 20.75 12C20.75 16.8326 16.8326 20.75 12 20.75C7.16739 20.75 3.25 16.8326 3.25 12ZM12 4.75C7.99581 4.75 4.75 7.99581 4.75 12C4.75 16.0042 7.99581 19.25 12 19.25C16.0042 19.25 19.25 16.0042 19.25 12C19.25 7.99581 16.0042 4.75 12 4.75Z" fill="black"/>
<path fill-rule="evenodd" clip-rule="evenodd" d="M12 7.25C12.4142 7.25 12.75 7.58579 12.75 8V11.7844L15.521 14.4605C15.819 14.7483 15.8272 15.2231 15.5395 15.521C15.2517 15.819 14.7769 15.8272 14.479 15.5395L11.479 12.6422C11.3326 12.5008 11.25 12.3061 11.25 12.1027V8C11.25 7.58579 11.5858 7.25 12 7.25Z" fill="black"/>
</svg>
