<svg width="24" height="24" viewBox="0 0 24 24" fill="none" xmlns="http://www.w3.org/2000/svg">
<path fill-rule="evenodd" clip-rule="evenodd" d="M8.64124 2.64124C9.53204 1.75045 10.7402 1.25 12 1.25C13.2598 1.25 14.468 1.75045 15.3588 2.64124C16.2496 3.53204 16.75 4.74022 16.75 6C16.75 7.25978 16.2496 8.46796 15.3588 9.35876C14.468 10.2496 13.2598 10.75 12 10.75C10.7402 10.75 9.53204 10.2496 8.64124 9.35876C7.75044 8.46796 7.25 7.25978 7.25 6C7.25 4.74022 7.75044 3.53204 8.64124 2.64124ZM12 2.75C11.138 2.75 10.3114 3.09241 9.7019 3.7019C9.09241 4.3114 8.75 5.13805 8.75 6C8.75 6.86195 9.09241 7.6886 9.7019 8.2981C10.3114 8.90759 11.138 9.25 12 9.25C12.862 9.25 13.6886 8.90759 14.2981 8.2981C14.9076 7.6886 15.25 6.86195 15.25 6C15.25 5.13805 14.9076 4.3114 14.2981 3.7019C13.6886 3.09241 12.862 2.75 12 2.75Z" fill="black"/>
<path fill-rule="evenodd" clip-rule="evenodd" d="M8.26884 12.9922C9.45177 12.5022 10.7196 12.25 12 12.25C13.2804 12.25 14.5482 12.5022 15.7312 12.9922C16.9141 13.4822 17.9889 14.2003 18.8943 15.1057C19.7997 16.0111 20.5179 17.0859 21.0078 18.2688C21.3161 19.0131 21.2979 19.9392 21.0316 20.7373C20.7633 21.5413 20.1959 22.3476 19.2666 22.701C19.1814 22.7334 19.0911 22.75 19 22.75H5C4.91939 22.75 4.83931 22.737 4.76283 22.7115C3.73042 22.3674 3.14274 21.5546 2.89181 20.7146C2.64657 19.8936 2.69759 18.98 2.99218 18.2688C3.48216 17.0859 4.20034 16.0111 5.10571 15.1057C6.01109 14.2003 7.08592 13.4822 8.26884 12.9922ZM12 13.75C10.9166 13.75 9.8438 13.9634 8.84287 14.378C7.84193 14.7926 6.93246 15.4003 6.16637 16.1664C5.40029 16.9325 4.7926 17.8419 4.378 18.8429C4.2203 19.2236 4.17877 19.7821 4.32906 20.2852C4.46283 20.733 4.72609 21.0775 5.13496 21.25H18.8438C19.1791 21.0791 19.452 20.7321 19.6087 20.2625C19.7842 19.7365 19.766 19.1905 19.622 18.8429C19.2074 17.8419 18.5997 16.9325 17.8336 16.1664C17.0676 15.4003 16.1581 14.7926 15.1571 14.378C14.1562 13.9634 13.0834 13.75 12 13.75Z" fill="black"/>
</svg>
