<svg width="24" height="24" viewBox="0 0 24 24" fill="none" xmlns="http://www.w3.org/2000/svg">
<path fill-rule="evenodd" clip-rule="evenodd" d="M16.4744 8.46947C16.7674 8.17669 17.2422 8.17687 17.535 8.46987L20.5305 11.4676C20.6771 11.6143 20.7503 11.8067 20.75 11.999C20.75 11.9993 20.75 11.9997 20.75 12C20.75 12.2246 20.6513 12.4262 20.4948 12.5636L17.5305 15.5301C17.2377 15.8231 16.7629 15.8233 16.4699 15.5305C16.1769 15.2377 16.1767 14.7629 16.4695 14.4699L18.1881 12.75H5.80745L7.52603 14.4699C7.81881 14.7629 7.81863 15.2377 7.52563 15.5305C7.23263 15.8233 6.75775 15.8231 6.46497 15.5301L3.46947 12.5324C3.32287 12.3857 3.24972 12.1934 3.25 12.0011C3.25 12.0008 3.25 12.0004 3.25 12C3.25 11.7754 3.34875 11.5738 3.50521 11.4364L6.46947 8.46987C6.76225 8.17687 7.23713 8.17669 7.53013 8.46947C7.82313 8.76225 7.82331 9.23713 7.53053 9.53013L5.81195 11.25H18.1925L16.474 9.53013C16.1812 9.23713 16.1814 8.76225 16.4744 8.46947Z" fill="black"/>
</svg>
